<mxfile host="Electron" agent="Mozilla/5.0 (Windows NT 10.0; Win64; x64) AppleWebKit/537.36 (KHTML, like Gecko) draw.io/24.7.17 Chrome/128.0.6613.36 Electron/32.0.1 Safari/537.36" version="24.7.17">
  <diagram name="第 1 页" id="_pB_f42VkTDZtrwZfUL_">
    <mxGraphModel dx="1450" dy="629" grid="0" gridSize="10" guides="1" tooltips="1" connect="1" arrows="1" fold="1" page="0" pageScale="1" pageWidth="1169" pageHeight="827" math="0" shadow="0">
      <root>
        <mxCell id="0" />
        <mxCell id="1" parent="0" />
        <mxCell id="HvZsyY8eHSO-N_c-Oe7b-1" value="" style="shape=image;verticalLabelPosition=bottom;labelBackgroundColor=default;verticalAlign=top;aspect=fixed;imageAspect=0;image=data:image/png,iVBORw0KGgoAAAANSUhEUgAAASwAAABRCAIAAADn1AyJAAAK0klEQVR4Ae2dWU8bWRqG88PmcjTzN1AuaPVFS1Gk3Lda6qtcBYmLGWnuuxvCZuNg9kAwDoGQQAiBOGHHLDaL7VpcVaZGzRc+nZwql2txALveo8gc13rOU/XkO0vZfvAPJBAAgTsl8OCf//4X/oEACNwhgQc2EgiAwK0TsIQECW8dP04IArYtOGhBQtwRIHAHBCDhHUDHKUFAJHAfJbxCAoG2IyBaJ+XvQMK2w4sKgUAkArckYaQyYmcQaGsCP1BCP9xqSCAQYwLkyA+RsJ5+MaaNqoNAXQJNltBVP9eTiydGHgRAgAhEmid06ie550rZRAKBGBNwShFeQslAUT/pNE7gBhIIxJIAuyA6EkZCP/rxyUzTdNKuIoFALAmwC5EkFA10jX6sH59Poq0jgUCMCZAO4SV0NZAPR/o53ROBa55JRQKBtiDgeZtruq6zNU+fPg3QHPUw0FU/ck/TNMMwTNO0LKtWq11dXUnP7+AtCMSKwNXVVa1WYwkty/enKJwG8lFEA6vVKrlXrVYNw6jVarHii8qCgE8CrI9fCesZKOlHBmqaZpqmz6JgMxCIJ4FgEvo0kAKgaZpocMbzrkKtAxEIIGFDA2mohwyEfoEuAzaOM4EwEtJsBO3JrVCxBxhnoKg7CAQl4FdCDoPeBhqGEbQE2B4EYk7Al4RsII2o0qAqYmDMbx1Uv1kEgkkohUHDMMR+YLPKhOOAQKwINJaQw6DTQJJQ13VN0zASE6v7BpVtIoEwEkoNUU3TLMtqYplwKBCIFQG/EjrDIE/Hq6oaK2SoLAg0l0ADCZ1tUYTB5l4AHA0EAkhIm9JnAhEGOx52djzsxA0EAtEJeEnoJwzG9tFQSBj95sMRiEBgCcURUVVVo382wjDM9Y1ceuxlb/9w3+DI5PTcx/VNTdPv+RWChPf8At2f4m1t72ayi6n0VM/z5Iv0VCa7tL2zJxbPr4Q/qC16cHjUN/AimRpffLuyvbO/tb37Zun9YHJ0IJE+v7gUC3rf8pDwvl2Re1gewzBm5xb+ep6cm19c/5Q7ODxa/5Sbm1+kJcbNB4waS8jjotKQjKqq1Wo1Ss3zRyfPB1Jft3alOcZarbb5+etgYvSyVI5y/ED79vT2PXr8pFAo+twLEvoEFdvNTMtKpsZfZd4oijx9oCjqzKvXwy8mzOu5vWASSm3RKB1C0zT7h9I7u/v1LtJmbmtoeMx/c/dZVzeJQa8//fzLxsZmvYM7l0NCJxMsiULg9ZvlTHbJ4wiZ7OLC4jvb4/cJXUdlJAmjzNGvb+SmZ+Y9imjb9uj4TO7Ltvc2vPZZV/evv/3Ok5Y9vX0dDzt7evt4A+8MJPTmg7WBCOSPTgYSaW5wuu5brRr9QyOH+eO6kbChhIqi+A9TzkKMTcw2FGxtfbOhqHxkSULbtp91dYvxcGNj86eff5HiZKFQfPT4iRhCKS82TVVV/fW333kbEpve8tmRAQGRwMvZ7MrqOi+Znpk/Oj61bfswfzz1MsPL3618nJ1b8CUhbSTOEKqqqiiK1JfjQ/vJ9A+OFIvn3lseHB6lRia9t+G1TgnJOnKmUCg+6+rmOCn5adu2RyT8z3//xy3bzHyWAiwkZPLIOAm8SE/t7ed5+WH+uLd/eO3j5vP+1GH+mJfv7h2MjE2HkVDTNJKQjxUiM5BIF4pn3jvmj06iS/isq9t5FtFPWushobg7RUUOjOIq5EGACQwMpS8vS/zWtu3VtU9/9Ax9WNsQF15cXA4mRyNJGCUSTs/M+2mOendtxfo4IyE1NV0lpFVij9GnhNTKhYQieeSdBCam5vYPvouEPX1/R8Le/uGj4xPefm8/Pzk910BCnp+wLIuao/TBJYqEUfqEua/bqZFJD42tWm1oeGx374BL7J1xSkjhjiWkoRru2knDNh4Sip1J2h0Sel8LrH27vCoGvbGJWe4Tjk3MMp+VD5+W332IJGGU0VHTNAcSabGgXDLKLC2vpkYm/XvulJD6b5n5LHX5Oh52Ut62bf+RUDIZkVC6THjrSuDi4jIxPO49OmqY5mBytFQqN5BQ/IZgHpjhPmGUeULbtvNHJ3/2DC2/X7O+/15gwzQX3rz7o2foc27LtYauCyUJqfNGg5zckeOBGaeEmfmsOJTKp+jp7ZOW04kwMMOIkHEl8O79WnbhresqWpjJLr1f+eh3npBMdUoY8YkZ27b39vN/9iYSw2NLy6s7u38/tra49H4gkU6mxtc3cr39KbEB7VEfDlCkGU8qcOgTh0O5eSn2CZ0R7xupm+FQ27b5sGiOel8LrCW1kqnx7MJbeixGZGKaVnbhbTI1Tm3JMJFQ13XqEyqKIh46XF7X9S9fd15l3vQPpQeG0jOvXn/5ukOFyx+d9PYPnxYaDKLSeaUnZrgrSGvZn46HnY8eP9nY/Pzo8RNRQtu2qflKIU6cJxQ7k5n5LCJhuAsdw70Mw3yVWUikxjdzW8Wzc9Oyimfnm7mtxPXjbIbx7cvpfUnIX68mPjGjKEqlUvHfZwt3DU5OC7f5BKn/QqI56p9VzLfc2t6dm198MTr91/PkyOh0Jru4tb0rMgkvoaqqlUoleotULE0L5SFhC12se17UuhLatk1PrvEsBfcJxVmKprRI7zkj1+JBQlcsWBiCQAAJeaqQvtuCuoWxDYaQMMTdhl1cCTSW0HWWgoNhpVIpl8sec+6uZ8VCEAABJuBXQtexmZgHQ4aIDAhEIRBYQmfPkIJhlKdnolQA+4JAqxPwkpDHZrxbpDRXUalU0Cht9bsB5b8TAgEk5BapMxiyh3dSB5wUBFqaQAMJORjyRIU0RsrPkVKjVNfv+1cVtvTVQuHbkoBfCT1+mVDyMOIn7tuSMioFAh4EwkjIwVB8io1HSsvX6Uc/zuZRJawCgdYi0FhCbpGKwZA95B8JleJhqVTSdR1DNa11N6C0d0IgmISih9J3AfP0PQ3SlMvlUqlULpeh4p1cV5y0hQj4ktAjGIojpZKHNFRDKmqaFvETwC3EFEUFgUAE/EoYwkMOiRQVS9dJURRd1w3DsCwL/cZAlwobtx8BmvYLI6HYKKXOIcdD/t1C7iLyFKKo4qWQLpBAIJYEWIIAEorBsKGH3DTlz+BXrhONnYpCUoTkAiEDAm1PgO55fg0moR8Pad5CComsIgdGyUmWkzJcPmRAoA0ISLc3vyULAkvo4aHYNOUpRAqJ2nVSb5IiJCoHXkEgbgRYgjASunrIXUyeujCuE08kijZSj/FGyW9/uUzIgEAbE5Bue1VVQ0ro7aEUErmBSm1U/SZReKz36iwrloBAKxKod4fTcl3Xw0tYz0MOiawijZ2KgVEMjzdK4i8IxJFAtVqNJKHkIQ+Zih+5EFUUbSQnxSBJZuIVBGJCgBWIKqF9nfgXRcUvaJNUlGykrqOrllw4ZECgjQmwAs2R0BkSpagotlHFU3I5kAGBGBIQXaD8AwprUV6lkOhUkcJjPSedZcISEIgVgSZI6No6ZTPZQGRAAASYgPi/TNMk9FaRnfSIk1w+ZECgjQmQCz9QQm7WitYhDwIgIBG4DQnZRv8RUiol3oJAGxP4TsI4zpUGqfPp6enZ2dnl5WW5XFYURdO0IHtjWxBwJwAJ3bm4LoWErliwMCKB7ySMyZMKoatZKBTOz89LpVKlUlFVVdf10IfCjiDABL6TsI2fTmhK1YrF4sXFBbdFq9VqUw6Lg8ScgCjh/wGVW4KdgDKeYAAAAABJRU5ErkJggg==;imageBorder=default;" vertex="1" parent="1">
          <mxGeometry x="200" y="60" width="300" height="81" as="geometry" />
        </mxCell>
        <mxCell id="HvZsyY8eHSO-N_c-Oe7b-2" value="&lt;b&gt;&lt;font style=&quot;font-size: 16px;&quot;&gt;Enter the keyword “Data”&lt;/font&gt;&lt;/b&gt;" style="text;html=1;align=center;verticalAlign=middle;resizable=0;points=[];autosize=1;strokeColor=none;fillColor=none;" vertex="1" parent="1">
          <mxGeometry x="230" y="150" width="220" height="30" as="geometry" />
        </mxCell>
        <mxCell id="HvZsyY8eHSO-N_c-Oe7b-3" value="" style="shape=flexArrow;endArrow=classic;html=1;rounded=0;exitX=0.455;exitY=1.053;exitDx=0;exitDy=0;exitPerimeter=0;" edge="1" parent="1" source="HvZsyY8eHSO-N_c-Oe7b-2">
          <mxGeometry width="50" height="50" relative="1" as="geometry">
            <mxPoint x="270" y="300" as="sourcePoint" />
            <mxPoint x="330" y="350" as="targetPoint" />
          </mxGeometry>
        </mxCell>
        <mxCell id="HvZsyY8eHSO-N_c-Oe7b-4" value="&lt;font style=&quot;font-size: 16px;&quot;&gt;Press &lt;strong data-end=&quot;13&quot; data-start=&quot;6&quot;&gt;Tab&lt;/strong&gt; to search&lt;/font&gt;" style="text;html=1;align=center;verticalAlign=middle;resizable=0;points=[];autosize=1;strokeColor=none;fillColor=none;" vertex="1" parent="1">
          <mxGeometry x="350" y="260" width="170" height="30" as="geometry" />
        </mxCell>
        <mxCell id="HvZsyY8eHSO-N_c-Oe7b-5" value="" style="shape=image;verticalLabelPosition=bottom;labelBackgroundColor=default;verticalAlign=top;aspect=fixed;imageAspect=0;image=data:image/png,iVBORw0KGgoAAAANSUhEUgAAB1UAAAIrCAIAAAA4G1cWAAAgAElEQVR4AezdiX8T1f7/8d+f1JC2rAVlXwUKtKACtWBVUBYREfwiLngRqHjR6wYI6AVEcAFEEK4WvFCVTQVZCt0LbaGl0CbN0mzzu8lpT08mS6dt2ibpq4/78E6TmTNnnmeYJO+efOb/afwggAACCCCAAAIIIIAAAggggAACCCCAAAIIJKPA/0vGg+KYEEAAAQQQQAABBBBAAAEEEEAAAQQQQAABBDTyX04CBBBAAAEEEEAAAQQQQAABBBBAAAEEEEAgOQXIf5NzXDkqBBBAAAEEEEAAAQQQQAABBBBAAAEEEECA/JdzAAEEEEAAAQQQQAABBBBAAAEEEEAAAQQQSE4B8t/kHFeOCgEEEEAAAQQQQAABBBBAAAEEEEAAAQQQIP/lHEAAAQQQQAABBBBAAAEEEEAAAQQQQAABBJJTgPw3OceVo0IAAQQQQAABBBBAAAEEEEAAAQQQQAABBMh/OQcQQAABBBBAAAEEEEAAAQQQQAABBBBAAIHkFCD/Tc5x5agQQAABBBBAAAEEEEAAAQQQQAABBBBAAAHyX84BBBBAAAEEEEAAAQQQQAABBBBAAAEEEEAgOQXIf5NzXDkqBBBAAAEEEEAAAQQQQAABBBBAAAEEEECA/JdzAAEEEEAAAQQQQAABBBBAAAEEEEAAAQQQSE4B8t/kHFeOCgEEEEAAAQQQQAABBBBAAAEEEEAAAQQQIP/lHEAAAQQQQAABBBBAAAEEEEAAAQQQQAABBJJTgPw3OceVo0IAAQQQQAABBBBAAAEEEEAAAQQQQAABBMh/OQcQQAABBBBAAAEEEEAAAQQQQAABBBBAAIHkFCD/Tc5x5agQQAABBBBAAAEEEEAAAQQQQAABBBBAAAHyX84BBBBAAAEEEEAAAQQQQAABBBBAAAEEEEAgOQXIf5NzXDkqBBBAAAEEEEAAAQQQQAABBBBAAAEEEECA/JdzAAEEEEAAAQQQQAABBBBAAAEEEEAAAQQQSE4B8t/kHFeOCgEEEEAAAQQQQAABBBBAAAEEEEAAAQQQIP/lHEAAAQQQQAABBBBAAAEEEEAAAQQQQAABBJJTgPw3OceVo0IAAQQQQAABBBBAAAEEEEAAAQQQQAABBMh/OQcQQAABBBBAAAEEEEAAAQQQQAABBBBAAIHkFCD/Tc5x5agQQAABBBBAAAEEEEAAAQQQQAABBBBAAAHyX84BBBBAAAEEEEAAAQQQQAABBBBAAAEEEEAgOQXIf5NzXDkqBBBAAAEEEEAAAQQQQAABBBBAAAEEEECA/JdzAAEEEEAAAQQQQAABBBBAAAEEEEAAAQQQSE4B8t/kHFeOCgEEEEAAAQQQQAABBBBAAAEEEEAAAQQQIP/lHEAAAQQQQAABBBBAAAEEEEAAAQQQQAABBJJTgPw3OceVo0IAAQQQQAABBBBAAAEEEEAAAQQQQAABBMh/OQcQQAABBBBAAAEEEEAAAQQQQAABBBBAAIHkFCD/Tc5x5agQQAABBBBAAAEEEEAAAQQQQAABBBBAAAHyX84BBBBAAAEEEEAAAQQQQAABBBBAAAEEEEAgOQXIf5NzXDkqBBBAAAEEEEAAAQQQQAABBBBAAAEEEECA/JdzAAEEEEAAAQQQQAABBBBAAAEEEEAAAQQQSE4B8t/kHFeOCgEEEEAAAQQQQAABBBBAAAEEEEAAAQQQIP/lHEAAAQQQQAABBBBAAAEEEEAAAQQQQAABBJJTgPw3OceVo0IAAQQQQAABBBBAAAEEEEAAAQQQQAABBMh/OQcQQAABBBBAAAEEEEAAAQQQQAABBBBAAIHkFCD/Tc5x5agQQAABBBBAAAEEEEAAAQQQQAABBBBAAAHyX84BBBBAAAEEEEAAAQQQQAABBBBAAAEEEEAgOQXIf5NzXDkqBBBAAAEEEEAAAQQQQAABBBBAAAEEEECA/JdzAAEEEEAAAQQQQAABBBBAAAEEEEAAAQQQSE4B8t/kHFeOCgEEEEAAAQQQQAABBBBAAAEEEEAAAQQQIP/lHEAAAQQQQAABBBBAAAEEEEAAAQQQQAABBJJTgPw3OceVo0IAAQQQQAABBBBAAAEEEEAAAQQQQAABBMh/OQcQQAABBBBAAAEEEEAAAQQQQAABBBBAAIHkFCD/Tc5x5agQQAABBBBAAAEEEEAAAQQQQAABBBBAAAHyX84BBBBAAAEEEEAAAQQQQAABBBBAAAEEEEAgOQXIf5NzXDkqBBBAAAEEEEAAAQQQQAABBBBAAAEEEECA/JdzAAEEEEAAAQQQQAABBBBAAAEEEEAAAQQQSE4B8t/kHFeOCgEEEEAAAQQQQAABBBBAAAEEEEAAAQQQIP/lHEAAAQQQQAABBBBAAAEEEEAAAQQQQAABBJJTgPw3OceVo0IAAQQQQAABBOJGoHCVyZwi/pe9tzpuuhWPHSlc3QolxcTCqsJ47C19QgABBBBAAAEEEEgEAfLfRBgl+ogAAggggAACCCSwAPmv4cHrcv7rtFQXndqz+cW5GfP3ELEb9mZFBBBAAAEEEECgPwiQ//aHUeYYEUAAAQQQQCCuBJxlhXvXLsyckDG4bbLniFHT81Zt/fpCmTOuOhqjzvR8/lu9N0s3YTbwa3rG5GkL1+0pLE8Y1q7mv2dXtc2wNs0h/43ReUszCCCAAAIIIIBAkgiQ/ybJQHIYCCCAAAIIIJAYAvU/rhoto7rQhaQM7/os/22L180p09++YEmME6S9l2qo3VH9B/LfdjeWEEAAAQQQQAABBIIFyH+DPfgNAQQQQAABBBDoOQFLYdTw15ySnJM34yD/NZlTFh6p77mR7YmWyX97QpU2EUAAAQQQQACB/idA/tv/xpwjRgABBBBAAIE+EijaOlnOSB216P2zZZa2ugROS335hYPvL8vOS8Yv7/du/iunyjrriw6vm9ZeFyLR5laT//bRv1N2iwACCCCAAAIIJJkA+W+SDSiHgwACCCCAAAJxK1C9J7ut4EPG2xc6101ndeHeVfPGDmtNM/31gjcdLgpf0sBZX1Swd9Py+RNGj5Bxs6iEe+BCfVvirOy+vebs6rOBhy2X9y6bLrYdMW1hfkF1mI3E9s6ywj2v5U1r31Frx4J3o+S/y390as7qgvwF00ekt5bonb8+yg6UbkZbjByVqpm7TIaDmrIUHd6cN62tFnN6xuS5q/aejXzImrP87J51C6bLsTD7N1n+/oEL+irD1XvmSH/drpVyDa3mQV0Sv0Q+KPG80kjbedUediuPZO8Nc0M4w0cRpmM8hAACCCCAAAIIIJBQAuS/CTVcdBYBBBBAAAEEEligq/mv5crWefJOcUquZzKnjF53NiQDjh4LjlpVqN8iOP8t2zNfJLMyu/RXpSgLda8/vmqssk5Qx7KCpjEr+e+qI2dfC7PVqPWFETPm0D2HPhIlKm0/OrMuhNU0rf7H1aPCZqamwXP3lIfux1KwLsL6/sPXtR+3+W+njiIUgUcQQAABBBBAAAEEEkuA/DexxoveIoAAAggggEDiCtQfXtgekqZPf7ugzEjmWd4+azhsUpm9S5fNRs9/U0zmBYeDC+G2J6Srz6pBqrq7eV8Hb9NBryLmv2qbQcuTtxZ1Y2TVbgensBfWy0nQ+l1YCiOFv2KYRqwqCI7K1b0Edb51WIP3rMVp/tvJo+jGqLApAggggAACCCCAQFwIkP/GxTDQCQQQQAABBBDoDwLOghd1E2aHTc/bdPBilBxYzRCnvXZKVAx21hcdWN4+i3buwaBs9uz6zAWv7T1+oby+vbxw/YU9z7dPXNXdCa09/31x2XJ/lDnqtVP+Ag6WU8rd6oKK56q9ShmYub6gvHVXTkt92cUDm/OWHVRLDijzfwOx6ahFXxf5o29LgTKDeNrOMPNtjZ4VaqbZlsI6LeUF6zPb5zLryiA4C1dltMXxo5/f01oZw1lWmJ8ls93gMh2X26PkscsOtx2ypjkt1UWFX29dPmd9YVB/VaW2TrWuoGT0Xa//oO5MaTBopNR1xHJnjyK0BR5BAAEEEEAAAQQQSCwB8t/EGi96iwACCCCAAAIJLWA5qySeShY8eMLC/HDlfC+ulxmlLrTVlKd0yWZ4IefxQLbr32nG25fVddrz30AequwoQoKp5rlhS0OorWuapq5vHrX8x/a4Olxuq9vY0K9qOzK9VRdGrz7evld/k/UH57f5j10fxKE+FVTSQclY9VOJw3Yygp5/XaWp3s5/lV0bOoqwh8aDCCCAAAIIIIAAAgkkQP6bQINFVxFAAAEEEEAgCQQsl/e8OGFg28xTNaM0mUetUrJRTdMuv912wzfzsh/1xSKUIC9yhqiARVw/KP8Nnj2qPNU+g7VwXVtyap5gqGqDkv9mrA6uqaA81b4DpdMGFyPnv+nZL24Nk6wrtTgmvq+vPKG0phayUG8ll2Iau2Dz1xeizNzWerz+g2qjDG7wCKorBZY7exQhDfAAAggggAACCCCAQIIJkP8m2IDRXQQQQAABBBBICgFLUcHeVdmyNG17HKzen63+cJ5MWqMuhER+zvqiw+8vmzd5QkbYG8cF58VKyDts/cUOeZVprSN0M2cjbKuEvPqpyspTPZP/poS/k9uV9onVwRG83lntlaVQKYjRNmQDR8xd/v7hIn/BDN2PAhU0j7hv5/9qnTwK3UHxKwIIIIAAAggggEDCCZD/JtyQ0WEEEEAAAQQQSCIBZ/nZPaunBU0HHrH+QusBqgGiPpcMSi2D8l9LYX5wg21JZfsmEfNfNe2MpKz0Kmi/kdYPqv/QC/mv/xiclqKvF42WBz7nM9098oJLUkSz1YnUn1o/PWykbk4Z/fzh4L0oUPGU//qLX3TiKCIPK88ggAACCCCAAAIIJIYA+W9ijBO9RAABBBBAAIFkFgi605pZ1hxQA8RoGaVpdYHUufx2+33e2gNfmYSKhVjlv3E5/1cmtirF8lPB83OVeccRlfxWYe9K5yy7eGDri3ND51aPXndW2Y06fLJTYqCUcg3BYyHHUdM0pQxFim57dbXAstKgwVBeM3gUIbviAQQQQAABBBBAAIEEEyD/TbABo7sIIIAAAgggkJQCZTszZcIr81+tYLV8sKMAUKg4C+RN3kzmaa+dKrO055FKRBicOSr1H4zsxfnji7JXna7/20vzf4VG/YF5MvjW3eus/LPpbU/pu9SJ88tpKS/YPF8N3NUyzZHz3+o92W17NwWPhbrzHs5/5a6iH4VcjQUEEEAAAQQQQACBBBUg/03QgaPbCCCAAAIIIJBUAhfWt9cCXnC4vvXY6o8saJudOmzVKUvHR6wEi/rbmqlhaHDm2Mn8N2heqmnOnuCiB+H6qEy21YetylNGsudwrfsfixCVOgvao2pdaePL7eCh1SEi7Sb84+rYtWf3uvu/tc/QdpbtnCMD9JRY5b+vyUBZl3SH73Poo5GOInRNHkEAAQQQQAABBBBILAHy38QaL3qLAAIIIIAAAokrULg+Y/6yzXuPFxZV17fPy/Xfqm19ZnpbzptiypPxr6ZZjivzeUctev9s+4Rep6W+/MKPe9cunLy+UJoo+a9p8vpCcVMyZ1nh+0oxXLM+c+xs/hvcq5SBmevl7c+clvqyiwc25y07WC371Bf1f+XOLyr3eZt/oC1X9z9d9P4EaR44hOq2MXFa6quLCg9sfTFr4V71MM6uz1zw2t7jF8rr24fPaSk7sqy90LBZnf+rFa5rz3mzd5U5Nc1Zf3Z9+0TvwLPBWbzseORQW11FLqtzjVOy378Q5nZ0ret2+ijkPlhAAAEEEEAAAQQQSEwB8t/EHDd6jQACCCCAAAKJJ6DMdZXJY8hC1p7yoCNTZ7aGrCziRXXibNHWye2ZY4T1u53/Bs+3DbcXdRpsn+a/mgoSXK3Cefa1sR1YBc9WVgpoyMm2wQuj376sDp7z1LJwOME7VfNfNb4PblltJ7hXrTtU42x1ZZM5JXj9Th+FekQsI4AAAggggAACCCSgAPlvAg4aXUYAAQQQQACBhBToMP8du+hgeXu93rZjdJZ9HTx7V58Mqvmv5ixcr0xHVaLGsYvWr57WmgyqmaOmdXr+b6BnZUei9Cp+8l+t/uu57XnoiwVBvpaQ2bjBtp1KTkevPq7OLw4g1R9+XpnZ3db46NXHL+zKCjMW3ch/Na1sj1pWom1fnc1/wx1F25nI/yOAAAIIIIAAAggkpAD5b0IOG51GAAEEEEAAgUQUcNYXFezJXzZv8oSMwe3JbMbYCfNe3Hrwor8+QMQfS9Hh95fNmzxsYFuulzF2wvS8VVu/vtBeEaJtY2d1wea8aRmtaw4bPX/Z1iNFFnXSbizyX//eLEUFe9cuzBzVtq8UcSyyHERrj5TgOzhRDZoaHBRjtx2Lwf9XZ0nr2wm6J15wMO1v3VlduOe1vGmjZf3lwcMmTp67PH9PQZG+iIJ//PZuWj5/QvvK5vSMydMWrttTGCa4F323XN67bPoIkQIPGz1/1Z7CameksehW/usfj8tfBw2HiJh15l06CoPjwGoIIIAAAggggAACcShA/huHg0KXEEAAAQQQQAABBBBAAAEEEEAAAQQQQACBGAiQ/8YAkSYQQAABBBBAAAEEEEAAAQQQQAABBBBAAIE4FCD/jcNBoUsIIIAAAggggAACCCCAAAIIIIAAAggggEAMBMh/Y4BIEwgggAACCCCAAAIIIIAAAggggAACCCCAQBwKkP/G4aDQJQQQQAABBBBAAAEEEEAAAQQQQAABBBBAIAYC5L8xQKQJBBBAAAEEEEAAAQQQQAABBBBAAAEEEEAgDgXIf+NwUOgSAggggAACCCCAAAIIIIAAAggggAACCCAQAwHy3xgg0gQCCCCAAAIIIIAAAggggAACCCCAAAIIIBCHAuS/cTgodAkBBBBAAAEEEEAAAQQQQAABBBBAAAEEEIiBAPlvDBBpAgEEEEAAAQQQQAABBBBAAAEEEEAAAQQQiEMB8t84HBS6hAACCCCAAAIIIIAAAggggAACCCCAAAIIxECA/DcGiDSBAAIIIIAAAggggAACCCCAAAIIIIAAAgjEoQD5bxwOCl1CAAEEEEAAAQQQQAABBBBAAAEEEEAAAQRiIED+GwNEmkAAAQQQQAABBBBAAAEEEEAAAQQQQAABBOJQgPw3DgeFLiGAAAIIIIAAAggggAACCCCAAAIIIIBAIgn4DPz0yfGQ//YJOztFAAEEEEAAAQQQQAABBBBAAAEEEEAAgcQWMBD5Rlyl146c/LfXqNkRAggggAACCCCAAAIIIIAAAggggAACCCS8QKRM1xv1J9JWPc1B/tvTwrSPAAIIIIAAAggggAACCCCAAAIIIIAAAgkvEDbAjRr5RnwybFM9BET+20OwNIsAAggggAACCCCAAAIIIIAAAggggAACySAQGtfqkl2P4R/dhqEtx9yL/DfmpDSIAAIIIIAAAggggAACCCCAAAIIIIAAAkkioEa0anqrRr5uwz/qVmpr6l5iC0f+G1tPWkMAAQQQQAABBBBAAAEEEEAAAQQQQACBZBBQM1mfzyfjWpnhytTXZfhHbiIbkc3qdhcrQfLfWEnSDgIIIIAAAggggAACCCCAAAIIIIAAAggkiYCaxsqIVoS2MsOVqW+L8uMM+VGebJGbyEZEm3IX6n5jQkn+GxNGGkEAAQQQQAABBBBAAAEEEEAAAQQQQACBJBGQIayMZcMmvyLYFXnvT7cebjlz95UT1U8fqpq+rzxjR0nGjpLp+8qfPlT1yonqLWfu/lT8UKwpthJBcIcpcPdByX+7b0gLCCCAAAIIIIAAAggggAACCCCAAAIIIJAMAjL5DS34ILJal8slY98HVsfRGw9WHr+TsaMk9ZPiDv83/LOSl3+888ONBw+sDqfTKYNg0XIPTQQm/02G85JjQAABBBBAAAEEEEAAAQQQQAABBBBAAIFuCoSGv+q0XzFjt6Wlxel0PrA6/vXbPYOxb2guPPyzkg9/u9dgtYsUWJ0LrKbAan+6fGjkv12mY0MEEEAAAQQQQAABBBBAAAEEEEAAAQQQSB4BmbeKsg8y/FWTX6vdsftS3ahdpaGpbmcfGbWr9ItLdVZ761xgmQKHjYC7rEz+22U6NkQAAQQQQAABBBBAAAEEEEAAAQQQQACBJBEwEv5er7XM2l/R2Zw3+vpZX1UU37PqJgLHMAIm/02SE5TDQAABBBBAAAEEEEAAAQQQQAABBBBAAIGuCUQJf0XBB6fTefhaw5Dthur8Rg98Q58d/lnJt1cb5N3hXC6X2+2OVQRM/tu1U4KtEEAAAQQQQAABBBBAAAEEEEAAAQQQQCAZBDoMfx9Y7WtOVofmtrF9ZO1P1Y3N7RWBYxUBk/8mwznKMSCAAAIIIIAAAggggAACCCCAAAIIIIBAFwQ6DH+v11oe21se26g3UmtZX1Vcq7HIWhAxiYDJf7twVrAJAggggAACCCCAAAIIIIAAAggggAACCCSDgMh/Q2/4Jso+2B2ORUduR4pre+Lx57+/bXe03xFOjYBlVN0pd/LfTnGxMgIIIIAAAggggAACCCCAAAIIIIAAAggkiYBMVGX+63a7XS6XCH8dDseWs3d7IuSN3uaWs3cdIRGw6KHssPEBIP81bsWaCCCAAAIIIIBAvxOoObg6Jzcv/1y/O/COD/jcVmQ6VmINBBBAAAEEEEAgvgV0k3/dgR+R/zocjmM3GqIHtT337NHrDQ6Ho6WlRdwLTswCViNg467kv8atWBMBBBBAAAEEEIi1gKv2zI43VyxelJObl5O7aMm6XQUljbHeR7fa637+G9pC/ck3c3Lzntty3tatrvX1xjHOf8/n+88B+b9Fz63J33221tX5oyz54c0Viz/8vfMbsgUCCCCAAAIIINDfBORcWq/X6wn8qJN/qx80j9hZ2nMJb/SWR+wsvd9kC1sIWHbb4HiR/xqEYjUEEEAAAQQQQCDWArbz+Ytl3icXtsZVchea3nZWQd9C5Tev5OblrPmmsrMNxdv6PZv/tp4Pz63/qbNQv2/Jy8mNr7Mo3oaO/iCAAAIIIIAAAkIgdPKvWvlh43/7oPKDGgp3WAXC4DiS/xqEYjUEEEAAAQQQQCDGAlc+9k/7XfJBYaVNzPJ02SrP716/61KM99Ot5vTpbecbC26h6sCavJzFW39P7Km/AYWeyH9XflMjhF2NlWc/XJHnT4FXHKztlDr5b6e4WBkBBBBAAAEE+q2AnEUbOvnX4XDcabAO2V6iprG9vzxke8ntBqtaBUJMUvZ6vbLzRoaP/NeIEusggAACCCCAAAKxFwjkdKv3djC9s/HKwfwlgRwwJ++ltTsKa4IrArhqzh/Ysva51hWWrli360y92lV/VQF/gOgqPbFl7UJRZWLj8ZLgRrTGv4+2N/LShoNFMp4NpLeLPrriKjm59ZXAXhYuyz9wQz6v7iv8spr/lnz+Uk7u0o+uhK4Z+TDrj6/NzctZ91NwXQzbmY15OblvHq3XAjF6fkFoj2ynN+TmLfz479adBUpttEl2Darxyg9bX2kt1pG3MM8f34dURrZd+mBpTu7SredCOxR61OojgfoPMv8Vz5TsWZKbl5O3TYJFG+5AHq1UkJAzyoMS5GgtqN1hGQEEEEAAAQQQSHaB6JN/3/y5uvcD39A9vvNLbfQbwRkZJfJfI0qsgwACCCCAAAIIxF7gxo6l/jK4G0/rIl1lT7bft/jXCfpfUOWE2gMrg5/NzctZ3B4Xapo/VVzywR5doYn2VFTTtMpvRLCr7GX1gdZpqFogvX3plTW6buSfMRxvyvzXdunD53LzXjlYpRygWIx+mI0n1rVGve0b2go35OblbCy0aVqjv5pwe4fb16n5ZoV/d2LybGDesU4yd+2B9vC9Q6j6Mxt1CH75kPw3EOP6C1wcD8rh27sVaSlc/qvVH/Ufuzy6qMNtKP+N2kKkrvE4AggggAACCCCQdAJy/qxu8q/T6XQ4HKV11vRPi0PTWCOPjNpV+vLJ2s/+eHDsluX327Zjtyyf/fFg5Ymakbu6Ukp4yPaSkjr/FGCn0yluBNeFKcDkv0l3/nJACCCAAAIIIJAoAra/P1oWSG/zVucfPF+pm5OrabZzWxcGAuLWAhGuqjMfvJSTm7fhrAxfa49u2XrgXFVbAYmqgkBGubW9hERbHLl4w4Er9f49NBbm+6fxfti2SmsgKMtQuGxVv3++60RQ/uvv5HNbTvt76Kov2BKY93rWqHJr/nvKX+w47D3fOjxM29n8nNy8tT+0B6q2U/k5uYta5xFf+rA9h72ybWHuS7tLAn0LPC4oAvOO855b/40w0NokRYIcWLsDKNGHhWv2tLaguRr9fQjNf1vn/+afbe+tMamw+a926QM1Ze5wuP27ilr/wVALxjrMWggggAACCCCAQAILRJ/8++Vf9UaiXt06U/dVnCix+iKoeH3aD7csU/aW67bq8Ncv/6rv5hRg8t8IY8LDCCCAAAIIIIBAbwgESgqI6g25i5Zs/OaKUubAH+Qp3/0PdKcwPzcv54M/I3ZNX5Q2kCoG19sNygcDFQYWbvFPpA37I9LboNw2sAvjRWlbW1i8NCf3zRPK0cndGTjMvz/Ky8tpr41gK9iYl7Nsj4h5tcA837Un/U1X7lvtL6n8eam/8bNb22bOlu5eFioZeLD9PmnRocQc5OBZz3pqeUBdWwif/8rZ0+EbDdeHoPENv5nyaLgWlKdZRAABBBBAAAEEklMgUv7rcDjsdvuiI7c7jGV1Kyw/XuPy+rPfOpvnyysPlxyrnrq3fMj2kqn7KpYdq/7q78b7No+maXa375kjd3TbRv910ZHbdrtdVwXYG/gRR9HhCJH/dkjECggggAACCCCAQE8LuOpvnN66xj+vNidPFiUI91V9UcFAKYbrqincvm51a/3ftvoGSlGCQKq45XykAwhMpA2dxNq+epj8sUv5b/4pfzXenKDiFWIvhg4zMIG3rQxC409rg6YD+49xxb4qTfOntBs2bovaCCEAACAASURBVBBJcaDnW3/37yQ8QqBwcFubEdZpgwiExe0BdODhGCen4fPfQJibJyd0dzTc/o5Fz3+NtNB21Pw/AggggAACCCCQtAIy/xXlFNxud0tLiyj+UN/UPGhb54o/rDpZ6/FplhbvW6fvDYyw7eBtJRvP1NndPpfX98IPnSguPGhbsaXZn/9GKgHR4SCR/3ZIxAoIIIAAAggggEDvCLhK9q31R8CBsraaZiAYrfzmlbbMV6neq+a54aNPeTyB4rnq+vKZ1oWY5b/n/OUsnvPXkTgfPNfYwGFqmhaYpywm9tb/8GZOrjoVN9DClvOa/4Zv+QUl36yQ94VbuT9Q4Dc8QiD/XdtW6Tj8Om0cf27NVScgBx7ujfxXTFJumzfd8XD7OxYt/zXWQttR8/8IIIAAAggggEByCojw1+fzieK/brfb5XKJ/Ndut39/rSH6hFzds08fvu32aiUPWsZ9UaZ7KvTXKXvL7zS5HG7f4wcrQ5+N9EhB8QO73e50OltaWmQVYK/XKw8k+jiR/0b34VkEEEAAAQQQQKAXBVyB25q1zjMNrnIQrheBBDPvlc//DlT2DayhDyWjx5qaFiiS21owIdwuYpj/+lPcz/31i4NvAdfxYQb6FbgTmr/mg38h6P51mnZmi39mcc25rTn+mdH+OHjtyUZ/DLrxdCBrDpSP0FfS0BWFiA4ViJiDWmi9Z50y1TocXyceC3QgeIqx7ay/AHTOutZbyRkYbv/+AvlvW2Qc3AGDLQRvxG8IIIAAAggggECyCcjJv7r8VxR/+NevdyPlsKGPD91RUmfz2Fy+qfsqQp8N+8icg5Vur1bR6DJ+i7l//Xq3OyUgyH+T7QzmeBBAAAEEEEAgQQT+/GjNh0evVDW23fbN1dh6e7ectnINgYmueUs+OH2jPd8NOrhA0rco/1TgaZet8tw3+SsDN2c7J1eLHmtqmi2QOOcuffNgW4jsCnP/t6CUs2v1H1q7VHVgTV5O7uq9gXm5opcdHqZYLXAHtkUf/bB/hbzDW9tR+mPlvG27P14kqhL7f1237aOV7TGxyD2f23ha3kmvYMtS/03tPv67rY0OoFqT032lgXvg/X1gvX/zKPd/23oueJZz224i/39Q/hu4C9+G5/y7WLr1UmtTBobb37wI2VfsaBtQZZcGW1C2YBEBBBBAAAEEEEhCgbD5ryj+YLfbXz3Zifq8H59v0DRtzU+1YaPeSA/mF/rvFbz+l3uRVtA9/urJOyL/VUtAGC8BTP6bhCcxh4QAAggggAACiSAQyPtCqzcszj/jfzcofkRa6s8Z1f/JNLbx5Ab1cbksV4hU+ratff//i7IMctvAgqyKq8V2/m9gf4X5eXk5Qbek6+Aw23rbJhY8SVbTNFHFIkfmwle2+afN+ica17ZuazufvzjI0H+Yiz/8vT2k7SD/1Wp0pTaWvrlj64rc0NIZbZ1c0zppt63zHf5/24ZBY71InSttYLgDe7myLRActx+vvFmf0RY67CwrIIAAAggggAACiSwg89/Q4r82m23hd1W6+DXKr/dtnj9rHVFWiPRUZaPrRr0z0rO6xxd+V2Wz2UQJ4JaWFrfbLXouS0BEHw3y3+g+PIsAAggggAACCPSUgKvy/IEta5csDtz2LTdv4eLVa3ecLmkM3p2r9syON1e0rSNSWiXetd04mL8kL5D05S195YPTJVf2B4eSHcWagb01Xjmev2apyEwXLl6b/0ORzEVjn//KxFm9F1wHh9lqIibhrv2hPSBveyIQ+LbXZwgUfNCFs41/H92ytvVGeXkvrd1RWNM28zrQSMdQtit71i7zD9bCZW9uP1uv1XwTTC36Yrv0wdKc3KX5Z0M62drXSP8XlP8uXPzSK1u++T24i5rW4XC3Nl5/dpfoqjhhZP5rvIVIveRxBBBAAAEEEEAgCQTU/Fct/utwOGw2W+a+cl38GunX3O9ua5q2+WxdpBWiPP75Xw80TZv0b0P7ytxXrua/oSWAow8K+W90H55FAAEEEEAAAQQQiBOBQKXgoDu/xUnH6AYCCCCAAAIIIIBAIglEyn/tdrvNZhuxszRKbqs+9epPdzVNy/3utnhw/Bdl/ym1fnT+vvj1hR+qT5c3v/BDtfj1o/P3/1NqHd92j7jlx2s0TVt6rPVZtdnQ5RE7S202W5RbwEXXJ/+N7sOzCCCAAAIIIIAAAnEg4KoSFXtX7KuKg97QBQQQQAABBBBAAIEEFohV/vvOmTpN06Z/2Xrnt7U/++Ngt1dL+6Q49ZPin0utmqb9XGpN/aQ47ZNit9cvtvbn1pvLzdhfoWnaP4yVACb/TeCzja4jgAACCCCAAAIIdCAQuN2cqGOQo5aM6GAznkYAAQQQQAABBBBAILxA9PzXeP2HNT/57zYx/9vWesGdmv+74JC/dsTLJ2pCZ/uGPiLqPzD/N/xw8igCCCCAAAIIIIBAYguI/Ndf3VhXsTexD4veI4AAAggggAACCPSVQNj81+FwiPoPC76tDE1gwz6SfaBS07RNXar/uykwd3j2AUP7WvBtJfUf+upsYb8IIIAAAggggAACCCCAAAIIIIAAAgggkEgCYfNfp9Mp8t+Vx1vr+YbNfHUP1tk8f9U6dA8a+fV6nfNOk8vImqmfFK88fpv8N5HOMPqKAAIIIIAAAggggAACCCCAAAIIIIAAAn0lED3/3XDaUE0GEd1+fL5B07Tnjxq6jZtMe1/80X/zt3cL6+Uj0Rc2nK4h/+2rs4X9IoAAAggggAACCCCAAAIIIIAAAggggEAiCUTPf49cvR89jVWfHf5ZSbXF3ej0jv+iTH08yvL4L8ruWt13LO5B2/y3iTPyvyNX75P/JtIZRl8RQAABBBBAAAEEEEAAAQQQQAABBBBAoK8EIuW/DofDZrPde2AxnsymflL82aUHmqY9cbD1LnDR89wpe8tLH7Q4Pb4nvza0fuonxYO2Fdc9tNpsNofD4XQ6W1paXC6X2+32eDxer1ccS3TJ/xf9aZ5FAAEEEEAAAQQQQAABBBBAAAEEEEAAAQSSRkDmv16v1+PxuN3ulpYWp9Mp8t/m5ubnDhsNZ1M/Kb7d5Cp50CJi35n7K6Lkv6+fumt3++xu3ws/dKJexHOHq5qbm2X+q4a/5L9Jc05yIAgggAACCCCAAAIIIIAAAggggAACCCAQG4HQ/Nflcon81263Nzc37/3jXpQYV31q4aHbmqZ9/teDD36/f7vJpWlardX92aUHud/dnvTv8rRAeYcRO0tfPlFzsdquaVpJQ8usryrVFjpc3vvHvebmZrvdLub/kv/G5iSgFQQQQAABBBBAAAEEEEAAAQQQQAABBBBISoGw+W9LS4vD4bDb7TabraKuqcNYVqxw+EaTJCp90HLwamOD3SMfUReqGl1vnLonEmGDjYvVKuubRPFfh8OhK/7A/F9VmGUEEEAAAQQQQAABBBBAAAEEEEAAAQQQQEAT+a/P55P1H1wulygBIfLf5ubmDadrjKS0F6vtNVb3zj8ezD7QOqt34LbiNT/V7rvy8GSJ9dxt+7Fblu0XG5767raR1kLX2XC6RhR/sNvtkYr/+ny+6INK/d/oPjyLAAIIIIAAAggggAACCCCAAAIIIIAAAkklIKcAewI/brdbVwKiqr5pxM7S0EC2Nx8Z8Vnp7ftNYYs/GL/5m6Zp5L9Jde5yMAgggAACCCCAAAIIIIAAAggggAACCCAQXUDmv7opwLIEhNVq/aCwtjfT3tB9ffr7XavV2s3iD+S/0c8EnkUAAQQQQAABBBBAAAEEEEAAAQQQQACBZBOIUgLC4XDYbLbm5ua7DU1jdvfZFODRu0obGi2i+IO485uu+K88hA7Hhvm/HRKxAgIIIIAAAggggAACCCCAAAIIIIAAAggklYCcAqyWgFDvAme1Wv9TdL8Ld2wLncnb2UfSPin+T1F9pMm/nSr+wPzfpDprORgEEEAAAQQQQAABBBBAAAEEEEAAAQQQMCIg819dCQin0ymnAFut1k9+64MqEJ/8Vmu1WqNM/vV6vaL/Ro6U+b9GlFgHAQQQQAABBBBAAAEEEEAAAQQQQAABBJJHQNZPEPmvx+MRd4FTpwA3NzdbLJbFRyo7O4G3O+u/dKzKYmmt/GC32x0Oh1r5QZ386/P5jIwH+a8RJdZBAAEEEEAAAQQQQAABBBBAAAEEEEAAgaQSiD4F2G6322w2q9Vae79x+r6y7kS6xred81VF/cMmtfKD0+lU819v4Mf45F/qPyTVKcvBIIAAAggggAACCCCAAAIIIIAAAggggIBBgShTgEUVCLvd3tzc7I+AGxqfOdTjs4CfP1JZ29AoKj+Imb+68LcLk3/Jfw2eDKyGAAIIIIAAAggggAACCCCAAAIIIIAAAskmEDoFWFaBcDqdYgqwiIAfNlk2/1JtfCZvZ9fc9Et1k8Uiy/7a7XY1/HW73SL87VTlXzFa1H9ItrOW40EAAQQQQAABBBBAAAEEEEAAAQQQQAABIwLqFOCwN4JTI2CLxfLtlXuDthV3NtuNvv7Q7SWH/66zBIe/DodDzX914a/Byr9CgPzXyJnAOggggAACCCCAAAIIIIAAAggggAACCCCQhAJqBOwJ/KhTgB0Ohy4CLqp5+NbPd4ZsL4me6hp5dsj2krd+vlNU87DD8LdrlR/EaJH/JuFZyyEhgAACCCCAAAIIIIAAAggggAACCCCAgBEBNf8VU4A9Hk+kCFjUgrBYLOX3Hr5z6s7Q7V2cCzx0e/E7p+6U32tPfpubm202W5Syv7LyQ6cm/1L/18g5wDoIIIAAAggggAACCCCAAAIIIIAAAgggkLQCRiLg0InATU1NdxuaDl2599KxqowdhoLgYduLV/xQ9d2Ve3cbmiyBH7XgryPwoyv70J3KD2LAmP+btCcuB4YAAggggAACCCCAAAIIIIAAAggggAACRgQ6jICdTqcaAcuJwBaLpSnwc/x63ebT1S8fv73g24ppe8uGbS8etr142t6yBd9WvHz89ubT1cev1Yk11eRXN+035uEv83+NjD7rIIAAAggg0O8E5FsfFhBAAAEEYijQ715OOGAEEEAAAQQSSkC+6HsDP2otYJfL1dLSIiNgWRFYpMBWq1VEuiLejfRfGfuKOb8y+dXVfHC5XG63W+xd9ER2rGuczP/tmhtbIYAAAgggkDwC8s0ECwgggAACvSyQPK8lHAkCCCCAAAJJISDfCUSJgHUpsM1maw78WNt+RM6r/rftGatY0xb4sQd+HA6HM/DT0tLiCvzENvxl/m9SnJgcBAIIIIAAAp0XkG9rWEAAAQQQiBOBzl/L2QIBBBBAAAEEYi8g3xjoImBxRzg5EVikwKIihJgOLFJdkfCG/lc8K+7wJib8hk1+Yx7+kv/G/hShRQQQQAABBOJZQL6VibIg3uXwXwQQQACBnhCIcvmVT8Xz6wh9QwABBBBAoD8IyBdl+WZA1oIQKXBL4EfM2xU3bZNBsJjVK9NeGfjK2b7yJm+i1K+Y9usO/Kg1H7xer+xGN82p/9BNQDZHAAEEEEAgMQTkW4fQBfmeJsqCeCPCfxFAAAEEjAtEuajKp0KvyfKRxHh1oZcIIIAAAggkqYB8RZav2uI9gAhq1bnAoi6wLguWobC6INZRY19R6rdHw1/m/ybpGdorhyX/GbCAAAIIIGBcoFeu0GF2EraH8n2MXDAearAmAggggEB3BOSFVy6EvVCHuaDzEAIIIIAAAgj0loD66ixfssUbAF0KLIpCiEnBahysC3zFCqLIr5Hk1+fzxeRYmf8bE8bkbEQ9y1lGAAEEEOgFgZ54OQnbbfnexev1Rsov5BsaFhBAAAEEYiIQ6XqrXpPDXrR74tWBNhFAAAEEEEDAiIDupVm+asuXdfkmQaa6HS7ITWQjslnd7oz00Mg65L9GlPrROrrzjF8RQAABBPpKICavPaGdl28sQpNf+S5ELnT4xoUVEEAAAQQMCshLq1yQH/nEgnp9Dr16x+RFgUYQQAABBBBAoGsC6kuz+pKtvprLl/gOF9St1NbUvXStn5G2Iv+NJNPvHldPstBl9XRkGQEEEEAghgKhl1z1ke68Gqnt+Hw+tc/qGw757iRshCG/wcQCAggggECXBcJeYOXlV70mq9dq3WW8O68IbIsAAggggAAC3RTQvS7rPmGFTq9RX991y+rLvXqTN7mLbnY1dHPy31CTfveIPL3UBd25yK8IIIAAAr0joF6K5XIXXpnktmJBdl6+85C5g5pK6KINWayKBQQQQACBbgroLrDqtVdekOUlWl60dRfzLrwcsAkCCCCAAAIIxFBA99Ks+7QlX8GNLIRtKoZdVZsi/1U1+t1y6KkWeoLKt6EsIIAAAgj0nEDo5Tf0Em38VUq3rWhcdl4GDTJ9kKmEmm6ot6llGQEEEECg+wLqNVZeeOWlWF6c5eVaXL11l3TjrwWsiQACCCCAAAI9J6B7gZa/hn6yUx+Rq+kWeq6fomXy354Wjt/2daeaejrKN51yQb4fZQEBBBBAILYC8korFtSrcehXgYy8qIS9vMu9iM7LuEEEECKSUG9T2/2YgxYQQAABBEIFZAQs81+xIC/L4iotL9riRUF3YTfyWsA6CCCAAAIIINA7ArqX6U792js91DSN/LfXqONoR7pzUc0a5HtNj8ejCzjku1IWEEAAAQRiJaC70qoXYfXirLtuR39FUVcWjchm1fBXJr9ut9vj8YisOXrLPIsAAgggECsBca0Wb7mdTqeaAncYAceqD7SDAAIIIIAAArEVUD+LRVqO7R4Ntkb+axAqeVbTnX8yX9ClA2pGIGIO3SQFfkUAAQQQ6KaALkRWs2B5TZZXad3VO9LLkrpaaPirXs+dTqfL5fJ6vZGa4nEEEEAAgd4R8Hq9LpcrNAXWvRaoV/je6Rh7QQABBBBAAIHkECD/TY5x7MRRyDeOMlOQ7yxl9CAjCRltyK+qsYAAAgggEFsBeaWV1155NZbXZ3nFltfwsNd9+ay8F61swe12q+FvS0uL2+0O2wgPIoAAAgj0iYDb7da9IojvZ4gruXghUK/zfdJJdooAAggggAACiShA/puIo9b1Psu3jDJKEG8oZdagpgNyDoJaEVKXeoQWNeMRBBBAAIGwArrrp/xVftpvaWlxuVzivy6XS1yZZYArr9vySh76YiCfkivLi7y8vIv9ejye0M15BAEEEECgbwU8Ho+4SquvBWr+q9aF79uusncEEEAAAQQQSCAB8t8EGqzudlXmArp5YSJikNGAmBQmpxh0d69sjwACCCBgQEBcor1er5z/JS7Lagosr8zyeq42LB8MvcjLK7yMFdQNWUYAAQQQiB8BOfFCRMDGXwXi5xDoCQIIIIAAAgjEmwD5b7yNSE/1J0ouoH4pmFqQPTUAtIsAAggYFhCFINXJX/IrwFEiYHmdF+vImb/iIi9mGYv8l5q/hoeCFRFAAIHeFvD5fPJvdR1GwL3dOfaHAAIIIIAAAokpQP6bmOPW+V4byQX4OnDnXdkCAQQQ6CkBj8cjQltdLQhdBCx3H+k6r07+dTgcTqdTbsICAggggEAcCjidTnG5Vv8QqFaBkBf8OOw8XUIAAQQQQACBOBQg/43DQYl9l+R7RJEaeL1ej8cjyz6IfIHwN/butIgAAgh0TyBsBCyv5PLarmmaXBbFH0In/4o0wW63u1yu7nWKrRFAAAEEelbA5XLZ7XY1AtZVgVCv+T3bFVpHAAEEEEAAgaQQIP9NimHs6CDke0Tdl4LFjYbEzIKO2uB5BBBAAIE+ENDdES7S/K/o13nxVWKHw2G32/lrXx+MIrtEAAEEOiPg8Xhk/ituyCy+CBLpJaAzbbMuAggggAACCPRHAfLf5B/1KKGAzH+pBZn85wFHiAACiSng8/lkFYhIn//V+b/y73zqlzzk5F+bzebz+RJTgl4jgAAC/UXA5/PZbDYZAeuqAIvrvHyH319QOE4EEEAAAQQQ6IYA+W838BJkU/nuMFIo0NLSkiCHQjcRQACB/igg7gUvP/+Hzv/yer3iUi+v86LIj1r5126322y25ubm/ijIMSOAAAKJJtDc3CwiYDn/N9KfAPmrXqKNLf1FAAEEEECgDwTIf/sAvZd3GTb/lTN/nU4n3wXu5RFhdwgggECnBNxud+jnf3X+V5T8V2THovID+W+n2FkZAQQQ6EMBmf/qqgCH/gmQ/LcPh4ldI4AAAgggkCgC5L+JMlJd72ekSWEyFKD4Q9dx2RIBBBDoeQGPxxP9839o/hu2+ENzc7PVau35/rIHBBBAAIHuClit1ubmZkpAdNeR7RFAAAEEEEAgIED+m+QnQqTJv2L+r9PptNvtSU7A4SGAAAIJLuDz+ex2e5QpwHIusNfrFVPD3G63vM6rk3/JfxP8XKD7CCDQXwRE/hu2CrDH45GXffFWv7+gcJwIIIAAAggg0FUB8t+uyiXIdpHyXzn5l/w3QUaSbiKAQL8WCJ0CJj//ixRA/jdK/mu1Wi0WS7925OARQACBBBGwWCxWqzVS/iteAuT7fEpAJMio0k0EEEAAAQT6TID8t8/oe2fH4n2hyAUihQK90xP2ggACCCDQZYGw+W/YCDjSpV4UfyD/7fIQsCECCCDQmwIi/w1bAkJc55kC3JvDwb4QQAABBBBIdAHy30QfwQ76r8t/1YqQ8hvBHTTB0wgggAACfS0gp4C1tLSIW8C73W6R/+pS4ND81263izu/Wa3Wpqamvj4U9o8AAggg0LFAU1OTWgJClgASF3955ZdTgDtukTUQQAABBBBAoB8LkP8m+eCH5r+hFSGTnIDDQwABBBJfQOa/ughAFPyVxR/Er6L4r8vlcjqd8k99zc3NFouF/DfxzwWOAAEE+oVAU1OTxWJpbm5Wr/+uwI/8+5+8+Sf1H/rFOcFBIoAAAggg0A0B8t9u4CXCph3mv83NzYlwHPQRAQQQ6NcCkb4CHCX/Veu822w2UfyX/Ldfn0YcPAIIJI6AyH+jlACm/kPiDCY9RQABBBBAoO8FyH/7fgx6rgfyG2Gy/q/ujvDiG8E91wFaRgABBBCIiYCYAuZwOKLM/xWVHzwej+5Sb7fbZfHfxsbGmPSHRhBAAAEEelSgsbHRSAlg+W6/RztD4wgggAACCCCQ6ALkv4k+gtH6L98RigliulBAVoSM1gTPIYAAAgjEgYD8CrAu/1XvAtRh/tvU1ET+GweDSRcQQACBjgUaGxtlCeAotwCV7/Y7bpE1EEAAAQQQQKAfC5D/JvPgy3eE5L/JPMwcGwII9AMB8t9+MMgcIgIIINAuQP7bbsESAggggAACCHRbgPy324Rx3ECU/Fe9I1AcHwFdQwABBBDwC8j81+FwtLS0uFwueQt4eRf4SPN/Rakfq9XK/F9OJgQQQCBRBNT812azhdb/ERd/+W4/UY6LfiKAAAIIIIBAnwiQ//YJey/tVL4j1M3/Ve8Ib7Vae6k37AYBBBBAoKsCulsAdSH/tVgs5L9d5Wc7BBBAoLcFRP5rsVgi1X8n/+3tIWF/CCCAAAIIJLIA+W8ij15HfSf/7UiI5xFAAIHEEOgw/5WTfyOVehf578OHDxPjgOklAggg0L8FHj582NTUJPNfu90eWv9d3OFZvOHv31ocPQIIIIAAAgh0IED+2wFQQj8t3g6Kt4YiGhA3hWf+b0IPK51HAIF+KBA9/1XDX/Lffnh6cMgIIJB8AuS/yTemHBECCCCAAAJ9KED+24f4Pb5rXf7rDvy4XC7y3x6nZwcIIIBATAXC5r9qCWA1AhZ/6mtpaXE6nXa7XdT/Zf5vTAeExhBAAIGeFSD/7VlfWkcAAQQQQKCfCZD/JvOAh+a/LpdLJALy/m/U/03mM4BjQwCBZBHQ5b+ht4Aj/02WoeY4EEAAAb8A+S/nAQIIIIAAAgjEUID8N4aYcddUh/lvc3Mz+W/cDRsdQgABBEIErFZrc3Oz3W4Pewt4Nfyl/kMIHg8ggAACiSdA/pt4Y0aPEUAAAQQQiGMB8t84Hpxud438t9uENIAAAgjEhQD5b1wMA51AAAEEekuA/Le3pNkPAggggAAC/UKA/DeZh5n8N5lHl2NDAIH+JED+259Gm2NFAAEEqP/AOYAAAggggAACsRQg/42lZry1Rf4bbyNCfxBAAIGuCZD/ds2NrRBAAIEEFWD+b4IOHN1GAAEEEEAgPgXIf+NzXGLTK/Lf2DjSCgIIINDXAuS/fT0C7B8BBBDoVQHy317lZmcIIIAAAggkuwD5bzKPMPlvMo8ux4YAAv1JgPy3P402x4oAAghQ/4FzAAEEEEAAAQRiKUD+G0vNeGuL/DfeRoT+IIAAAl0TIP/tmhtbIYAAAgkqwPzfBB04uo0AAggggEB8CpD/xue4xKZX5L+xcaQVBBBAoK8FyH/7egTYPwIIINCrAuS/vcrNzhBAAAEEEEh2AfLfZB5h8t9kHl2ODQEE+pMA+W9/Gm2OFQEEEKD+A+cAAggggAACCMRSgPw3lprx1hb5b7yNCP1BAAEEuiZA/ts1N7ZCAAEEElSA+b8JOnB0GwEEEEAAgfgUIP+Nz3GJTa/If2PjSCsIIIBAXwuQ//b1CLB/BBBAoFcFyH97lZudIYAAAgggkOwC5L/JPMLkv8k8uhwbAgj0JwHy3/402hwrAgggQP0HzgEEEEAAAQQQiKUA+W8sNeOtLfLfeBsR+oMAAgh0TYD8t2tubIUAAggkqADzfxN04Og2AggggAAC8SlA/huf4xKbXpH/xsaRVhBAAIG+FiD/7esRYP8IIIBArwqQ//YqNztDAAEEEEAg2QXIf5N5hMl/k3l0OTYEEOhPAuS//Wm0OVYEEECA+g+cAwgggAACCCAQSwHy31hqxltb5L/xNiL0BwEEEOiaAPlv19zYCgEEEEhQAeb/JujA0W0EEEAAAQTiU4D8Nz7HJTa9Iv+NjSOtIIAAAn0tQP7b1yPA/hFAAIFeFSD/7VVudoYAAgggusSeVQAAIABJREFUgECyC5D/JvMIk/8m8+hybAgg0J8EyH/702hzrAgggAD1HzgHEEAAAQQQQCCWAuS/sdSMt7bIf+NtROgPAggg0DUB8t+uubEVAgggkKACzP9N0IGj2wgggAACCMSnAPlvfI5LbHpF/hsbR1pBAAEE+lqA/LevR4D9I4AAAr0qQP7bq9zsDAEEEEAAgWQXIP9N5hEm/03m0eXYEECgPwmQ//an0eZYEUAAAeo/cA4ggAACCCCAQCwFyH9jqRlvbZH/xtuI0B8EEECgawLkv11zYysEEEAgQQWY/5ugA0e3EUAAAQQQiE8B8t/4HJfY9Ir8NzaOtIIAAgj0tQD5b1+PAPtHAAEEelWA/LdXudkZAggggAACyS5A/pvMI0z+m8yjy7EhgEB/EiD/7U+jzbEigAAC1H/gHEAAAQQQQACBWAqQ/8ZSM97aIv+NtxGhPwgggEDXBPpD/ut2u0tLy4qUn1u3ih0Oh06soaFBWcW/WFNTq1uHXxFAAIFEF2D+b6KPIP1HAAEEEEAgrgTIf+NqOGLcGfLfGIPSHAIIINBHAvGf/7rd7nv36kpKSkQ4W1xcfO9endvtNg5WV1c/ecrUFJNZ/i9j+CPXrl3XtbBr1265glhYu3adbp3Y/urz+VpaWurq6ioqKkLzaHVfHo+nurqm6ObN27dvd+rY1UZitRwalMvc3Gq1xmovMW+npqZW9jOwcLO0tPTu3bstLS1d25fX67VYLLdv3757927XWmArBPpEgPy3T9jZKQIIIIAAAskqQP6brCPrPy7y32QeXY4NAQT6k0A8578+n6+xsfHcufOvvrr20ZGjRSabMfyRV19dG5reRhm0hoYHLyxZlpU9Z+as7MFDhqWYzGHz38OHD2dlz8nKnjNp0pTeyX89Hs/v5869tu71mbOyrl/X59HqEdXV1S1e/II5NT0nJ7e6ulp9qveXQ4NymZufPv1L7/fH4B7Xrl0n+5liMpsGpI4ZM27ly6+cPXu2sbHR5/MZbEeuVl9fv3v35/Nzct966235IAsIxL8A+W/8jxE9RAABBBBAIIEEyH8TaLA63VXy306TsQECCCAQlwLxnP9aLJZt23cMGjx0gDlt/IRJs7Kys7LnzJiZNX7CxDfeeKsLnDab7em8ZyLlv7LB06d/6Z3812B/NE27ePHS8BGPppjMQ4cN//33c7KrfbIg89/RY8aJxFz+98KFi33SJSM7FfnvAHPaY1OnZ2XPmZWVPX7CpAHmtEGDh27f8Vlzs81II+o6vXaeqDtlGYHuC5D/dt+QFhBAAAEEEEBACpD/SookXCD/TcJBTeRDslqt4lu98VysU35juqGhIZGx6XuyCcRt/uvxeL755tu09EEpJvPMmVmnf/lFfE+/yWI5der0/v1fdWEkDOatvZbrGeyPpmk2m23Tps2PP/7khg0bm5qaunDsMdxE5r+7du2OYbM93ZTIf+XU75aWltO//DJzZlaKyTxo8NCffy7o7BTgXjtPelqG9vubAPlvfxtxjhcBBBBAAIEeFSD/7VHePm68D/Nfr9fb1NRUUVl58+atoqKimzdvVVRWNjU1eb3ezqJ4PJ6HjY0VlZUPHjyItK3x6n5Wq7W4uPjWreI+/2QuCnRYrdbbt2/futWqVF5e0djYqFPy+Xx2u7327t3KyspeKChpvNJlpOGI9HgvfAj3+XwPHjy8detWaWmpzRZ+mlj0MyomiUlLS0tJSWlRUVFJSWlozcq7d++JopZ9XoLT5/Pdv99w8+atsrKy6FVNI41pDB/3+XxWq7Wy7aJRVHSzsrLSarV2NuuJYZfiqqm4zX/r6uqysuekmMzDhg0/c+ZMFDSfz9fUZCkvLy8qullUVHTr1q07d+44nc7QTQzmrdEvKT6fz2azyTMqyu5aWlpqamuLi4vFP8yKigpx4nm93qqqqqKior/++uuJJ+emmMxDhmYcO3Zc/B2rqKhI/pXIyJ3rHA7HrVv+XTx8+NBms1dWVgYcblZWVumuEl6v98GDB4Fb4fmh1J+qqirdC0SonnzE4NXMyLiImrwVFf7XoIaGBmFVXFxcX1/vDfxUVVXdulVssVgrK6uKim6WlZU7HE5xNb5589b9+w3G/yHr8l9xOP/975mhw4anmMxLly632+3iBdTpdNbevVtaWirPqMrKKqu1WexL/sVx7959Yp74kiXLJGZpaZl8PfV6vY2NTZWVleK1uKjIX3HYX73a45GYLCDQ+wLkv71vzh4RQAABBBBIYgHy3yQe3D6r/+t0OouKinZ8tnNWVraYFJaWPmhWVvaOz3bW1NR0VryiouKjjz+elZX973/vibStwep+Xq/3yPffZwx/ZMiQYfu+3G/8U3Sk/XbncZ/PV11dvW/f/vk5uYMGD00xmdPSB02dlvnJp9vu3AmqGul0On88cfKllS8/8eS8urr67uzUyLbGK10aaU1dJ3pYo67Z5WWXy/XJJ58OGjx0zJhxBQWnwrYT/YwymJiEbVk+WFtbO3VaZorJPGr02JKSEvm4pmkej+f1198Uw13466/qU72/7HA4t2z5Z1r6oImTpvz222+93wG5R7fbXVFRsW/f/tlzHhcXjQHmtKzsOV99daC5uVmu1p8X4jb/LTh1ypyanmIyP/vsokh/dBFnfmVl5a5dux+bOn2AOU3M5Vyw8OmfCwosFotuZLuf/wb+tnH/u0OH5Bk1aPDQBQufLig4pe7O5/M1NDQUFJxaumz5sIwRKSbzAHNa5oyZ+/Z92dzcLLuhlqNVl+W8WiN3rrt27XrG8EdSTObt23ccPvx9VvacAea0Aea0xx9/srCw0OVyCQSPx1NSUvLPf74/bvwE04BUdXcpJvPTec9EQdYxGrmaeTweI+MiMtns2Y//ffVq/rtbxIFkDH9k/fq379y509zc/HTeM8MyRnz55f7HH3/SNCB18pSpBQWnPvjgw0GDh6alD9q8Od9i+I5zYfNfq9Wau+DpFJN5zJhxFRUVmqa5XK5f/vvfl1a+PGbMOAE1aPDQOXOe2L//wP379zVNk684OkPx6+QpU+Xr6Z071du378jKmi1ei0XF4VdfXfvX5StyXHS2/IpALwiQ//YCMrtAAAEEEECg/wiQ/ybzWPfJ/F+Xy3Xm7FlxD/dHHh01Y+Ysf8HBrNnTpmc+8uio3bs/76y4kU+w8mNe9LvAO53O1WteFR+5X1r5sphD1Nn+xGr9Bw8erHhppX/SXMaI6ZkzAmUZZ0/PnDlq9Jjdn3+h7kUmC+rnVXWF2C7LyEN+/TZW7Rscpu7srrGx8amnFpgGpKamDczPfzdsU9HPqOjPhm0w9MH/TStbt+51ceeioz8cU1eor68XkyWnTsusra1Vn+r95YaGB088OU9wffCvf/V+B8QevV7vlSt/z507P+ifQ9bsqdMyJ06a0qkbiPXVIfTCfuM2//3oo49FoPbRRx9HcvD5fOXl5Tk5uSkm8yOPjJw5Kzsre/akyY+ZU9PT0gft2btPNwvY4FUoyiXFarW+u+W9Aea0jOGPzJiZlZU957HHpqWmDRw0eOj+/V/JiZ8Wi0WslpY+aNLkx7KyZmdlt594drv9jTffUu9HJ4vSikK6hw8fFods5M51Mv+dOi1zyNCMx6ZOm5U1e8QjI1NM5omTphQXF4umamtr587LSTGZR48Z6+9P1uyx4yYI4QkTJ73x5lvGX7k6vJoZHxeRyT46cnTOU7kjR42ZOSv7sanTRe7/zsZNTU1NT+c9kz5w8KjRYydOmjx6zLgUk3nsuAkjR42ZNj1TsJ+/cCHS6aF7PGz+q2naG2/4/3I2ZMiwv/76S9O0urr6GTOzJk6a8r+b8okXUHFGmQakfvCvf7k9ngsXLophkvcJHD7iUfFIVvacF5Ysa2ho/VLR7s+/eHTkaP8Lsf8E8JeuFgH35ClTdX/A03WVXxHoUQHy3x7lpXEEEEAAAQT6mwD5bzKPeO/nvz6fr6ioSIS/48ZP3Llz18OHDzVNc7vdVVVVu3btPn78x86Kd/gJVp3mEz3/1TTt/PkLTz214KmnFpw5c7azPYnt+l9//Y1pQOoAc9pbb71dU1vr8/k8Hk9t7d0DBw6eOHFS3Rf5r6oRfdnn8/3www9Pzp23ePEL16/fCLty9DMq+rNhGwz74JEj34tJjq+//qZH+RLxpUt/DBmakWIyr1v3ugyhwrbQCw+63e5Dhw4Lrj6MOe7duzdvvj/wGjxk2MaNm8U/BzEj+LOdu8rLy3uBIv53Ebf5r0jrUkzmKKV+W1paXgv8RWTI0GGffrrNZrN5PJ4//vxz5ix/UddHR466fPmyOgTdzH99Pt+PP/6Ylj4oLX3Qlvf+abFYxGtT9uzHU0zmKY9Nq672f8fC6/V+d+hQWvqgAea0hU/n/fnnX2632+PxVFRU6k48g/0R9X8j3blO5r/m1PSFT+fdvHnL5XK9u+U9ke1KvSPff28akJo+cPCBAwfdgZ9jx44PGjz0f68XR77/XlXqcFlezTZt2izrHhQVFcnSB8bHRY7yoyNHfbl/v91uv3nz5rjxE1NM5umZMyurqsRRjxo99rfffhP1FgaY0/7xjw1lZWVitUOHWrPyDrsdKf/98MOPhNXp079omvbw4cMt7/3zwoUL4isCHo/n4qVLYl+ZM2bWB6YAi31F+TuBWOHEiZNffLGnpqZGXJMtFsuGDe+Ife3b92WHHWYFBHpIgPy3h2BpFgEEEEAAgf4pQP6bzOPe+/mvy+Xa8M4m8cXeb7/9Lnq9P4/HU1dXV1JSEvhcerO0tOzBgweyJoO8DdemTZvFxzD1E6yogWi8up9sTX4GDr0FmahvWF5e7nK56urqZH3DhgZ94UKn03nnzp22QoGySf+C8Yqu4iPu0KEZYipT6IkoC0r+9tvvYv7X2HETfvvtd7k/uS+fzxe9DKKI4APVJIvq6urcbnd1dXWgNLO/SmNnK12KwotGCmu63e579+raijPe/PLL/WIoO4zphYYsvnn79h15Ykgo6SNKcIrhkzhqaU6xiTwHopxRmqbJxGT//q+ampoCnfcXKr13715oH2RnQheKi4vFJLis7Dn19a1VO3w+3+7dX6SYzObU9KNHj2qaJkuCqmU95YmtnqW6kqAlJSV1dXVqshzah9BHJJoKJZbl6SS2Ci3hffv2HbvdHvqP2uVyVVRU3Lx5q66uLvTZ0D7oHvF6vV8dOCC+vr1ixcoo323XlXO9efNWZWWlzWZTdypGWZRdVoev9u5d1UrXVJTKsLre9uGv8Z//njz5n0g+ZWVlY8aOF+UL1PIL3313SAz99u2fqdsazFsj5XpOp/PFF19KMZnHjZ/w66+/yrN9w4aN4l+fKL1itVoXPp0XmGk7rqjoptoB3bLB/hjMf8eNn3jzZuvu5CHI2dOff+6/RIwZO/7WrWLxIl5SUipizc+Dvxqi62Tor/JqJi688r/yqyTGx0W8YA0wp219/wMRksrJ0c8889yt4mKR/77++htut1sc1PARj169dk3+/VLWygjtp+6RSPnvjh2fiUMQ+a8oKtLQ0FBe7r/+qGWax4wdL2pEiJYlcqSXHlFkv7q6prhYvCEpkiWDt2z5p657/IpArwmQ//YaNTtCAAEEEECgPwiQ/ybzKPd+/ltTUzPlsWkpJvMTT84TM38j+bpcrmvXrr227vVHR44WX5MfN37CP//5fklJqYhpIn1wFR//RA1E+aFOfqxVF+RHXDXUkyuEfg4UnzmnTc88d+7ca+vekPUN89/dcu/ePXkgFovl54KCBQufFoUCZYNiQX4uletHWnjjjbdEEvHll/vv3r3rcrnUGEt8uVXMpNbtQv4q99VhGUS1tY0bN/3xxx/PLVqclj7INCB10uTHvjpwIFDo0iY+wMv2dQvy07vBwppWq/XcufOvvrpWFGc0DUgdMmSYaDMUP6yS3W5/btHiFJN58fMvhN6drKamdsLEyXLWoRg+tc+yw6JxI2eUeqocPPj1Zzt3jgl8kXnQ4KGr1/xfeXm5bozCdls8aLfbX1iyVNww6tKlP8SDDofjhRf8D44bP1FMa5VTAtWynvLEllCBkqClaknQR0eOfm3d69euXetUeUqZxahQYlmeTmJeZElpqa6E91O5C44dOx763fOrV69mzpiVlj7ozTfXd6FWr81my3vmWVEQ+dTp05FIfT5fbW2tWs41LX3Q7DmPf3fo0P379+W4iFEeM2bcxUuXdu7aLYfvpZUv37x5U6xm8ASO1JO+ejxu8991694Qp1CU8j6Fv/4qagW8++4WFfDPP/8SF1J5qotnDeatof9SxOYNDx7MmDkr9CSXj4izvaKiQqTSzy1aHHpiq/002B+D+W/0f+w//nhi8JBh5tT0zflbrl67dvXatc35W8yp6ekDBx87dlztVYfL8qI3esw4WfdALX1gfFwiZbKiD9JHXHXFuIiXYHnN0V2Qo3Q+7L58Pt+WwFzp1LSBvwaKlTscjr//9hcjnjotUxQNl+OrK14U6TwRffD5fPfu3Tt69IdFi54fPuJR2YhY0J2ZUbrNUwjEXID8N+akNIgAAggggEB/FiD/TebR7/3898KFi+kDB6eYzP/4xztRZL1e759//iWqB/pLLmbPnjkr+5FHR6WYzDk5ueLuZ4cPHxafV8UkSjFFS36CFTUQjVf3k63JOoChH+rEZ84hQzMmTpry6KOj1PqGW7e+L+4D7vF4vjpwIC19UPrAwdOm+4v2Ts+cKfKLQYOHzpyVfeHCxSgHrj61d+8+YZWWPmjly6+cOXOmtLS0sbFRTjKVBSVFuCYCsswZgXrK2XOysufIfXVYBlHNf7OyZj82dbqodCnTsdOnf5GTuWbOyh4cCGojVbo0UljT5XJ9/c23Q4ZmmAakjhs/UVTVHD9hUmc/Ub/55nr/WfFUrsViVfU0Tbtx48aIR0YOMKeJUh4ffvix7oTRxQ3yHIhyRqn5b+aMWcNHPDpj5qzMzJlipFauXBVldqque5qm7dy5S8xt3L37C5E8VlVVjZ/g/8b0kqXLRN5kJP+VNTrbMbNmi9zqsanTr169KtPP0D7oHpEnlfynJDXU/Le+vv6p3IUpJvP/ZvAFSrXOmTkre8pj08aNnxhajXfjxtYZ+o88OqqoqEi3xw5/vXPnjpjbOH7CpDt37kRav/7+/ZUrV5kGpA7LGJE5Y2ZW9pyp06aLv2Hk578rJy+LwGvIkGELn35mxCMjZ8zMksP3/AtLxPAZOYEjdaMPH4/b/Hfr1g/Ev+vNm/Pl5UsHJQO4bdt2qE/9/fdVcdc13QVZ5om6IE/dNkrlH5k5Dh4yTJzA8oQXC+LiKf/1vfLKmkg9F3s02J+Y5L8NDQ1z5843DUiVmWZq2sCRo0YvX75C3NZMhxDlV5n/6i6GchPj4xI2k5XtSJ+ey39dLteLK/xzuseMHV9SUuLz+QoLC8VlUNQjVss0604beZi600z032K1vvbaOgH+2NTpWdn+EsBR3irIo2YBgZ4WIP/taWHaRwABBBBAoF8JkP8m83D3fv574sRJEQTIT5vyS/fiG7jiq/oPHz7My/PP+MucMeuPP//0eDx2u33bth2paQNTTOYdn+1UP4p3+Ak2SgoQOrpRPgeKz7eiGOXu3bvV+oaZM2bdb2jQNK2pqemJJ+ammMzz5z8lKkjeu3dv8eLn/VOen5jb1NQUusdIj9TV1b3wwlKRfQi0iZOmfLpt+/XrN3Qz0WSWoc5oVps1UgZRNmIakJo9+/E//vzT7XZ/9dUBYf7WW29Lc/lJXvcRWuzRYGHN4uLiiZOmpJjM4ydM+umnn0VVzePHf+xs/rt79+cpJvOkyY/dvesvv1BVVVVU5C9hoWna5ctXhgzNGPHISN0Xtzs8YaKvIJ8dMjRj8+Z3Gxsb6+rqHn/8yRSTeeSoMcUlJap89OWrV6+JWeQvvLBUzF/+uaDAnJpuGpAqv8ctE6goUwJljc7RY8YJTH/d3sNHWoOz19Z1p46wPF41//3vmTMiuV7z6v+JKb12u/369Rtb3vtnWVmZ7qi3bdsxaNAQ04DUqdMyQ5/VrRz6qxTInDFLXB9C1/F4PNt3fGYK3NbvH//YUF9f7/P5ysrKFi70f3k/LX2QLJktD2fI0Ix/bn3fYrHI4Xt05OiiwBRgI5VhQ/vQ54/Ebf77888F4jLyVO4CWepEx/Xb77+LNPONN95SC3GcOXNW/HFl8+Z8dZPoVyG5ZqTr+f37DdMzZ4pvojx40HqPL7mVXCgpKRk1emyKyTx33vxI555Y2W63P/vcohSTOexVUTbY/fzX5/P9+uuvGcMfGTV67JKlS+c8/kRW9pxnn1u8Z+++Tv3xSXRJ/nOQr8hqVzVNMz4ufZv/+ny+0tJS8YWYZ555zmq1trS0rFy5KsVkTh84eM+evfJPO7kL/H+40g3TmTNnRTX2sPnvpUt/iD/izp03v6SkxOPx+Hy+n376ubOvVjpbfkWg+wLkv903pAUEEEAAAQQQkALkv5IiCRd6P//997/36PJf+flTffzcufPi45Za0rew8Fcxl0f3ZX/ZQqRPsDHPf9/d8p4I1GQGMW78RDEzsa6uXhS4eO+9f7a0tGia1tLSsvV9//S3KY9Nq6trLfNq8GSqr69/d8uWGTOzRo4aI74cLSY3nThxUjQu2pHRbaT810gZRNnIiEdGitqXmqaVlJQ+lbsgK3vOOxs3yT3Ko9Z9hBadMVJY0+fziVEbYE7bvftzOTs1UlgThevHH08Ik4qKiocPH86dNz/FZH7nnU0ej+fnnwtSTOZp02fU199XW+jwhIm+gnz2xRdfkoFL69zwtvvOq7uLstzU1CRuazZ+wkRR3leUHs4Y/sjVq9fEhjL9jJL/yhqdS5ctv3HjhvhTyp9//jlnzhMpJvOMmbMaIidcUbonnpLHq+a/hYWt39Z/9rnFf/75V1VV1cPGxkgpc11d3erVrz45d96+fV9GWidKN6RAzlO5chqvbv0HDx/OCUTwj02dXl1TI589d+78wEFDUkzmV19dK/6AIQ/nlVfWyOETc8Mff/zJy1euGDmBZftxtRC3+e/du3fFH0jS0gf9e88e8SUGn8/ndrsbGhrEX2uqbt8WV86srNllZWUiYrNYLP/4xwZRL/6XX/x39JI/0a9CcrVIlxSHw/HSSy+L6is//VQgikSLLv3vr481NbXibGmyWERcOGjw0KNHjzU3N4sXTafTeffuXbXmzP/uz/l/a18TDf7++zn51zLZE7kQpefyVI/yj93j8axe82qKybz8xRXiLnmy5S4syH8OkV49jY9LH+a/gVsF1OfnvytuiyduyCadx0+YVFFR6fP5HA7n5cuXM2f4c3/di9e1a9eGD38kxWRe8dLL6rAKUnkW/etfH3o8Hq/XW3///seffEr+24VTjk1iK0D+G1tPWkMAAQQQQKCfC5D/JvMJ0Pv5r5zgKb/kK750LysYiE+h+/d/JT5Zhf2v+tlY/T5+pE+wMc9/ZRAmP2HKD5NNFsszzz4XuOP5jFOnTxcVFZ06fXp65owUk3nBwqebLJYunE/19fVf7t//zLPPjRs/UUy6HDV67LXr12VTMrqNlP8aKYMoG9Hxyr3IhdCjlk9pmmaksOb/JnS/vOoV/4fwjBFXr16Vm8uP2WEnYcnV1IULFy8OHDRkyNCMy5evXLr0x9Bhw00DUmdlza6rqzt06HCKyZyX96yM+cSGHUYe0VcI+6ycGy7PDbWTkZZ9Pp/424A5Nf3ngoLGxsZ5859KMZnnzc+RU8WNREKyRmfYfy+RzopIvdI9Lo9XPbSqqqr5OU/J+iRPPjnvo48/Pnfu3J071V1IeHV71P16/foNUXMzcCD+md2hP8UlJSNHjUkxmZcte1H+oULTNFk7Qp7VYQ9HbdDICayuHz/LcZv/+ny+w4cPi0ruQ4ZmfLpt+5Urf9+4ceO3337bvDlfTOx1u93vvvte+sDBpgGpK19edeHChWvXrn/xxb+HDM0wp6a/sGRpY2Ojpmnyzod//fXXE0/6v2kxZGjGsWPH1VsUyu8BFBW136RryZJlYh15H8UTJ0+KLk2eMvW77w5du3ZddOmDf32o/m3g22+/E/Pox4wd/9VXB65eu3bt2vWTJ/+zes2rN27cUEf/ww8/FnNIX3/jzcuXr6jfaDHYcyP/2GVyPX7CpO+//+HSpT/EjsLe7VDtXthl+c8h0qunwXH5X03w3s9/5dBfuHBh/fq309IHDRo8dMnSZaIIhoRKSx+0c+eua9eunzhxMnPGTPGXVPmSLVhkzD123IQffzwhSEtLy8TV7PyFC+IP0k8+Oe/ixYt//fXXOxs3DR4yTLwcG3+1CjsEPIhAdwTIf7ujx7YIIIAAAgggoBMg/9WBJNWvvZ//yi+TvvnmenWGlAwfxadQ+aF04qTJurKMWdlzRG1fORJy5UifYHsz//X5fN9++505NV38T9y5bvCQYf+rZfz90aOyz11Y8Hg8BQUFskLuF1/8WzYi9cImfQbLIMpGZFIm29ctRM9/ZTtRCmvKO3rpPoR3If8tD9ygyTQg9fQvv+zatXvQ4KETJ01JHzj4v/898+mn21JM5ldeWaNLJDs8YaKvEPbZruW/mqYV/vqrSFE3bdp87fp1UeR66/sfyDnRRiIh6TZ6zNjQfy8vLFnW0BDxG+66wQ39VR6vmv8G5oaXrFixMnPGrHHjJ4o5tqYBqXnPPHvt2nXZ+dDWuvBIRWWlOO1HjR5bWloatgWptGbN/6kXlrt3702a/FiKySzP6kiHI5s1cgLLleNqIW7zX03T3G739u2fTZuWOXTYcBGSii/mjxkz7v33/yUY6+rqli1bPmrUGLWs7aMjRy9Y+HRJW1kVeaqH/VOHOEXlBSrsOvJMCHRpx5QpU2WQZxqQOnDQkDFjx7+27nVZY8dms215771Jkx9TVxs8ZNisrNklJUFn4/XrN7KFx/1SAAAgAElEQVSy58jVxN7lq5KRnsvTWHYy7IvXsWPHRRypHqC42+Ghw4ctnfkro/znIPsZekobGZc+yX/l4Q8wpw0eMmzSpCmr1/yfei/WEydPTpgwSdQeMQ1IHTxkmCjKHzr/1x9zb3lv5KgxYmXRsnw9bWxsXLb8xWEZI0Tgm5o2cNTosfNzcocOG55iMpP/hp4zPNJrAuS/vUbNjhBAAAEEEOgPAuS/yTzKvZ//ylk2Tzw5T/2cJjMX8Sl079594gPYoUNHOsyS9uzZK1aO8gk2enU/dYzlp/TQD3WhGZ8MGmSOabU2r1q1eoA5bX5O7sKnn8nKnvPk3HnrXn/j2vUYhGI+n+8fG94RByvrw2qaVl9/f9p0/xRj+XlVPSKDZRDlEKjRg9qOXI5e6dJIYc2WlhZxo56hw4ZfvnxFtOzz+Y4e/UEcXSi+3LtuoaGhIXPGrBST+eDX3zyd9+y06TN27tw1wJz2zsZN4uvY7723VbdJh5FH9DMq7Oah54Zup5F+vXv3bmagDum8+U/t3btPfH9Z1t/QNC00EgqFOnu2UExq27r1fTX9jLRTh8NRVlZeVHSzpqZGrbUadn15vLr8V9M0n8/X0NDwc0HBK6vXyLshLVu+wul0qk25XK6KioqbN2/V1dV1+M9Z3VAsW63WZ57xz6k3p6YfOfJ92A7LOq15zzwr6hGLbW/duiXqty5b9qL4WneUwxGbGDmBQzsZD4/Ec/4rzpZbt4o3bdq8YMHTWdlz5jz+xLLlKw4fPqLmlTab7auvDixZumz2nMdFWdsvvtij/vVC3tIz9O8c8o6X8k6VYddR/3zo8XguXfpj3etvPDl3nrhWv7zqle+PHlW7JIrnXLr0x+uvvzFv/lPykn7p0h+hp+KNG0WyNbH3w4cPi3PDSM9lvR21k3LDDz/8WCTpv/722/gJk9IHDs7M9N/n0P+/rNljx00Qpa4PH+74RVOervKml7Kf8il1ocNx0TRNFFF5KneBLhYX7chBETsSByX+NCXvORm9D2p/5M08xeEvWPD066+/ceHCRd2f+jwez08//bx48Qti1N54461bt4q/P3o0K3vO/2fvPNyaSr4+/i8RAthdG6uua13FdS2LAVIIoTfpvSgWsLCKXUHsYluxYwVRkQ5SU4FQEggkIcm99zWMO7/7JiEJ0kI8PD46uZk5c87nzA3mm8kZcz/VanVh0RUuj/8d6fYd9E/Oenp6Dhw4iNYJl8e/ceOmVCoNCg7x2r4D5YXuHrSBwIwRAP13xlDDREAACAABIAAEfgYCoP86c5ZnXv/V6/XZ2QfQ3tjzFy4qFAr0Fhpv00MaLv66ZWhoeFdXF+pDEIRarZbJZCY1QJ8/f4FEw6NHj+l0OosJs17djz5kkvovOnNs4aIl5eXlOp3uB9Qu5AxBEDKZrK+vT6vVIkWPIIj+/v7gkFAXBtPNfd6DBw+x28PDw75+xnOuVq/5rb29w2RSLFJbL4Nov/5rvdIl/tbtwkVLrBTWPHbsOFb00OFvYrE4LDxiovqvWq3m+fNRNcyVq36Njt5XV1e/ctWvW7dt997LcmEwb9++g0GhBlYAx/vAwPqKsjj8h/Xfb4JFYmKSC4O5bPlKVK53y5at3d3d2GesbP7tvRfdL+ag2tra1q5dN3aY1e62tnZ0F5AkOValtMfkeCuCIF6/fv37+o2uTPcAQSA6pRBPZ97A8dL134GBga6uLrVajRYnSZJ3795DGrT5KW11dXWowEtKShpdnDWfa7wrhYVFaJf07t1/f/3a8u28O5IkCYL4tralUplGoxkcGtrL8kGVoD9//ow6qNXqi5cuM1zdmG4ely5dRsYthkOf184FTB/iIG0H138dhNJcd0Mqk23ctNmFwfzrr12odDIShUvu3kX7piMiokxk0LkeMvgPBIDAeARA/x2PDFwHAkAACAABIAAEfoAA6L8/AG3ODJl5/ZeiqJaWlj///Ivh6rZw0ZLjx098/lzV1NT08uUrT8/VLgwmkuSUSqUgMOjbdj9XpntCYnJlZWVTU1NNTe3du3cFgUGvXr2iI/5cVYW+hunl9eebN29NijyinnjfscXqfnbWizTX+LC0ivf/fqisRN//TU5JfffuXV19PfKntbVVLpeb7xejB0Jvj4yMREZFZ2RkPn7ypKamtqmp6cuXL4eP5Lp7zGe4uu3e4y3r6sL9R0dHY2LjkJx67NiJ+voGNCkSyrGeZb0Mov36L9rqZaXSpT2FNT9/rkIFW3ft2lNR8eHz56rAwOD5CxYhs/bv/6UoKiUlDcX+7au7d+6UjIyMcLn+SPVzc5/37v17pI+0tbUjLOiMNRcGE58uKJP9DyZFUdZXFBYQ6fKx+drA2bHZuH//Pj7cz4XBTExMoss3g4ODSMhevmJVaWkpAjVv/kI6KK1Wm5GROW++sXYqP0CA7oK6+vonT55GR8cUFhbRfdBqtYLAIKSzG/dNX79Bf9a8jeOl67+FhUWhYeF3795Fi7Ouvj4zM5vh6oaKt+LvziNr2dkH0HTLlq9samoyn8LmFblc7u8fgCj5+nFevCxrbGysqam9fftOgCAIlWEtLr66cNESFwbT14/z6tWrxsbGu/fue/66huHqtnPXbpFIhGaxGI6JA/YsYJMhjvAQ9F9HyMJ0+1BeUYFqFISHR6o1GvRLfHR0tKysbOHCxS4MZsL/fwGZbn/APhAAArNIAPTfWYQPUwMBIAAEgAAQcD4CoP86X07/F9Gs6L8URZWXV+zcuXv5ilW41h4qvLhypefNm7eQf62trT6+fvQ+387IWrJ02foNmyorP/4vBooaGhqKit73y7IVSBFDSpNJEQPr1f2wjItFMXoDmzLX+PBArP9+OzuezebSh6P28hWrEhKTmpub7fl6PkVR33ZWxickrljpibY9IiPfytquWOm5c+fu8vIKOgGKosrKXq37fcO8+QvoU2PBzp4yiBPSf61XurSnsKZer8//5+SKlZ5I1Psm1P66ek1QcCg6kWlC+u/Fi5dQ1CtWen792kJR1Nmz51Chxl+WrWhqaqYoCkdH54PbJtNZX1FYQJwq/bejo2P1mt+QM0w3j/v3H9CTS5Jk0ZViz19XI1BMN49Vq37lBwh+WbaCXnpSLpeHhUd4eq7GtVNdme6LFi/5Vpbhzp3v30BHZkdHR5OSU9C6WrJ02aNHpfTpzNs4XrycKIq6ffvO2rXr5i9YhDijPenLlq/Y8dcu88V56tTp+fMXMlzdNm7a0t7ebj6FPVdaW1v92BxPz9X4jhgLcOmfO/5C3zcfGRlJSUn7dfVafBe4Mt2X/rL8zx076S5ZDMfEAXsWsMkQR3gI+q8jZGG6faivb1g19lnpmrXrHjx8iI6te/GyzNePg75G8OjRo+n2AewDASDgIARA/3WQRIAbQAAIAAEgAAScgwDov86RR8tRzJb+S1FUf//AxYuXca29Xbv3REZFX716jV7q0aSPH5uTm5vX1NRkvot2YGDg5MlTqKwkKt5Hr5+IgrdS3Q+XJsSF/+gNbArXHMQCNB6Iiwn29fVlZGQav4fuuRob2bxlKzqu529vVn9/v+VkmF3t7e29UlwcHBK246+duFzmleJiOiI8iCTJ9+XlEZFRqDOaGvtpTxlEXIQRx4uNW2xYqXSJK2biUpgovyaFNVFGUJVkPl/w77+Pent7wyMiJ1pRsby8AsUbExuPtjw3Njbt3vO3F62AI44OJ4XeMC/gaGVFWayYab42LEKzeBGvIq/tOzgcnlgiMemm1WpL7t5DoHz9ODdv3pLJZILAYBNQIyMjJSV3ce1UHx+/jMws85qYFEW1t7eHhUfs+Gtn3tFjIyMjJtOZPDx79hzSpun6r1arff36TXx8AqqI+ueOv/h8wekzZ+lFvbEduVy+b1/srt17ioqu0Lc24w52NlCA+I7w8fFDO7jxC4JWqy0tLcV3gY+P34n8fJMCFzh9+O6wOLudlWEtjp2ti6D/zhb5mZxXq9UePXrM5NMX9FnIxk2bj5/IN9l9P5O+wVxAAAjMMAHQf2cYOEwHBIAAEAACQMC5CYD+68z5nUX91ymxEgRx9pxx56mb+7yrV6/hOrzd3d2+vsb6vPMXLPr8ucopY4egnJIAQRB5R4+5MJgMV7dXr147ZYxOExTov06TSuuBmHz64rV9h/lnIdYtwLNAAAg4BwHQf50jjxAFEAACQAAIAAEHIQD6r4MkYlrcAP13arFqtdrAoGAXBtN4/lvFB7QtkSAIhUKBri9Zuqy2tm5qJwVrQGAKCQwPD3d1dWu1WvTiIJXKUPXhX5atqKurn8KJwNSUEwD9d8qRgkEgAASAgCMTAP3XkbMDvgEBIAAEgAAQmHMEQP+dcymbgMOg/04Alh1d9Xp9enqmK9Od4eqWnJKKjrarqak9eapg4aIlTDcPfoBAqVTaYQm6AIHZIfDmzduw8Iinz57V1zfgU92Ybh7h4ZE2K0XMjscw638EQP/9jwT8CwSAABD4KQiA/vtTpBmCBAJAAAgAASAwUwRA/50p0rMxD+i/U069sbFp567dvyxbgY+2c2EwPeYt8PRc7evHrq2tnfIZwSAQmEICHz5Urlm7Dp+x5uY+b/mKVd57fVpajAfrwY8jEwD915GzA74BASAABKacAOi/U44UDAIBIAAEgAAQ+JkJgP7rzNkH/Xc6siuVSgsKTvP5gj93/IXPbSspuTs0NDQd04FNIDCFBLRa7cuystCwcLR6uTz+xYuXLR45OIWTgqkpIQD675RgBCNAAAgAgblCAPTfuZIp8BMIAAEgAASAwJwgAPrvnEjTDzoJ+u8PgoNhQAAIAAEHIwD6r4MlBNwBAkAACEwvAdB/p5cvWAcCQAAIAAEg8JMRAP3XmRMO+q8zZxdiAwJA4GciAPrvz5RtiBUIAAEgQIH+C4sACAABIAAEgAAQmEICoP9OIUyHMwX6r8OlBBwCAkAACPwQAdB/fwgbDAICQAAIzFUCoP/O1cyB30AACAABIAAEHJIA6L8OmZYpcgr03ykCCWaAABAAArNMAPTfWU4ATA8EgAAQmFkCoP/OLG+YDQgAASAABICAkxMA/deZEwz6rzNnF2IDAkDgZyIA+u/PlG2IFQgAASAA9R9gDQABIAAEgAAQAAJTSQD036mk6Wi2QP91tIyAP05MQKPRfP3a0tTUJBKJCIJw4kgdJzSZrKtp7EelUjmOV9PkCei/0wQWzAIBIAAEHJMA7P91zLyAV0AACAABIAAE5igB0H/naOLscnsW9V+SJNVqtUQi+fr165g+09ze3qFUKp1DF0PRdXV3C4VCvV5vVzKmuRNBEIODg51CYXOzEfjXr1+FQpFKpSJJcppmNhgMCqWyUygcGBiYpinmltn6+oYlS5e5MJh+bM7IyIidzmMFE+mYTU3NbW1t3d3do6Ojdlow6UYQxNDQkFgs7u7uNnlqah/29/f/5/P3f62vOpVK1dLS8vVry+Dg4FR5Eh+f6MJgujCYL1+WmdicjulMppjhh6D/zjBwmA4IAAEgMLsEQP+dXf4wOxAAAkAACAABJyMA+q+TJfT/hTNb+i9BEDKZ7P79Bz6+fvMXLHJhMBmubut+33DyVEFfX9//c3FuPtBqtY9KH4dHRO7ctUcu7531IAwGQ2tr6+kzZ7d5bXf3mO/CYM5fsGjHjp2FhUUKhXKa3Ovs7DyRn7/Na/ulS5enaYq5ZfbH9F+sYCIdk+Hq5um5OiIy+s2bN0ql8gfk+97e3vPnL/ztzUpNTZ9WgOfOnUc+47/RqrtypVgul5t4ThDE3Xv3lixdtnDh4qIrxVP1ORCmZ6L/TtN008rTpnHQf20igg5AAAgAAWciAPqvM2UTYgECQAAIAAEgMOsEQP+d9RRMowOzov+SJNnZ2RkUHMJwdZs3f+HGTZu9tv/ptf3PzVu2Ll+xqqzs1TQGPFOm5fLe39dvdGEwf1+/0RH0X6FQuHv33992QS5btuKPrdu8tu/w8vpz0+YtvyxbYaKLTSEhLP+dO3d+Cs3OXVOT0X9dme4bNm722r5jm9f2NWvXuTLd5y9YVHD6zPCwvfuIMbeXL8uQIBsfn4gvTkcDL4B169ajJbd6zW8MVzeGq9uRI7k6nY4+qVar3RcT68p0d2W6h0dEqtVq+rM/3B5P/52m6X7YzykZCPrvlGAEI0AACACBuUIA9N+5kinwEwgAASAABIDAnCAA+u+cSNMPOjkr+u+QShUVtc+FwXT3mB8eHtHe3m4Y++nq6r5w8VJ1Tc0PBuNIwxxK/yUI4uDBQy4Mpse8Bf/8c1KhUFAUpdfrRSLRqYKCqqov00QOy3+g/yLCk9F/lyxdVl/fQFHU6Ojoy7KyrVu90CbuZ8+em2yktZnNmdd/0WcMer3+8eMnvyxb4cJg/rbud6lUauLqhw+Ve/f67N3r8/r1G5OnfvjhePovRVHTMd0P+zklA0H/nRKMYAQIAAEgMFcIgP47VzIFfgIBIAAEgAAQmBMEQP+dE2n6QSdnRf999fo1qvmwc9eenp4eK67rdLqurq6WFuORWWNlT9sHBgboXwxHpVE7Ojp0Op1cLkc9W1pa+vv7TUQxkiRVKpWQVv1WKpWaVFAlCGJgYKCtrb2pqbmpqam1tVUulxsMBuyhzen0ev3Y8Kb378t/Xb3WhcH8dfXa9+/LcRVU+iFUer1eLu/F07W0tPT0yKejWPDIyIgfm+PCYK5Zu04ikeBw6I3e3l7kZH9/P/06SZKyLuMJWs3NX4eHh3GA3d09o6OjYrFkrJpwc0dHBy5oi6u+7t9/AO0z3b//ACZAP/qMIAilclAoFOIa0G1tbUYIY8xJkuzr+15AViqV4oQSBCGRSLBLdG8n3yZJUqvVdnV3t7W1oWXwX8naYewACrCltVWj0YwtmDZUT7mnp4e+OCmKMhgM/f397e3fV9SjR6ULFy2ZaP1fpGBi/RfF+OrV60WLl7owmEFBIWirLFrhYrH4v/ulqaWlVdbVhRe5SqVCWSgsLEJ5CQwMxnlpa2vHa896XuyHjD8AwHvMh4eHff3Yxn3oy1c2N39FpvCCwc7IZF0ms9i89VB/XFUcQWhu/hocHIqCxT5M4XQURWm1WloRcxyBsUG/2U3CmaaHoP9OE1gwCwSAABBwTAKg/zpmXsArIAAEgAAQAAJzlADov3M0cXa5PfP6r8FgSE5ORQV/L1y4aMXLoaGhd+/eh4aGL17yC+q/es3aI0fyWltbsSaLpLFNm7dUVFQkJCajw7WWLF2Wc/AQXVk2GAxCobCoqPjPHX/h6rdcnn95eTkW7MYq5LYdOZK3es1ahqubC4O5fMWqhMSk+vp6/EV1K9NJJEaBEm/7RZKT+d9YhNJoNJWVH5OSU/B0S5Yui42Nr66uwS5ZgTOhp9RqNZfn78Jgfiuu+vjx476+Pqz0YTuXLl1munm4MJhHjx7DeNFu0/CISCTYffnyBQcYH5/46tWrvSwfd4/5DFe3DRs3l5SUaDQaiqKw6mcevon0KZFICwpOe3n9iWtAe3qujo2N/1Jdo9PpSJK8efMWEkx5/nwsTHd3d/v6GjXE39atr66uxiFMSUOn05W9ehUeEenpuRotA1Sytrj4Gq5MjQJcvmLVixcvcnPzPD1Xo624+2LiOjo6sEys0Whqa+sOHMj5bd16V6a7C4O5cOFiZHNC579Z1H9VKhXLx8+FwfT0XN3Z2UlRlEKhLCws+tubhe4XFwZz6S/Lg4JDXr95i/KCt/1azAu9UIn1vNjPGa8EtOyNnyXIZH/9tcuFwdy5azfah25xwZgXprBy6+E7nSTJnp4eVFUcQXD3mO8xbwGKF9962CvM4cemoyhqaGjo2fPnuIg5Nmgyo/3EJtkT9N9JAoThQAAIAIG5RQD037mVL/AWCAABIAAEgICDEwD918ETNCn3Zl7/HRoa2rPH24XBXLBwsZXKA1qttrCwaP6CRe4e839fv9Fr+44/tnoheXf37r+xyoZUoYWLlvy2bv3y5Su3btu+YeNmpGPm5ubhbaTt7e3e3iwXBnPxkl82b/kDFVH9bd16foAA7VolSbKjo8Pbm8VwdVu95jcvrz+9vP70/HWNC4O5YePmuro6JOqZT7d5yx9IYIqOjhkZGenvHxAEBntt37Hlj21IaHb3mL/lj7F6u9t3eG3fUVn5ESXs/fvy5StWoj25Y+WPd/yxdduatb/x/Pl4I+2kUksbrNfrs7MPICwLFy7OyMisqKjo7BSqVCosVgqFwnW/b3BhMP/88y8sdFIU1dzcjDjsi4nVarVY/129Zu2y5St/W7feCGpMAF24aMm7d+8piiopKTEWe92+Y9XYdRcGc5XnanTFa/uO5JRUXNr1/IWLy1esMmbE6096in9fv7G1tZWiqJGRkYSEJDf3eQxXt3PnzmvHfvL/+Yfh6rZ4yS+3b9/B/tPCnVRTLu/9Y6vXb+vWb93mNebzn+t+38B082C4uh09dgytKCQgesxbsH7DpsVLfvlj67YtW7aiZRAREYXSRxBEWdkrhG7FSs+t27Z7bd/x+/qNSAievP5LUVRycgrSlL98MVbwePmybOkvyzdu2rzNyzjX1m3bV6z0RKJ/eXk5RVGVlR9RFtatW48EyqW/LMd5EQQG9/cPIHY282InYqy0FhYWNTU11dXXHz9+wmPegpWrPK8UF+Pc4QWDHRtPkLV+pysUivj4BIarm7vH/LGq4sZayVgNx/rvVE1nMBiuXruGJOZNm42vKpu3bEWfZMxfsGjrtu34ZrcT1+S7gf47eYZgAQgAASAwhwiA/juHkgWuAgEgAASAABBwfAKg/zp+jn7cw5nXf7GAuGKlZ0tLy3iuV1VVIXl0z997a2trSZIcGho6fCQXqWyJiUloTy4SZMf26q48f/68Wq1ubm5eveY3FwZzyx/b+sZKGYyMjERHxyDFOTv7gKyriyTJ0dHRysrKc+eMQ9Au14TEJKRUPn36TD/2c6fkLhKP4hMS0YZZ8+lkXV0sli9S2ZAMhyLCYdK3VdKDTUoyindu7vPu3r1nMBhIklQqlS9evDx+PB/Lo/T+k2y3tLTs+dsbiVNoM/XWbV5FRcXt7e2IpF6vz8zMQvtY37x9i6YjCAJJePMXLHpZVkZRFI6L4eq2ddv2iooPer3+6tVrbu7zXBjMjIwsLOrR93WOV/+3tPTxxYuXZTIZwjs0NIR8cGEwi4quIB9kXV2793gzXN2Wr1j59t27t+/eLV+x0mPegqTklOkApVAoDh0+UllZOTw8jAo4fPz06b8VtbW3r48e18JFSw4cOKhUKuVyOdrWalzVY8p1b2/fzl170CbcK8XFarWaJMmPHz8tGdvMPiX67/HjJ+j7TKuqvhw/nt/R0YEKPqjV6vMXLqK8pKdn0vOCNwKby6yIuT15sWdBYv2XvjGW6eaRlpbe3d1DdwlZs+KY+a1ncqcTBHHj5i2mm4cr092PzW1vb0e3eWRUNJ0S3e3JTEdR1ODg4M6du10YzL//3otqGff09PD5AcbdzTt3Dw4O0ueamTbovzPDGWYBAkAACDgIAdB/HSQR4AYQAAJAAAgAAecgAPqvc+TRchSzqP+u/e138yqfyEuCIA4fPoIOiHvy5Cl2fWBgYMfYl8d/W7e+q8tYIRSrQgcPHUYaIq51u3rNb6jWbW1tHdo4HBQUPN7W2vb2drRVMyg4pLGxEVXxrKqq2rFjpwuD+cfWbf0Dxq2R5tNRFHXnTgkSmE6fPoNdxTrpePpvenqmC4PJdPM4duxEU3OzTNalUg1PeeUH7A9FUWKxODYubtPmLb8sW4F2oY6F5lVZWYkKPnz8+GnxWEnZrKz96IpCoWD5GNXtv71Z6Nv6OK6Fi5a8fvP9kC58rFlkVDS9dgSW/8bTf1G1VqlU1tLSipjj0rSHDh3Bzr8vL1+zdt1Y0YA9O3ftYbi6+flx5HI57jC1DVS0t6Ojc6y0cdOXL1927jLKfJ6/rkGVFnBcoaHheEWhtbFw4WL0McDTp8/QhuvU1DRcbQODmhL99/TpMybK5ujoKL1y8cOH/6LqGaGh4bgKMNopjAaOp//amReb2DGodevWo83UGzZudveY78p0z8zMMldI7RFkx7vTxyoLG4tcf9ttXVdXj33D9yze/4ufmsx06LOQ9Rs2uTCYhw8fQXhHR0dz8466MJjrN2ySy3vxRDPWAP13xlDDREAACAABRyAA+q8jZAF8AAJAAAgAASDgNARA/3WaVFoIZFb0XySafPvueUNDgwWfKEqj0fADBEhx6xirbYq66fX6yEjjbj58Fpa5uIP1X9wH67OFhUUWp6Mo6u27d0itQ7qYyd9YwzWfjqKoig8fUKmHpKQUbB/rpHgsfgo1Sh8/XrPmN6TDLlm6LCgouLj4al1dnfnJdSYDJ/OQJEmxWFxQcPrvv/euXPUrCnPrtu0ymQwVWwgICHRhMLdu245qqr55+3b+gkVMN49Lly6jeS3GNZ6sieU/i/ovrtbq7x+w9JflJszp0iRJkpcuF6Kt36gu87v3xkIT0/GDivbmHDy0cdMWlFbsGF5RFuMyWRsnTuSjgU+fPsN+jgcKd7DYQJbx7KgPSZKHDh1GW8jfvX9PkuTAwMCLFy/plYux5yZysxXdk6Io+/Ni0Vv6RQwKaa9jJbZbfXyNZYvdPeaXlj6md7YuTJvgRcsVnWqIyEgkErRN28fHD+3dRsbNB+JJrXAwH2X+wjI4NMTh8lwYzM1b/njx8mVTU9OLly83b/nDhcH08fUbHBrCE81YA/TfGUMNEwEBIAAEHIEA6L+OkAXwAQgAASAABICA0xAA/ddpUmkhkJnXf5X/fWnaY94CVC7W3C0stYzt8+3GHUiSjI2Nn6j+i0Uoc70JW8ZK0CrPX3FFVNzApVHNVSGKoqqqqhYuXOzCYCYnT0D/NRgMjx6VenuzNm3esmLlKqQ+z1+w6EDOwYGxvcbYt1rrlhYAACAASURBVOloaLXaa9euo23RDFe3V69fo1nu3bvv5j6P6ebx5OlTXBFi3e8bhEIh6jCF+u+QSpWQkIiqtW7YuBkVQbZYAZYkyfr6ht/+q1rr68vu6+ufDiwkSb59+9akaO/WbdsXjOUXK7B4RdF1bZO1kZiYjORX+rbTKdR/dTpdaFg4+oyktbV1dHT0xIl8d4/5TDePdb9vQPWUN2zcbLHcMF7tdJEd87Q/L3jIeA0Mig7h9es3qCoF/fMSZMGKYyZ4zfXfhoZG9CmCidhtPhB7O5npkFB+69ZtppsH+oPKqixYuPhbCfJ79+/jWWayAfrvTNKGuYAAEAACs04A9N9ZTwE4AASAABAAAkDAmQiA/utM2TSNZeb1X71en5yciqSx/PyTqPisiVsajSYwMNiFwVy2fGU9bY+wWq0OEAQhzautrY1ekAELTFg7xmrd1avX0HR5eUfp1Qnok7558xYpsLm5eVaKMJhrSSRJ3rlzF9kvKDiNbfb29m3abNwJON7+X9RTr9eLRKLLhUUcDg+pVwxXtxs3b2E7qKHRaNrb25ubv8rlcvOqqSad7XyIN1l/21FbVvYKjeru7t7m9acLgxkbF9/W1r5+wyZXpnt29gFcwWBC+u/ly4WIDF0nxe59+vQZ1SPevefv1tZWVAT56dNnaAiWJse2o8rDwiNcGMx1v29YsnQZ083jwoVLFov/ThLU6OhoRESUC4PpMW/B5cuFqLaDSqVCRTDwisKyJj0uk7Vx+HAuCgQXMCFJsrLyIyrIYKJRYiYWG8gynh0pj21tbb+v3+jCYHI4PJVKJRQK0e7X39dv/PTpM8pXTU0tKmBtMt3r12+QLowh0+e1My/0IeO1MSh8e1IU9flzFYJA/7wEWZiMINv5H4G9LB+VSoUM6nS68PBIlAi6D5OfjqIolWo4KmqfK9P9b2+Wrx/Ha/uOXbv3JCYl1zc0TNVNOh7Y8a6D/jseGbgOBIAAEHBKAqD/OmVaISggAASAABAAArNFAPTf2SI/E/POvP5LUdSr169Rndl169ZXVn7UaDTIDY1GI5N1oe9unzjxjyvTneHqdvHS5eHh4W87f/V6fVVVFdqbKRAEIm3ORHQz3xVo3J/75Qva6Lp1m1djY+Po6ChJkgRBqFSqnp4epPa2tbWt/V5hdndb2/cj0UiS1Gq13d09eEMunu7Zs+fISE9PT1iYUZpcuGhxeXk5ztlYNVK2C4O5es1v7e0dJnoQQRAyWVd/fz9yhqIorVa7LyYWCVUZGVnYDmq8e/f+t3Xr3T3mJyUlY2dM+lh5qNfrxWLxwIACT2cwGIRCESpru2jx0s9VVWg4SZLHjp9wZbp7/romL+8o081jleevjU1N2PiE9N/nz1+giI4ePWYu9GOx79ix4waDgSCI3r6+/H9OoiFYmhwZGTl06DDD1W3Z8pXPn79ITU1junksWbrs6bNn5mr+JEHhDw/WrF3X2SkkSVKj0VZXV2/5Yyt91zmWNa3ov/fv30efKOTnnxwdHSUIQt7be+BADsPVzYXBNBFkMV6LDRP912AwyOW9OTkHGa5uHvMWoIPy8M7i8PBIlGWlcvDmzZuoaIbJdPX19UuXLnNhMMPCIzUajcmkdubFZJTFhxgU0l5JkhweHj5z9pwLg+nKdD979pzJKDw1zj7ugG89LOPiZCFlfHBwcM/f3ugTl7a2NpS7Dx8q8Y5yPBDbnMx0FEVVV9csXLRk4aIl5eXlOp3O5B7Hs8xkA/TfmaQNcwEBIAAEZp0A6L+zngJwAAgAASAABICAMxEA/deZsmkay6zov9+k28TE5HnzF7gwmFv+2Prvv4/q6xvq6utLS0sDA4PfvHlLUVRTczMqE+z565pr167X1zdUVHzgcIzVNpevWFX6+HvlUJuqEEVRarU6JjYO1XL19eO8eFnW2NhYU1N7+fLl1NQ0pCNrtdqMjMx58xcwXN34AYI3b942NTXV1dc/efI0OjoGFw7G050+faa+vuHLly9Z2fvdPea7e8wPC48YolX8HB0djYmNwye81dc3oPPN0M7EkZGR6OiYAwdyXr58hZ6qqPiwa9ceFwZz3vwFN27cNMlTZmY2UkUt7g426Wz+sLe3l83m5uUdffHyZV19fVNTU2VlZXx8AsPVjenmYeJ5Y1PTKk9jaWAkX+6LidVqtdjmhPTfz1VVi8YOlPPy+hMhbWpqEolESHP/UFmJ9v/u2rXn48ePCOaChYuRQooUQJ1O9/jxE7TnNzt7v16vb29v3/LHtrEixV5fv341Ed0mCUqj0aDtou4e88+ePVdf31Ba+njLH1sRCrwDF8uaVvRfoVCI/Fy3bv3z58+rq2vS0jPmzV+ISh+YCLIYr8UGWnULFy15+PBflLu0tHR3j/nzFywKDAru6+ujKAp/gLFu3foXL8vq6usLCk4vXvKLxfoPIrEY3Vy/rl776FEpWpltbe1o17A9ebHop/lFDKqwsKipqam+vuHatevoI5z1GzY1NTd/28JPEIRIJDI5/S8wMBhdwasF33pYxjXRf0mS/OfkKY95xls4MzN77PXk8foNm9Aa+/ZlAjRwqqajKOpDZSVarskpqe/evUN3VlNTU2trq1wuN/9wwpzPlF8B/XfKkTqxQa1WKxZLpFIZ/nqHEwcLoUG6nXUNgP7rrJmFuIAAEAACQAAIzAoB0H9nBfsMTTor+i9FUXK5PDwiYs3adfPmL0R6H8PVbcHCxWM7givRN9xLSu5u2Lh50eIl9A7r128sKDiN36/aVIUQx/b2dn9+gKfnanyGmCvTfekvy2Pj4nEZAbncWGTA03M1PvXLlem+aPGSb/sH79wpQXbwdMgldIzVypWe/vyA9vZ2k5yVlb1a9/sGJHMj9RaLUGq1Oj4hccVKT+wPw9Vt3vyFv65eGxYeIZfLTUzdvXdv2fKVyIh51VSTzuYP+/sHOFzeL8tWIPERFSqdN3+h569r/Nic1tZW+hD6TuT5Cxa9LCujPzsh/XdoaCgqet8vy1YgFRL5j6VPpVIZHBK6eMkvCKab+7yVq37925uFJOP4+ESCID5//oz2b3pt/1MkEqGFcePmLSTqmbOaJCiKokofP167dh0Chdbkps1/eG3fMdH9vyRJlpSUrFnzGzLFdPNYsXIVz5+/YePmH9v/i5eQK9Md3Sn7YuLQMX1o/3hWVvYvy1YgmK5M92XLV/61c7en52rz6fR6/cFDh1es9MTrgV6oxGZe6OvBehvrv9h5tHd706YtJSV3kXaPZVzch97AqwXfeuPpv+hVJSAgcNHipQjC/AWLNm7aEhIahgyigVM4nUKhYLO5dG9Re/mKVQmJSc3NzVYqyVjn9sPPzl39V6PRikRiubz3h2N3kIFyea9QKEJ/JBIp/lWF3bPZAfec7kZNbR3XPzA0PEoskUz3XFbsj46OdnV1CUXfoTnyGtDr9RKJ1JE9tML5h9PtNPemCZwfyKbj3Lz0WED/pdOANhAAAkAACAABIDBJAqD/ThKgQw+fLf0XKVYvy8oio6J37d7jtX3Hnr/3JiUlV1Z+xG+Yjad+NTRkZGbt+Xsvrq356dNn+sa648fz0SltlZUfEWi1Wp2ckuq1fcdelk9rq7FGMPoZGRkpKbkbHBK246+dXtt3+Pj4ncjPl0ql/z1v/Bf1CQwK/nPHX6hPRmYW3SUsQm3estVr+44/d/wVGBR89eo1tImYbgople/LyyMio9CMJn729w9cKS7G/uzavScyKvrRo1KsR9Ot6fX6rOz9SF1KT8+kP2VPmyRJsVhcUHCazxeg0NB09+7ft+j5v48eIcWW5eOnUCjoU/T3DwgCg72278Bn4lEU1dratpfl47V9R3JKqon/AwMDJ0+e8vHxw4fp0fv09PQcOHAQLQAuj3/jxk2pVBoUHOK1fcfx4/lqtTo9PQNxph+oNTQ0FBsXb36doqhJgqIoymAwPH36jM8XoCWXnJz69WvLvfv36SuqpKQEhVNS8v2DAYqizJeiXq9/9KgUmfL141wuLFIqlVnZ+y2CokM2aWPLaFIfHz+TOwX1HxoaKig4jW4WHx+/M2fPyWSytLR0i9Op1erCoitcHh/nhZ5Q63kxcc/KQwwKz+LH5uTm5n392oI3buMbFvehN/BqwRCs3+lSqTQre/+u3Xt2/LUzPj6xvqGhurr6r792eW3fgQZO4XR9fX0ZGZnGcuSeq7HPm7dsRR9O/O3N6u+fllMKrQB3TP0X6UcmryQoCrm8t6urmyCI5uavHJ4gN++4lejmxFO5ece9WWz0Jzg0wvykSpsdpiRMjUYrlcqGh0esWLv/4CHLl+vH8f/06bOVbtP6lHZ0tKKicl9sAsuXi6A58hro6+sPDo2YqIf25GJaISPj1tNtxUmnuTdNIP9ANmfm5jXx0+ZD0H9tIoIOQAAIAAEgAASAgP0EQP+1n9Xc6zmL+u/cg0VRWP/FmxBnIApUNfXChYvoXLKHD/+d1kkNBsOV4mJUW/bevfvTOtfUGp9hUFPrPFibWwQIgjh77hzD1c3Nfd7Vq9ewnN3d3e3rayz8PX/Bos+fv5fVnrHQHFP/RfrR9Rumx1qSJHn4yNGklHS1Wu00GlNhUXF8Ykp8YgqPH2hR/7XZYUpWS319Q0hYVHn5ByvWhCJxRtaBo8fzFQqllW7T+lRNbR2PHxQQGBoXn4y4FRYVT+uMkzH+A4ohRVH25GIyXtk51nq6rTjpNPemCagfyObM3Lwmftp8CPqvTUTQAQgAASAABIAAELCfAOi/9rOaez1B/51QzmZe/5XJuurq669eveb56xp3j/n8gEBU73VCbtvf2WAwtLa2/vXXLhcGcy/Lp7d3znwde4ZB2Y8UejolAa1WGxgUPHbw45Lyig/oSwkEQSgUCnR9ydJltbV1Mxy7Y+q/ra1tXP/AoitXTWjodLqs/QdT0jI1Go3zaUy5ecct6r8Ygs0OuOcPNN69L/dmsd+9/9+RpD9gZAaGnD130cePd7vknvlBlDMw+0Sn+AHFkKKoOZELK046372J8v5j2URjp/XmneiyBP13osSgPxAAAkAACAABIGCFAOi/VuDM+adA/51QCmde/42PT8Slgf35AvMqwxPy30pnlUrV1NT0+XNVgCDQ5JA9K6Mc56kZA+U4IYMns0hAr9enp2e6Mt0Zrm7JKamfP1c1NTXV1NSePFWwcNESppsHP0CgVM70tkrH1H/lvb1BweHm35pXq9VJKemHjxwlSRJpTHlHT2i1WpmsSygUiURihUKJN1ajijojarVUKjNW1xWJurt7RkdH8Rr4r8qEEvcxt4A7W2kQBKFUKsUSCZqlp0eOSxIhH1QqlUQqRRV+pVKZSjVMdxJbtqkQjdeBJEkcgnmYyP54TqKSpkKh6O79B94s9t37D5CfQqEI1dlAw62XMbWHJEmSQyrVd0r/1TsWCkUWq3xgJuaN8SDYgxoVDzEYDIODg2KxMV8SqRTpyARBdHV1y+W9quFhkUgslki0Wq1SOSgSiaVSmU6nM/fE4hWSJNVqtey/8sQ1tXWCoFD6SjYYjB/5SCQW1oOdubBiwaJL9IsjI2qhUDQ0pKJfROh6euRSqQx9LmUl3fY4ac+9aeIA/aExF93dYrGEfrdSFKVSqYRCkT0vknZmkyRJ6/emzWzac+uh0KysW4qihsdWXW9vn8VXBjqcKWmD/jslGMEIEAACQAAIAAEggAiA/uvMKwH03wlld+b13+PH862XBp6Q/1Y6v3xZhuoLe8xbsO739fRD9qyMcpynZgyU44QMnswugcbGpp27dtOPVUQVWjw9V/v6sWtra2fePcfUf8f22UUeyT1GkqTBYJDJuvr7B1C99YSk1LyjJyiKQhrT0WMn3rx5FxEV481i+7L9z567SC9NMDSkKn3yNCQsypvFZvlyE5JSKyo+4H2jyMKFi5dxH3MLNjNiMBhEIvGFS4V8QTCaJS09q7NTiAaSJNnfP3DrdklwSAQqVhsSFnW75N7AgMJc6LGuEFEUNV4H62GiGuXjOYm2NOICxPQGqrOBArFextQekgMDAzdu3kaU6LOYV/kwZ47kPCRMZ2bnCIJCq2tq0UORSKzRaJGCaRN1bt7xhKTUjs7OwitXuf6B3ix2cGjE27fv9Xo9+mjhQM7he/cf+rL9+YLgiorKy4XFvmz/kLColpb/HQxg7h79yuDg4NOnz6P3xaHyxL5sf28Wm67/ymRdp8+eFwSF4fVwp+QeKrtsZy6sWKB7YrH9pbrGx49XWvrE5Fm0sz5qX7xSOYhWGs6RyZ50e5y05940cYD+cHR0NOfgEa5/YGNTM75OkuSDh49YvtzSx0/xxfEa9mTTnnvTZjZt3nrYw/FuXtTh6bPnvmz/Q4dzLZ6vgI1MVQP036kiCXaAABAAAkAACAABiqJA/3XmZQD674Sya34I1YSGO3LnysqP6ES10LDwd+/e0Q/Zc2S3wTcgMIsEpFIp/VjFHX/tDA4JKym5OzQ0NCteOab+q1QORu2Lyzl4xGAw9Pf3R0bFnjx1xmAwKJWD0fviz5w9j/Xf0PAoDk8QFR0Xn5ASEha514fz8OEjJK3qdLp79x/6cfiR0bHGQrEJySFhkTz/wIqKD6gDUqkEQaEcbkDUvrj4RFML9mREJpPFJ6b4sv2NPiSmxCUkh4ZH3br9/ZhHtVp99twFHz9eeOQ+7APLl3vu/CWTvY1W5F3shkUJyWaYFEVZcVKhUO7PORSfmBIWHu3NYoeFR6OiuvGJKfknC7BWbr2MqU2SBoPh4qUiHz9eRFRMfGJKbFwSkl/DI/c9fvIMBzheA8l5WJGkNzg8QXPzV4qi7EGdm3c8JCwqOTVTEBQWF58cl5DM4wcFh0bIurrQFMGhEUEhEVFj6m1sXFJgcFhkdOxeH455KRKLrup0uhs3b/uy/cMiouMTjOWJkSm6/nvz1p3AoLCYuES0HoJDInz8eGWvXlMUZWcurFiw6BX9okgsDggMQeEYDAapVIY+WRkeHo5PTEnP2K/VGsV0K+m2x0m0Hqzcm3SXLLYfP3nG8uXeuHmbIAjUQaPRZmXnfMMlFkssDqFftCebNheMzWzac+thryzevPjZUwVn9/pwQkIjRSIRvjh9DdB/p48tWAYCQAAIAAEg8BMSAP3XmZMO+q8zZxdiAwJA4Gci4Jj6L5Jv0P7Tmpparn9g1L74/v5+tPcQ7RhFGpOPHy/7wEGhUGQwGN6+fe/L9keqMUVRQpEoKCQiJTWjo7OTIAi9Xl9e8SEwODwrOwdpr9jCwUO5UqmUIAgTCzYXgsFguHCx0MePd/BQrlAoIghCp9N9rqqqqKhEYys/fvLj8JOS0+sbGv/zoTI0PDpAEIL3CONZrCtE4wnENsO06SRywEo5V+zheD7YJNnb2xcaHh0Wsa+1tRV96f70mfM+fry37+wqN6zRaPJPFiBhmscP9PHjxsSO6aeJKanG3dadFEXZgxrtYg6PjCktfaLRaEZHRwtOn/NmscsrPqAlt9eHcyT3eKdQFBQczvLlnr9wqbWtnR8QTBdw6TRM2q1t7QGCkJi4pNraOr1eT5KkUCgKDA6jD3/95t3jJ8+Ug8Zttnq9/uXLV34cft4x45Z2/GM9F/ZYwKZMGgMKRXjEvkOH8wiCkMt7Q8Oj0Scrff39IaGR+ScLTPpbWZNWnMTrYbx702QW84dyeW9kVGxSSvrw8DB6tr29I0AQcvLUafxJM6o6gsuV0CuW2JNNmwvGZjZt3nr0uKyQpCjqS3VNSlpm0ZWr5h8L0Y1MVRv036kiCXaAABAAAkAACAAB2P/r5GsA9F8nTzCEBwSAwE9DwDH1X41Gk5KWmZicNjIycut2yb7YxJDQyJqaWrm8Nygk/Padu3j/b3RMfG9vH0oXUodx1YKXZa9ZvtyH/z7CClFnpzAjc39wSIR87JhKpFJZsWBzFSgUiqjouKjouPHOvTx77qIv2/9LdQ3d1PUbt71Z7Jdlxi2f9B/rCtF42qvNMG06iXywIufZdNImyfaOTh4/aH/OYY1Wi2p6VFZ+9OPw8UZp+hTW2+NRsgd1bt5xPw6/4sNHPMWX6pr4xJQv1TVIMfQPCG5sakYLKTA4XCSWoDZdwMVjzRsld++zfLmvX7/FT5kPNxiI/v5+VH1YKBRV19SaFAi2ef6bPRawAyYNjUaTmp6Vlp6l1Wqrq2t4/KDosU9WZF1dgsDQOyXGO4v+Mx5t607aXA/0KSy2SZK8cKmQx/9eAgIVf2BzA+i3EpqFvhkc3/v2ZNPmgrGZTZu3Hj00KyTp3WamDfrvzHCGWYAAEAACQAAI/CQEYP+vMyca9F9nzi7EBgSAwM9EwDH1X5IkDx85GhufpFAoDh7OK7l7Pyk57eatOyKxmC8Ief3GqK8h9YcuzJnov9dv3KJrQ7j9rQRtp9BYn9emBZsLQSKVBghC6D6YDLEo+nz6XMXy5ZrXvbXYmW7QYgebYdp0Ek0xef2XzsEkF8rBwbj4JEFQ6KvXbzs7hfUNDRmZ+33ZvHf27f+1CWE8cdwEtUWAyDhSDJGASHfeXMClO2PSPnvuIq5HgZ4yGW4wGNrbO48ey+fxg/CCNCkQbF1atdOCiWP0h8dPnIyNTxoaGrp560565v7IqNjq6pqGhkYOT1Dx4fu+ddzfCjErC2bydxZFUdU1tWxuACoBgYo/xCcko33TyL3Ozs7U9CxcroRescSebFoMjb5gbGbT5q2HMY63PukdZrIN+u9M0oa5gAAQAAJAAAg4PQHQf505xaD/OnN2ITYgAAR+JgKOqf9SFJV39ERwaERjY1NsfFJra9vFS4XpGdnVNbUcnuB9eYU96u2t2yXeLDYqOEsXiTKy9ktlMnss2FwIqJoqrjhh3j/v6AlBUKhUapwO/ZAk+ebde5Yv9979h/9d+/6vRUGK3sdiB5th2nQSTYHkvFe0vav0qXHbog829T693nD23EUfPy46Fc2bxebxg3IOHhkcnHDZa4sOoAVjE/V4Y1H54KSU9Enqv/knC9jcgIaGRoxLIpHSt/f29fXHxSf7cfj7YhLQmoyJTfTx49Klc6z/WsyFnRawA+aN23fuBgaHicTirOycp8+eZ2XnFF+98aHyoz8/6OvXFpP+VohZWTA214PJLBYfqtXqtPRsVAKivb0jMCjs1m3T7ckWB9qZTZv3ps1s2rz16O5ZIUnvNjNt0H9nhjPMAgSAABAAAkDgJyEA+q8zJxr0X2fOLsQGBIDAz0TAYfXfM2fPBwaH3b33ICEpdXBwqPLjJ0FQ2L+PSv0Dgqu+VNuj3r5+/daP7V9W9lqtVqMD30wSO3mVSqFURkXHRUTFtLW1j47q0C9H1fDw0JAKzXXpciHLl1v6+KlGY6x7QJKkcnDwxD+n/Dj82rp6E39sKkQWO9gM06aTyI3yig/eLPa16zd1Op2JY/SHFn2wSbKrqzs0PMp4wljm/viE5OTUjOLi60qlkm7ZzrZFByiKsgf1eGPtVAxteogqBjx/UabXGwiCGFAo7pTcY/n+T96t/Phprw8nJTWzp6eHJEmtVvu1pZUuEKMprOTCTgtWXH377j2HJ3jxsiw+IUUikdy99yA5Jf3hv6WBQWGyri6TgVaIWXHS5nowmWW8h/cf/OsfENTY1Pzw4aOgkHCRSDxeT5Pr9uz/tblgbGbT5q1H98oKSYqihoeHRSJxb2+fxVcqup0paYP+OyUYwQgQAAJAAAgAASCACID+68wrAb2JJcZ+DAaDXq/X6XSjo6NarVaj0ajV6uHhYZXq+7tfZwYBsQEBIAAE5jgBh9V/r9+4xeYGRETGnDp1hiTJ7p6ekLCozOwcQVBYc/NXe/RfiUQSGRUTHrHv2bMXbe0duAqwXN6LkjZ5lcpgQNtaeUnJaZWVnzo7hW3tHSV375eWPkFT1NbV8QUhgUFhZa/edHR0trV3XCm+5sfhp2Vkoa2ver1eIpEi38aiC62uqaWfZGWzg80wbTqJXG1sbObyBJFRsR8/fUb+dHV1EwSBjimz7qRNkpUfP/n48a4UX6+prcO5kEikKpVqooLXeDqaTdTWv4Nvj2Jo816vq2/g+gvGzn+rb/7aUnD6LI8f6Mv2x9t7Kz9+YvlyM7MPNH9t6ejofPvufWb2gb0+HNzBZi7stGDF1bq6Bg5PcDj3aFZ2jkajaWxsDg6JSMvIjtoXr1R+P5XOerptOmlzPVhxj/6UWCwJDom4evXGgZzDhw/n2X82mj3ZtLlgbGbT5q1n8+bFwT599tyX7X/ocO7IyAi+OH0N0H+njy1YBgJAAAgAASDwExIA/deZkw76rzNnF2IDAkDgZyLgsPrvnZK73iw2y5eDTtPS6XSHDud5s9hc/8DW1jZ79F+SJB8/eRoaHu3L5lmstTolKlVvb1/2/oM8ftBeHw6ahccP+vdRKVpEer3+SvG1b1sXcd0DDjcgNj7pc1UV6oDqw9LdQ218kpXNDjbDpCjKupPIk8HBof0HDnG4AdgZ+32wSbK1rS0wOGwsoVxsX2D8Rn/J0AQ/LR5P/7WJegb0X41GcyL/JIdnZLjXhxMgCDnxz6l9sQlY3u3q6k5ISsML0o/Dj4iKYXMDcAebubDTArJj8e+xeiCh3iz21Ws3KIoaGhqKjU/e68NJS8/WarUURdlccjadtLkeLDpmftFgMOT/cyo8Yl9QcPj798aqL3b+2KP/2lwwNrNp89azkyRFUacKzu714YSERopEIjtjnEw30H8nQw/GAgEgAASAABAAAiYEQP81AeJUD0H/dap0QjBAAAj8xAQcVv/9Ul0Tn5iCa/VSFPXq9dv4xJT9OYcUCmPdAHT6U2FRMc6eQqHcn3Mo/2SBRqNBFwmCqPz4+XDu0YSkVFwCGA+xxwI2bqXR399fXHw9bewoKvPKBqOjoy9evsrefzA+MSUpOf30mXNSqRRbQz5j33ADR2GzA0VR1sNEc1l3EvXp6uo+feZcUnI64SeDXwAAIABJREFUcsN+H2ySHBhQZO8/GBoelZF1IDk1A9kPDonY68N5/OQppmFPo7CoGK8Bk/7WUVMUZWWsRqPJP1mAQqYvJNTGa8ZkRvOH/QMDZ86eT0hKTUnLLLl7X6lU5p8soA9vav6KFmRScnr+PwUNjU35+f+vA7I5Xi4oirLTgrlv6MrQ0NChI0cTk9MaGpvQlW9nrMUnpmAn7Vly1p20uR7G8838emXlx4Sk1P05hwcGFObPjnfFzmzaXDA2s2n91rOf5JfqmpS0zKIrV+3f4zxe7PZcB/3XHkrQBwgAASAABIAAELCTAOi/doKak91A/52TaQOngQAQAAJmBBxW/zXzFC7MYQK3bt1h+XKfPH1uMBgoiiJJcnR0FB2fdbLgzBwODFwHAnOQAOi/czBp4DIQAAJAAAgAAcclAPqv4+Zm8p6B/jt5hmABCAABIOAIBED/dYQsOL0PJ/JP7fXhXLp8pflri1Ao6uwUVtfUZGTu9+PwX5a9cvrwIUAg4FAEQP91qHSAM0AACAABIAAE5joB0H/negat+Q/6rzU68BwQAAJAYO4QAP137uRqDnv69OnzsULM/rj4r48fLzAo7OixfDgtdg7nFVyfmwRA/52beQOvgQAQAAJAAAg4KAHQfx00MVPiFui/U4IRjAABIAAEZp0A6L+znoKfwQFUJvVI7jFUXBhVdH385Jlarf4ZwocYgYBDEQD916HSAc4AASAABIAAEJjrBED/nesZtOY/6L/W6MBzQAAIAIG5QwD037mTK/AUCAABIDAFBED/nQKIYAIIAAEgAASAABD4jwDov/+RcMZ/Qf91xqxCTEAACPyMBED//RmzDjEDASDwExMA/fcnTj6EDgSAABAAAkBg6gmA/jv1TB3HIui/jpML8AQIAAEgMBkCoP9Ohh6MBQJAAAjMOQKg/865lIHDQAAIAAEgAAQcmQDov46cncn6BvrvZAnCeCAABICAYxAA/dcx8mDbC61WKxZLpFKZXq+33Rt6AAEgAATGIQD67zhg4DIQAAJAAAgAASDwIwRA//0RanNlDOi/cyVT4CcQAAJAwDoB0H+t8yFJUqFQisUSoVAklkhUKhVJkvQhcnmvUChCfyQS6fSJszW1dVz/wNDwKLFEQncA2lNIwGa6p3Au5zYFJB05v6D/OnJ2wDcgAASAABAAAnOOAOi/cy5lE3AY9N8JwIKuQAAIAAEHJuDI+i9dWsUaq0KhmEmcfX19Z89d5PIE3iw2XxB863bJ8PAI3YHcvOPeLDb6Exwa0dfXT38WtTUarVQqMxlo3s36lfsPHrJ8uX4c/0+fPlvvOU3PTj6KyVuYptCwWZvpxj2ntTF5UJO3YDNA61M4DUmbHOZiB9B/52LWwGcgAASAABAAAg5LAPRfh03NFDgG+u8UQAQTQAAIAAEHIODI+i9dWsUa6/Ubt2YMm8FguHS5iOXLjYyOjU9MCQoJZ/lyX795R3egsKg4PjElPjGFxw8cT/+tr28ICYsqL/9AHzjRtlAkzsg6cPR4vkKhnOjYKek/+Sgmb2FKAhnPiD3pHm/s1F6fPKjJW7AZkZUpnImkTQ5zsQPov3Mxa+AzEAACQAAIAAGHJQD6r8OmZgocA/13CiCCCSAABICAAxBwcP3Xx48bE5uIBFb09+Mnz2YMm1I5GL0vPiQsqqNTSBDEo9InLF/uxUtFFh3IzTs+nv777n25N4v97n25xYFz5eLko5i8hWllNaF0T6snkwc1eQs2A7QyhTORtMlhLnYA/XcuZg18BgJAAAgAASDgsARA/3XY1EyBY6D/TgFEMAEEgAAQcAACDq7/jqeoInIkSapUKolUiqpDSKUylWqYXp9XLu/t6uo2GAyDg4Oohq9EKtVoNHaCHxhQhEdEZ2bnaLVagiAqP37i8AQld+9bHG6u/+r1eonE6Nvd+w+8Wey79x/gKhZdXd0EQdDtDA8Pi0Ti3t4+uv+oA70OhnmJYY1GKxKJFQrliFotlcqEQhF6iO3810GhttpBLu/F/iDPkZMTigJboDdsWiAIoqu7WyyWjI6O0geqVCqhUKRUGvc724yCoiiSJDEEoUjU3d1jYpBu3LxtT7pJklSr1TJZF0qlWCyRSKW9vX3IGnJyPJKoj5VFaxMU3WeLC8ZOC9ZBDQ4OCoUiubwXLyGDwdDV1SUSiTUajT1TOAFJOmrna4P+63w5hYiAABAAAkAACMwiAdB/ZxH+tE8N+u+0I4YJgAAQAAIzQmDu6r8kSfb3D9y6XRIcEoGqQ4SERd0uuTcwoMC6VW7e8YSk1I7OzsIrV7n+gd4sdnBoxNu37+08pU2n0+XmHQ8KDq+prW1raz9w8HBsXFJnp9BiZsz1376+/uDQ777h+hWokZSSrlar6XaePnvuy/Y/dDh3ZOT/1RemKIpeB8NcEG9u/srhCS5cvFz65GlIWJQ3i+3L9j977iIuE4E7PHn6nN6hr++7aok65OYdx/4gz5GTE4oCW6A3bFoYHR09eCiX6x/Y2NSEB5Ik+eDhIx8/HtrxbTMKiqKGhlQYAsuXm5CUWlHxwX653550KxSKp0+fRUbHojzy+EHBIRHHT5xEblsniRRqK4vWJigMh6IoiwvGTgvWQb169do/ICh7/0HFmPJOkqRUJtsXkxAWsa+tvcOeKZyAJB2187VB/3W+nEJEQAAIAAEgAARmkQDov7MIf9qnBv132hHPkQmGh4eFQtHw8PAc8RfcBAJAwJSAg+u/gqDQ6ppavG12bAeiFsWgVqvPnrvg48cLj9xnLA2RkBwSFsny5Z47fwnv+szNOx4SFpWcmikICouLT45LSDYKdqERsq4uUxDjPK78+JnNDYiMjg0OjUxNy6qtrRuno1GlNRFnFQrl/pxD8YkpYeHR3ix2WHg0LmSRf7LARJc8VXB2rw8nJDRSJBKZTGG9xDDSHAVBoRxuQNS+uPjElJCwyL0+nIcPHyEdHHUIDYvCHcIj9rF8uZcuFxkMBoqirKuWE4rCxHP00B4Lz1+8ZPlyi69ex9uiNRpNZlZOZFQs2k5rMwqdTnfv/kM/Dh8Va0brgecfWFHxAXFAv7DwWsIN+qKynm6dTofqQYdFRMcnJMcnpkRFx7F8uVg6t06Soijri9YeUJiwxQVjjwWboPR6/YWLhX4cfsndezqdTq1Wnz5znucf+PjxU5Ik7ZmCoqi5ThJzdsoG6L9OmVYICggAASAABIDAbBEA/Xe2yM/EvHNd/1UqlUKhqLfPwtdsZwKfE81hpfzf3IrS+OXWsW8fazTfpaXp8F+n03V39+h0uukwbo/NmQnTHk9+oI9Op+vpkc8ivR/weU4McXD912TbLIcnaG7+isBWfvzkx+EnJafXNzQSBKHX68srKkPDowMEIXiLLto5Gx4ZU1r6RKPRjI6OFpw+581il1fYdRSbTqerqa0Li4j28eOmpmUODCgoilKpLH/uZa7/4gVgz0vll+qalLTMoitXsXiNh+OGxSmQ5ujjxzt4KFcqlRIE8fbte1+2f87BI3R514/DP3LkmFgsIQiirr4hJDQyMiq2v3/Apv6LZ7cnCtzZYsOKBbm8NzIqNiExZWhoCI1ta2/nBwRfKrxCV7GtRCEUiYJCIlJSMzo6O/9bDx8Cg8OzsnMQUjS7yYryZrHxorKZ7vb2jgBBSExcYm1tnV6vJ0myvb2DLwixX/+1Z9FSFGUFFAZrfcFYsWATFEVRvb19qelZQcHh9fUNb9+95/GDzpw5b7Jr3soUzkQSA3emBui/zpRNiAUIAAEgAASAwKwTAP131lMwjQ7Maf2XIIiiK1f3+nCO5B2z8jbbIj5cf9Disz/hRStv/+YWjW9fGE9ISuX6B1Z9qZ4mzw0GQ11dfVp6lkxm78bDKfdkBsKccp+xQalUlpG5v7q6FiRgzGRKGg6u/5qc/5aantXZ2YkCP3vuoi/b/0t1DZ3D9Ru3vVnsl2Wv0cXcvON+HH7Fh4+4z5fqmvjEFJNR+Fl6gyTJhobG0PCopJT01PQsf37QmzfvdDrd02cvLCrIFsVZZHCqXiotToH03+iYeFyFFn1DH5eYQB1SUjNxxQmSJE/kn+LwBF9bWh1E/yVJ8lLhFTY34MvYizBBEHfvPuALQlpa2xBDm1G8LHvN8uU+/PcR3tjb2SnMyNwfHBIh7zWWNkapx1uwcQMtKnvS/e+/j1m+3LJXb/A6Qajt13/tWbR26r/YB4sNK0vOJihksL6hMTgkIjk1Iyo6LiUtE68uPN14UzgZSRyvMzVA/3WmbEIsQAAIAAEgAARmnQDov7Oegml0YLb0X4IglEqlWCIxvrub+NEuiIhGo8naf9CbxY6OiVcojJu57P9B7z+v37hl/xDzngYD0d/fj04iQlFoNBpcrRL1VyiVMlmXyV4bc1OTuTIlU4z39s+KY/icH632/53zQ1GUTqeTSCRd3abHIlmxNlVPtbe3BwSGsny59+4/nCqbdDskSYpEoviElPTM/T09PfSnZrI93WFOayxSmSwtPTskLLKxsdnkfpnWeZ3euIPrvyYVFejpsCiGfvpcxfLl4ldpi33oRqy0tVptVnZOVHRcb29vZ6cwJjYxODSiurrWqJxyAxoa/lepFhmxMtcPvFRadMziFOgXE5YgKYqyqP/SO1AUdf3GLbzv1aYF5Mzko7Bu4WtLqz8/6OKlQoPBoFINJ6WkHz6chz+mNXfSJIrrN26Z7+31ZrH5guBOoeWSzXTI9qT77LmLGBoaO1H912IGTRbtdOu/doIiCKKwqNibxWb5cl+/eUdnZX09OBlJ88Cd4Arov06QRAgBCAABIAAEgIDjEAD913FyMfWezIr+azAYhCLRhUuF397LoTckCUmplZWfTEoo2hPt8+cvE5PTSkruo+/G2jME9Zm8/qvT6Vpa244ey+fxg3AUr968NdnSWHz1+r7YhL6+fvt9m2jPKZnC+pt5iy6Njo7mHDzC5Qnq6xtMOnR0CgMEITkHj+A3/CYdpu+hWq0uOH0uI+tAx39bC6d2LqVSeSDnSGRUbHt7x9RanpC16Q5zQs78QOf29o6IyJgDOYfRqUQ/YAGGmBOYu/pv3tETgqBQqVSGgyJJ8s279/QPcizKbbi/9UZXd7cgMPRI7jH0ecOnz1WBweFBIeFcniBqXzyqBUG3YGUu9FL56vVbev8faFucwlwYtan/EgRx6XIRlydoGWf/r1QqCwwOwzuIkauTj8K6BbVanZ6xf4ztQH19Q0BgyPv3FZiSeZgmUdy6XeLNYkdExeCNvaiRkbVfKjMuEuv1f+1Jd/7JArZR+m/EXkkkUkFQKNbWzZ00IWnPosX672QWjBXUNkGh6JRKZc7BI4LAUC5PcOPmHfP/a403hZORxLl2pgbov86UTYgFCAABIAAEgMCsEwD9d9ZTMI0OzIr+K5PJYuOSfNn+6HybmLhErn8glyd4974cHxczjTGPmZ68/tvU1BwUEu4fEBQTl4jemkbti4vaF2ci9Vp8kz+10U3JFOjt37v35RPy7VHpk70+nOKrN+iJI0nyydPnLF9u6eOnE7Lm+J0NBsODh484PIHzhTbD8EmSfPDwkR+Hf+/+g4l+eDPDrs6h6eau/nvpciF6xdBotOi3knJw8MQ/p/w4/Nq6epSCybzQtXd0+gcEZ2QeGBoaIknSYDBcvFyEdpieO3/RfBO6lbnKKz54s9jXrt80+aiPvk7UarVILJFIpFrtuFXILU5hrjla1H8P5x5DL7kGg0Eqk8UnJIeFR/fI5RRFtba2cf0D9+cc1mqNJIeGVA8e/OvL9jfRf+2Jgh6RedumhcdPnnF4gvKKD1eKr8cnJCsHB7ERFKaVKF6/fuvH9i8re61Wq82zg0VV8z3CaEuvPekuuXuf5ct9+uy5Xm8gCGJAobhTco9+/ptNkvYsWoqibIJCR8lZWTBWLNgERVGUVqstuXvfnx90/8G/J/JP+fOD3r8vN3nVHW8KJyOJV6AzNUD/daZsQixAAAgAASAABGadAOi/s56CaXRg5vVfvV5//sJlli/3QM4RsVhCkqRycPDCxcu+bP/Y+CS0GVChUAiFouHhYRw52uyDizzo9XqJRIorA6IjxXFn3NDp9PLeXpFILBSKxGKJQqHE7yRN9F+SJHt7e4VCkby3ly5lYlPmjX9OFuz14Vy6XITe1hIEIZZIrt+4hR7i3UmZ2Tkmp97jKCiKGh0dlct7RWKjhyKRuLu7h75hFoWpUCgMBoPRPZFIKBT1yOXonZudU5h7bvHKj+m/6MCcpJR0erJ0Ot2BnCOBQWEikZiiKJvZpCiKIAiFQokqaYjFkv7+foOBsOinxYsYBV4SJusHTUEvOTJ2/pjeojUrF/v6+qKi49IyslQqFb2bVjsqFku6u3voi4ckyR65XCyWoPoYk+cwM2HSq5pMdE0iJgYD0dfXj+47nBGRSGxyIt/g4FBySnpUdFxfXx8dJrR/mMDc1X9r6+r4gpDAoLCyV286Ojrb2juuFF/z4/DTMrIGB7+fIWZRMLWT1beDyBKT01i+3Bs3b3d0dDZ/bTmef2qvD2evD+f27RK0HZL+a4X+ut3V9f/q2DQ2NnN5gsio2I+fPqPlbdKBoqiPHz9xeILAoLBPn6roHtqcwk79NyUtq/lri1Aoqm9oyDmY68v2P3vuIvq9oFAoIqJiBEGhr9++6+jovH7jNocn2OvDMdF/7YmC7rl526YFubw3IjImM+tATGzizVsldAsoTCtRSCSSyKiY8Ih9z569aGvvwC8j+He99fq/9qS7rr6BwxPExCXV1tY3f20pOH2WwwvwZfPw/l+bJO1ZtBRF2QRlZcEgaFYs2ARlMBgqKip5/oG5eSfUanVnpzAiMiY2LkkkEuP/Dllx0slI0heh07RB/3WaVEIgQAAIAAEgAAQcgQDov46QhenyYeb1367unpCwyJDQSLFEiqNSqVQpaZm+bH90ZhcqaUffi4rUSVwIEm2Jwnt/8Bs2bJCiKI1GW11du//AIV+2vzeLzeUJzl24hGVKuv5LkqRc3nsg5zCPH1RUbO3Edrr9o8fyfdn+Hz5UWlQqkcPYQ3oDR0EQRNWX6qzsg2wu35vF9mX7JySlffpcpdcb0EQozMKi4ubmlgMHD7N8ud4sdnpGdmenkCRJe6agO2y9/WP6r7EEc3YO1z+w+etXbF8ilQmCwnDxB5vZJElSKpWdOXuByxOgTB09lt/e3mmyQQnbN29YREFfP8YpZDJ6yZG09Kympv/5bG7T4pWyV699/Hjmm39FInFgkPEb1niBoRWYlZ2DdfDJc5iBMA0GQ3t759Fj+SgXaE3Sa7NYX5NIZ2/v6Dycewzdd3jlm5TaRHhLHz/18eOVvfp+wJdF5nDRfgJzV//V6/VXiq8FhYSjVzlvFpvDDYiNT/pc9T/9dDL6L0VRT58+Dw2PotuP2hcXFhHN5QnQWXAmv1bw0jVRTgcHh/YfOMThBozXgaKo0sdPfPx43ix23rET9PTZnMJO/RdPvdeHw+MHZe8/iE/0MhgM585f4vobX0uNL6f+gckpGUEhET8QBd1z87ZNDiRJnj5zfq8PRxAUalItB4VpJQqSJB8/eRoaHu3LNmLEfyz+rjf3zZ50azSao8f/Qb98jZWFA4JzDh0Jj9yHp7BJ0p5FS1GUTVBWFgwKzYoF66DGqtWLY+OSwiKi28YKFpEk+e+/pX4c/sFDRwZpO7KtTGHzxplDJC0ulbl+EfTfuZ5B8B8IAAEgAASAgEMRAP3XodIxxc7MvP5bVVXt68fLzTtmou7dvHXHm8VGZ3bZVMoUCuX+nEPxiSkxsYk+flz8hg3TIQjiffkHHj8I12eIiUsMj9zX3Pxd8sP6L0mSfX19+f8U8AOCi4uv239Q2/Ubt3zZ/hmZ+5u/tqAtunh2+unkPH6gyan3j588Qz3VanVaRnZoeHRcQnJ8YkpsXBLXPzA0PKqrqxt1QGJBalpWaHhUeOS++MSU6Jh4Hz/ekbzjOr0eb4CyMgXdJevtH9N/KYq6d//hXh/OvXsP8WYiE5HUZjbHKuoe5voHokoasXFJ/gFBsfHJ8rGvM1t3Gz2LUaBCHIFBYd4sNl3/HR0dPXzkKIdnVJTiE1PiEpJDw6OOHf/HHuO4D0EQx0/8ExgcJpZI8EXUMNo/nMfjBzY2NeOn2ts7AgQh+NSjyXOYgTClUmlsXBKHJ9gXk4DWpH9AEJcnqKj4gPJrfU1SFDUwMBCXkMzhBaBsRkXH+fjxfNm8pOT0TrOKzGKJRBAUevzEP/R90xggNCZKwJH138Ki4v05hxQK5XhBjY6Ovnj5Knv/wfjElKTk9NNnzkml//uMkKIomxbGs4yuEwTxobKSbr+js/PT56qk5PSDh3J7e/vwrxWTmrP5JwtM6qV2dXWfPnMuKTkd9TTpQJJkd09PRFSMN4v9z8kCulc2p+js7ExNzyosKsaj0BA8BfrNxeMHoqnT0rOKi6/39/+/+vJKpfLCxcsJSalJyekXLxXK5b3nL1zGFrBl61HgblYaNi28L6/Y68PBr4HYlD1REARR+fHz4dyjCUmpOCN0MtiaxYbNdFMU1T8w8M/JgoSk1OTUjJu3SsRiSXBoBP2/EzZJ2ly0yDfroKwsGByaFQtWQBkMhmvXb8QnppSWPsG/oNVqdX5+QVJy+qfP//twhaKo8aZwMpIYqdM0QP91mlRCIEAACAABIAAEHIEA6L+OkIXp8mHm9d+XZa+9WWy8BxYHhvRHdN2mUoZHITWK/oYNPaVQKGLiEv0Dgq5eu4kKMigHB589f4GVO/T+89r1mwMKxZmz5/kBwVev3bBf/EVvHXPzjgeFhPP4QafPnm9oaLRYUsDKnjWNRnPj1p2qqmpUR1KlUp08ddqbxS6v+ICiQNH5+PHSM/fXNzQSBNHd0xMVHRcSGtlHe8NvZQoMymbjh/VfVAIiPSMbfbvfYDAcPXYCb3pFp7qbqLH0XJMkWfr4qR+Hf/7CZZQplUpVdOWajx/v4b+lNt222MF8/YyRjExJzejr7ydJUqfTfa6qevDwkcXh410cHh6OT0xJTs1Qq9Xmfd6/r/Bl+9+4eRtJmai+rS/bH596ZO7VJDmYG5xkmAaD4fSZ8z5+vFMFZ9H3rFUqVfHV62wOPys7B1UmsbkmkeKTd/TE4KCx0KpQKIqLTw6LiMZf3KajU6lU8Qkp8Ykp9H3T9A7QnhABR9Z/JxTI3O2s0WiFIlFl5afIqFgOT/D6zZupjQX95jL/lTe1s0zeGkmSg4ND12/cZnMDysu//0bDZh0zCvTiNsNs/4+983BLY/n6+L+qiHQEEcSGBXuLscQSjb23xMQ0S3pMMWrUmGhsVAtFQAygLLtvcPLOby9lIWqsJ0+e+wy7M2fO+ZyBXL7MnvnXCwYzP88GkDxP2qD/nidtmAsIAAEgAASAwLUnAPrvdU7x+eu/6LjqYP33/dQHrAsHC1t0pYyej3BfM2Znv7Lj+Y1NLeEkXfT9s7W9s6W1XfD34i/yAe39KSgqVSjTODxhbn7R/PxiQJFTZnH28PBwZ2cXV0p9OPqYLpWi6FLSVPjZ3pCb4JinoONiaJ9Y/0UlIETixE2NlqKoHX99DyUu/hBR/yUI4lZFlVSmWFj8hos8fp1fEIkTb1f9OeOIwe2Qt4LXz/7+fl5BsViS9HxsQqfTW63Ww8OjkGMZLqJ0VNyuxhup6J3tDkdaRhYuAeF2e4qKy9IyspCo/S84nHmYdrsjJVWVmp6JfUYHE+WoCxKkSTs7uxRFRVyTj47X8PjEJEEQJEl6PJ7Wtg4eX7y6ukbHhdoEQZSV35bKFAGnJgb3hCvREAD9NxpK/7QP+peFzeEnypIbGu+F/K3oNA5cTuWUHhGqcYwrOFfcrg6GcDmjCPe/E/Tozrz9rxfMmTscjUEgGQ2ls+oD+u9ZkQQ7QAAIAAEgAASAAEVRoP9e52Vw/vrvy5evY1icru7eABFtYvJlDIszfN9/SkywsPW3+u/4+CRdSA1OIfrSla3O4wkSCovL7PawTyUHjw244vP5VtfWau74KwPwhZLP01/ooTGIs263+9Onz5nZeQGVUnHhgii/RDFMEeAqw8sT678URT189Dg2jjs+8YIkyXfvPwRUyGXOpsvlylbn4/KO9EZBYQn9NDwG5wNuBc9IUdTC4mJObkFiUrJYklRdUzc9PWM2W+iZCjAS/BKlI5z+S5JkR1ePQCRBJSA2NjbFCbKOrh48RbBX9FV9Ag7BBk8ZZrj1drfxHq7eG64PxjW/sMDhiXLzipa+f9dotG/fvU+QJCmS03ZDVfMgSfJ2ZQ3ov5jeKRug/54S4OmHazSa/IKSisrqDx8/nezji9mHy6mc0n1GHxExLE48V5iVnRdQ+Rf1vJxRRPxwo4d5Vu1/vWDOys+/sgMk/wrXKTuD/ntKgDAcCAABIAAEgAAQoBMA/ZdO47q1z1//nZmdY7F5RcXl9O/GXq+3vqGJxea+ffs+WP8lSfLFy1d4dzA9B+G+Zjx7Ph7D4rx89Rqrb/RRFEWh75/tHV01dxp4goSHj0YDKjwG9I/40ufzjT5+GhfPLy2rQPUc0BBUI2J31xRsYXr6C48vFiXIMlT++r+qLHWSPIUuW4eLLsAUwxQBPRlenkb//bm6JhBKyspvezyehrv36MUfImbT7XarcwvYHAGqzIvrPKqy1E33WugkGZwPuBVSGD0+kM398dN0VXVduiqbxxeX36p0Op0BYxleWq17SYqUwqKycF6trq0JRFJUAuLxk2dCceLq2jo2GOBVwKo+AYcAg3git/uEYR6vt+TSsgr6rnmCIGru1AlE0o1NDd7/y/CI9O+91anpmfgnDRabJ0mUDw09CPlOJAiitPx2kiLFat3D/kPjxARA/z0xuqsyMLhA8GXzHBUszs7Jr6tvDKjgjF29nFEgz6MvMYzDgUYAASAZAOSfvgT995/iBeNAAAgAASATpw+nAAAgAElEQVQABG4aAdB/r3PGz1//NW5tJSYlC0TS+fkFpKMdHR39XF2VyhQyudK4tUVR1IORhzEszvEj5D6C8O3s7N6uqvkr/Xd27mtcPL+2/u7v06jQQXMEQdjsdo/Hg9KJ9N+BwWGz2VJaViEUSd+8fRdQuoEh8V6vd9dk+vXrFy726vV6l1d+CsXS3PwiupRcc6eeJ0j4trQUfMJVfUNjbBy3u7ff7Xb7fL6Dg4Onz8ZOoP8yTMEQQsCt0+i/LpcrN69IKlMsLf1IVqbTiz9EzCZBEFXVdxTJaRqN9ujoKKRKiFz1+Xy7JpNWqzNbIuzbDRZGPR6P2WLxeDzIvt1uLyu/zY7nf/26EMCB4aXb7c4rKFamZOzthRYr3W53cWl5tjp/b2+vqLjsH3HAHp44zHAkHY79dFWOVKZYXVtDEjBBEJubmwplWoYqx+HYj0b/ff3mLZcnKi2tyDo+tam4pPzlqzd0QRn7T1GU47hoxm+q9LcMvQO0/4oA6L9/hQs6AwEgAASuOgHQf696BsF/IAAEgAAQAAKXigDov5cqHWfszPnrv8dnTLXExnFT0zK/zMxqtbovM7PZOXlx8fz2zm6k1X75MsNi83LzipaXfy4v/ywrr4yL59P134ODA1Qrdn5hUSyRFRaXoZc2mw0BMpnMmVm5cf4SwM3LyytarW7p+/fWts619T/7MbH+S1GU2WzJLywRiKTvpz6E29oZwN1itRYVlz15+mzl56pWq9NotPMLC2XllWwOv62tky5i9vUPxrA4NbX1qKdWq8NOIv23f2B4c1Oztrb+8OGoXJF6Av2XYYoAtxlenkb/pShqaPgBi82rq2/i8ETPxyboE0XM5uSLV1y+uLSsYmZ2VqPR4irAAWeC2e32gsLS2Dju7aoarOPTJ8LtYGH05+rardvV795PrW9sarW6tbX1+oZGNkcw93Uej4qm0dHZxeOLl5a+h+s8Nj4pFEtfvnotSVSMjU/Su50VB2zzxGGGI0mSZHev/+S9gsISVI556fv3wuIyNkfQ1z+IVnXEPem19XfFEtmbN++Wlvz1H/zZ1Om2t7fp+/1xCD+Wl/nChI7OLnwFGqchAPrvaejBWCAABIDAlSMA+u+VSxk4DASAABAAAkDgMhMA/fcyZ+e0vp2//ktRlEajzc7J4/JEuNgrXygpLi3Hp5yZTOYcdT7SfGPjuAnSpLyCYnY8H58ah8RKPBw3cAeKomZm55SpGfFcIbrLYvPkyWmbx8+w4/oPuP/GxmZaepZUpphfWIxGArbZ7HkFxXyhJDaOi+0LxdKi4rLt7R16Vpa+/5Anp6FYUE886bv3U5JEObIQG8cViKRyRSqLzfvb+r8MU9A9YW6fUv/9ubqGaAQUf6AoKmI2XS5XXX2jUJzIYvNwKuk6OPJ8Y2MzQZoUw+IoUzP29v4I/SGDQsLoh4+f8N3NTY0yVcXm+H9FiGFxWGyeUJxYXlGJ9rTibhEb8wuLHJ6oq6fP6yVCdjaZTHJFalZ2nkKZbjKZ6X3OigO2eeIwGUiazZbiknK+UIJAxcZxESj83oyo/z4YGUWrHWeTxealpmfOzMwGvLMIguju6efwRPMLizgoaJyGAOi/p6EHY4EAEAACV44A6L9XLmXgMBAAAkAACACBy0wA9N/LnJ3T+nYh+i9FUdvbO033WhTKNL+cl5LR2zsQcALb8srPWxVVqix1fkHJ+MQLg9FYVFyGN1R+nV+gF4rFbdyBoiiSJFdWftbWNWTn5Kuy1AHPoaP6g/T+M7Nz2Tn5FZXVWOpigEuSpNFo7O7pyy8sUWWpM7Nzi0vK7z8YsdkCz5EjSXJmdu7WrarM48fhVVlqPKnX652YfJFf4LeQl180MDg8P7+Ym1/0df5PUYIoi+gxTMEQQsCtU+q/BwcHVdV1qix1Y2Nz8E5P5mxSFOVyuUZGRguLy3AqVVlqzAG56na7Ozq7s3LyBgaHw9UTQD37B4ZYbB59b6/P55v+MltRWY2yUFhcNjIyGnwqfQCT4Jcul6uouFwmV2q1Ovoub9yTIIiOzm5Vlrq7py+4w5lwwHOdOExmklartbd3ICe3AL37AkAxr0mfz7f0/YcsSZmekV1UXIZoZ6hyuHxRglSu0+ux8xRFGQyGZGV6ccmtEySCbgfamADovxgFNK4EAY/Ho9cbjMYt5o/0KxELOAkELoQA6L8Xgh0mBQJAAAgAASBwXQmA/ntdM+uP66L0X8T08/QXFpv3+Mnzw8NDkiR//fpltVqDVbPrnIBLE9sp9d8LjMPn81ksVpfLhRazx+O519zGF0rWaGevnaF709NfhCJp073Wc1YtzznMkxH79euXOrcgUZas0WrRG5kkSbvdnptXyGLzZmbnsFm3293a1pEgkc3N/V0JDmwBGsEErpD+e3R0ZDAYrLRS2iRJ2mx2vd6g1er0BoPT6YR/C4JTfIIrXq/XYDAGPI7AbMdkMuM6PAaD8W/FWbfbo9Ppo5lxYfEbT5Agkyv1BgOzSxHvniDMiDYvvEP0JC/W1VMumIt1/qrPDvrvVc8g+A8EgAAQAAJA4FIRAP33UqXjjJ25WP3XuLWVpFBKEuWfPk9rNNqnz8Ya7jYFPCR+xgGDuTAErq7+e1w+4u7k5Mv1jU2NRvv23fsEqTxbnW93OMLEeqrLXq+3rb2LL5S8ffc+eKfzqUwzDj7nMBl9CXvTat1LUqSIJbKXr9+gUsvrG5uvX79NkMoVyjR0uiNFUYeHR+/eTSVIkrp7+v9WWgo7N9ygqCuk/66trSdIkobvP8R5s1gszS3tPL44hsURiqXD90cODn7hu1E23G6P0bh1goFR2r+K3SLWbAkOqrLqDi7FI5UpLBZrcB+GK6i8fmXVHYY+6Nbo4ycsNi+eK5iZmY3YmbnDCcJkNojunsOKYpgiepLRxPLv+pxywfw7x26CZdB/b0KWIUYgAASAABAAAudGAPTfc0N9ARNdrP5LEERf/4AoQYZq4PIE4tq6u263+wJA3Pgpr67+63a7K6trOf9fTprN4ScpUt6+e//vUmo2W4pKypOV6Vqd7t/NEmD5/MMMcCCal263u74hsJRzPFcoT04dffwUb+c0GIzJKek1dxrOeQ91NCFc6T5XRf8lCKKnt1+aqNDr/+z6RIVTWGxeckq6KkstSZSz2Ly376b+Nh1LS98Tk5QfP37+24HXuP8JhNGu7l5UiocvTPin+q9Wpy8oKq2+UxdcOulvM3KCMKOZ4hxWFMMUV0X/PeWCiSYR0CccAdB/w5GB60AACAABIAAEgMAJCID+ewJoV2bIxeq/xzsBDx8/eZZfUJKZndvW3hlQBfjKcLz6jqKSygEld69KWEajsbGpJTM7NzM7t6KyemZ2DkuN/ygEs9nS2tYZTanoM3Tg/MM8gfOolHNxSTkq/pudk19b17CwuOjz+bA1s9nS3NJ2zvTw7Ne4cVX0X4vFokzJaLjbRBB/zlG02x0pqarEJOWmRuvz+Z49H2exee0d3X+brKv7O9bfRhp9/9MIo5VVd/6p/ht9FBF7niZMBuPnsKIYprgq+i8GeLIFg4dD4wQEQP89ATQYAgSAABAAAkAACIQjAPpvODLX4fqF67/XASLEAASAABC4BASuhP5LkuSLl6/5Qsn8wiJmtrdnkytSCovLPB7P8WmNM1y+eOThKO6AqtXvO516g79AMP2vzWZDtV+1Wt3D0ccxLM7D0ce4w/b2Dv23B4qiDg4OdDq92Ww521+JfD7f9s6OXm8IKAvjdDq1Wl00P236LWzvmExm57GHeoPB4/HY7Q6dTm80buHKSCRJOp1Og9GIYjQat5zOA3osJEm6XK6t7W2tzg9qYfGbWCKjV2PwV9t3uYzGLb8FnW5nZzfAZ4z9ZHIeUi3v1Po3+G9tbWu1Op1Ob7PZ6U4yV4xFdW9tNjv2M9hCNGFiB7RandG49eu4TDyOjqER5YqKmItTToFIVlXXejyecCSjz2awM1EuWoLw2Ww2gyHsksOWQy6Y4CrGCC/9vXmaKPDsN7MB+u/NzDtEDQSAABAAAkDgHxEA/fcfgb0UZkH/vRRpACeAABAAAqcmcCX0X5fLVVhUml9QQq/+cXR0VFl1RyKVLywurq9vlJZXpGdkazRaOpK9vb3BoftCsRSXpkWNgcFhtPcz4Dp6ma3Op09EUdTE5As2R3CrovLXr7+uL0z3J6B9eHhYVn6bJ0j4sbyCb5Ek+fjJMxab93xsAl8M13C5XNnq/NKyikejT9gcgVAs/fRpurOrl80RJCYpV1fXkQhute4N3x+RJipQgIlJyvsjj/b2bFhddTgcExMvUlIzWGxeDIvD5ghiWBy6/ru/73w+PpGYpIxhcVhsXmZ27qdPn0NWXgop54XzH19HqmVLa8eLl6+SU9KRD80t7RaLBfdhrhiLLLS1d2I/2RxBc0s7vUxExDCdTufExAvkQAyLk5iknJh8gWV07EnIRjQriiTJiLkIaRxdjGYKxKG6pvbduymFMg2TpHOIPpvBzkS5aLe2tpuaW8WSJLzkHow8ClllO+SCQVHQVyCKnf7ePE0UwXHdqCug/96odEOwQAAIAAEgAAT+NQHQf/814Yu0D/rvRdKHuYEAEAACZ0fgSui/i4vfBELJ2PhkQNzTX2Y5PFFySrpUlpybV7S4+I3egSCI9o7uuHi+QpmmylKnZ2TzBAkxLI48OXVsfNJms5eU3VJlqZPkKTEsTpI8BZWvVWWp6xoaA5TNu43NsXHcRFmy7qzrd4+NT7LYvMGh+3jHsdvtKSouo1c6pgcV0Eb6r1SmkCQqlMfqbXpGdoI0KTklPTaO293TR1GUy+VqbmmLi+fLk1P9MWbmJCYls9i8ltYOtIf36OhocOg+myNIUqSoMnNUWWpkCqtvR0dHj0afxHOFqNQyssAXJHz69BkryNixkHIevhuugfS+ZGW6QCRVpmaostRyRSqLzevo7MYVP5grxiILYomMyxMhC4lJybFx3CdPniEnI4ZJUdT4hF/oV6b4HUAclKkZUZ5lF82KipiLcHzQ9WimQBxkciWXL/YHkqkO5hB9NkP6E82iHRp+kCBJSsvIQkvu93qOi+e/fvM22GDIBRNR//2rNRk86Q2/AvrvDV8AED4QAAJAAAgAgbMlAPrv2fK8XNZA/71c+TipN3a7XavVmS1n/ETzSd25vOMA1OXNDXh2agKXX//1er2NTS2/lUGTyUwP9+joaGHxW5IiJS6el5tXuLdnoyjK6TzQanUHBwcURZnNFpk8JUmRura2hh66b7rXGhfPfz/1kW6HoZQq7vZ1fkGdV9jd0xeu6AHu+bcNk8mcrEzPVucjnymK2tjYFIkT6ZWO0bPwuDyFVqvDT8Ej/Tc2jnu78o5Gq5NI/YfgtbZ1rK1vCEVSJOBOf5mJ5wqzc/KXvv/w+Xxer/fjp2mZPEUkTkTbpdfWN0TixLSM7MXFb16vlyRJrVaXIE3C+q9Wp5MkKtS5BZsazf9b+JwglRcVlwUDCSnnRcSC9L54rvD27Rq93uDz+b4tfU+UJScr063WvYDhIadAFuLi+eW3Ko1Go8/ne//+A5sjKCu/jRTkiGFSFFVVXYvKjBAE4fP59AbDwOCw3eEIcID5JcOKipgLZsv4LsMUmENxablWqyMIIoDDX2UTz0hvRLNo376bGhufROi8Xu+rV2/iucKqmlq6HdRmyCZegRRFBez/PX0UwZ7cnCug/96cXEOkQAAIAAEgAATOgQDov+cA+cKmuBD912az4W/1/yhyXLwPfc0O0Br+0aTnYPbg4H+CCJ7O5/N19/T5VYOqmuAv8LhbuIbX693dNaFKkdvb2wEWrhPJU4IKBxCuA4FLQuDy678GozExKbmjq4e+1ZQkye/ff8jkymx1fm5+kUAoefdu6ujoaGLyZQyL8/HTZ7+QuqnhCyUlZRVuj4ckSYIgpqe/xHOFw/dH6PAZpDR6t3/UJkmyraOLL/xTAgIVf+DwRPRzNZGiRy9VgZ+CR/qvQCT9sbyCBLIEqVynN6A2ks+aW9rZHAHdIEVRA4P3Y1icV6/9+zFHHo6y2Ly3b9/jGOnDKYp69foti8178vQZ1qA1Gm1BYYk0UWEy/0eUpygqpJyHLYdroBjVuYW48gZJkrV1d7l88c/VtYBRIadAFlLSVPiUyADFMGKYFEX19Q9w+eKmey1ra+u7u6Zfv1z0VRfgRriXDCsqYi7C2Qy4zjBFRA5/lc2AedHLaBYtQfisVqte/6f09vzCYkBFaWyZIZsM+u/po8AO3MAG6L83MOkQMhAAAkAACACBf0cA9N9/x/biLV+I/jswOBzD4kx9+M++rWAWNrt9a2vb6/UG34p4BX1XxN+x6V886GOPjrwms1mn16MDakxm89HRSaaj24y+HSCt4m/jeO9YsKmQXxTdbndRSXkMi5OSprLZ/PvmAv4wkPT5fCsrK3n5RahSZGpa5szsnNdLYAtRkmSYApu68EZEUBE9vBJhRowCOlxXApdc//X5fI9GnwjFiatr/lK2+I/H4y+SoEzJMJvNGo02LT1LKlPMzy/6FUOe6Pv3ZYqi7A5HhipbLJG9efteo9Euff9eUFjC5vCn/n7/L573XzTmFxY5PBEqAYGKP6gyc+h7TjUaTW5+ES5PQa9QgfRfJAfT5U7URv+KhdTXZmbnWGzewOAwRVHNLe1cvnhl5SeOjj78WCz2//sb/Pd3YWWN9j8Fl0+p/wb8szswOBzgGPIwZERI96RboAOJJkyKoqx7e1XVtQplmkAkzS8ofvZ8XG8wRFn/F9ML+W8ug+f0XGAjzA2GKSJyQP83FWU2w7nBvGgJgtjY0FTX1PGFEvpE9OxgyyfL5plEgX24aQ3Qf29axiFeIAAEgAAQAAL/lADov/8U7wUbv8z6b2/fQGp6ZpTV+gI44sp6aelZcfG8kF9UDg5+fZ1fKCm9xeEJ0bEqJaW3lpf/97U5wOaZv0RfaOlfqFCbQRkP90XxxYtXWTl5IyOjuLoi3VsGkjabTZWZw+WJ0lXZ6apsLk8kkyt3dnbx8GhIUhTFMAU2dRkazKAienhVwowYCHS4lgQuuf7rcDgys9QVFVUBDxls7+yIE2S3K2vQ9syZ2bkEqVySKOfxxcpUFaoF4fUSzS3tcfE89EtVDIvDF0rKym87HPv0VKJPyDe03a/0u+fQdrlcefnFqATExsZmgiRp+P7DKOeNRv+tqq4VS2RG4xa2SZLku6kPLDbv0egTiqLqGho5ftH8B+5gMBjpuzWH74/EsDiojDJdhi4oKjFu/c8sGh5SzsOWwzWCVUufz9fR2c3ji1f/Zv8v/R/uAP03YpjIN5/Pt7q21t7ZlaMuSJAmyeTKlZ+r4dwOeZ1hRUXMRUiDwRcZpggmGcDhr7IZPDW6wrxoLRZrhionnitMTctEC4bhf6tCLpjgKIzGrQRpEt75fiZRhIvu2l8H/ffapxgCBAJAAAgAASBwngRA/z1P2uc912XWf0N+kfhbQOjLEv1rJLJwdHT09NlYPFfIF0pS0/3fajIyc2RyZc2d+r+d4sT9kW98YQL9S7gqSx3wbC/dfjj9l94nuM1Acm5unh3Pv11Z4zr+U1Z+O54jCDh5CRkMRxLdZZgi2J+re+WGhHl1E3TDPb/M+i9Jkp8+T/MECR8+fApI08amRiCSFhSW7u/vo9oO7Z3d6MewltZ2JApvb+/I5EpVljq/sESVmZOTW9DbO2C32wNMffz0OYbF6R8YYtjm6XK5dHqDwWD0eDwBw9FLp/NAp9Mbt7YYjIQciC6OPn4qEEl+LK88efJMkijX6fQMnem3otF/Ozq7WGze87EJt9tfB4MkSbvDUVt/N54rXPy2hOs/vHj52uv1F73ds9kejDxisf/3I+jbt+/jOYLXr9+6XJHrIZzsEw/pfRWVNegcPIIgtnd2VJk5SfKUXZOJHnK4LcbBimGA7onqPzCE6fP5LBbLwcEB8sHr9T589JjF5jW3tAc4wPySYUVFzAWzZXyXYYqIHP4qm3jG4AbDop3+MhMbx1XnFu7u7pIk6fF4fq6u0X9RoFsLuWDW1tZ5goSSsgrPcfGW/X3n48dP2RwB1n+Zo/D5fDs7u8atLa+XODo6MhiNZrP/qIODA//71PGXBZ3p3l6PNui/1yOPEAUQAAJAAAgAgUtCAPTfS5KIf+LGxeq/DocDVZQzGI24UCAqcavV6gqLy8QS2fzCIi6MgIoboPNznM4Ds8Wi1ep2dnb9FWxNJv8BaMffCuikwqmWP3+uJkiSBCJpb++AxWqlKOro6Gh2bu7xk2d4OL3mnU6n39nZpW9bs9lsOp3e7XbbbPbgKDyeQ73esLOziw+CpyiKJMldk0mvN3g8h/gIlGBtGjtAUZTP57Pb7QaDEUEYffyEXjojoIJEQJnjiCQpivo8/YXF5j59NkaS5OHhUWtbh1CcuL6+QfcBtUOSjGYKNJwkSbPFotPpnU7/aU4Bf1CYesNxeUGdbnfXFFyI40+xDp2/WIdeb7DZ7LiYI+Jgs9kIgjCbzaiW8a7JhHdDM4OiKIo5m9GHGRAXvAQC50ngMuu/h4eHt6tqAoohIDj7+/tZOXksNm9w6P7mpmbl5+qduruxcdzYOO79+yNut5uiqOkvM3Hx/J7egYXFb+sbm+jz0GAwOp1O/DlAUdSPHys8vjhZmf5lZhb1waer4UR8+TLD5YsTJEkzM3P4Ir0xNj7B5gjk/rPm/lOngt6Hoa3XG6SJir6+wdKyiuDNzgwDo9F/F799E4oTEyRJr9+829zUrG9s9vT2x3OFeQVFaCv0t6XvPIH4+Py3pZWfq41NzXxhApsjwP/QGAyGZGWaXJE6OfkSk9RqdfifD/qnJf1f4WCS4WJBqqU6r2jl56pWq1teXrlTd5fNETS3tKPP5IhTRNQ9I4bpcrnu1DU8fDiKfNjc1IyNTXB4onstbeHcDnmdYUVFzEVIg8EXGaaIyCFiNoOnC3mFYdFOf5lhsXmFxaUrP1c3NzXvpz4UFpfGxnHxioqYTZvNplCmiSWyt++nNjc1A4P3uXxxbBwX67/MUfxWeLNy8hTJaSaT2X8uYqK84nb14eHh5IuXbI7g/oNo99eHDPwaXAT99xokEUIAAkAACAABIHB5CID+e3lycfaeXJT+y2Lzxicmu3v6eIKEGBZHKlNMvniFNluhLa7BVRFiWBxU3xB9I3r85Hl5RVVsHDdHXfD9x4+8gqIYFudWRWVA8dyQqqXP57vX3BYbx23v6A5XXxjXvOPxxag6RGZ23vT0DBIjUBVFDk/09t375pZ21EcqU0xMvkR7yvR6vUQqz87Jo8udqBykNFGh1xui0X99Pp/BYGzr6BJLkhAQNkdA139RdJgV/j6GFkpEkhRFGbe2khTK4pJyvcEw/WVGnpxaW9eAY6QvuJAko5kCGUHqD5sjePrsOV0TR7K4cWurraPrdwHKGBaHxebl5RcFFOJwuz3z84slpbcQAR5f3NLWgXONfOvq7l1ZWS0tr0BPiOcXFGs0WqQNMYOKmM3ow6QTgzYQOGcCl1n/XVtbZyiGMDHxQiZX4toOXJ5ImZqRpEjh8cXoLLi19fUEqf9jEPeJYXHE/uoKI/tOJ+bscOyXlN7i8kT4UxFrTLjP87HxuHh+DItTVVOLL9Ib7R3+PbYxLM7Q8AP69SjbBEHU1d+VK1IlUnnwZmcGI9Hov16vt6e3//e2YswBVe+ZnfujZbvd7tq6Bi7fTyA2jisSJ9bW301Nz8T/OpAkOTY+IZOnsDl+CPgv7hDwaYk7BJMMF8v6+oZMrkSQkRt8oaS4tDzgMDdsGTfwFBF1z4hhut3uyupaxAHZ5/JFaelZS7TKGOH8p19nWFERc0G3w9BmmCIih4jZZJiXfoth0W5v72Rm5+HVEs8VKpRpHJ4o+gVDEERLawdP4P9fqRgWhydIyFEXSBIVON3MUWh1OolULhBJ19bWv8zMxsXzlanpNputpbU9No5bV99ID+QGtkH/vYFJh5CBABAAAkAACPw7AqD//ju2F2/5ovRfdjxfJk8RCCXpGdkZqhy+MEEkTtzc1FAU9XV+AdVD4AsT4uJ5aelZuDzC2PgkRVHoG1FaRlaCVC6TK9kcQXpGlixJKUmUx3OFS0vf6VhDqpa/nwlVZanFCTKtVkfvTG8bjcb0jGwuX4xq3qVnZAtEEh5f/OnTZyQpDgwOs+P5ibJkgeg4iswcUYKMxxfPzX1Fu4lvV9bw+GK6PxsbmyJxYsPdJrQHCvlWWFyGNzhrtTqDwYglaavVWlhcyuGJUtJUfgiZOYmyZLr+y1ycNyJJiqKOv5i1x3MEaccM79Q2WPf26BxwOyTJaKZAFmw2mzI1IzaOW15RhbY/Y8uHh4cVt6u5fH8N4pCFOHw+34ePn/lCiUAkScvwr4e0jCx5cio+4wj5lptXJJMr5cmpqix1SpoqLp5/u+rO0fH5gcygkP7LkM3ow8RBQQMInD+BS6v/EgTR09uPf/oKJuPz+T5PTxeXlKuy1Nk5+U33WjY1mpnZueyc/PJblWazZW/PVlxSLpMrC4pKc3IL0D8K0kRFbBx3bHyCbnB7e6fpXkt2Tj7qU9fQSP9BiyTJnd1dhTIthsWpbwihHJEkqdMbEqTyGBbnwcgjuuXo29PTXzKzc0vKKlDx4igHut3uuoZG5DD6yKK3u7p7kZ3Dw8OXr97QWRmNRvoU1r29e82tmdm56rzCkYejdru9rqERD0ePlUx/ma2orM7MzsX/vOIO+NMS3wpJkj5jQNvpPHj0+EnZrUqUhbz8ooBiHRGnQKfkYZeOH9Gwl5TdomczYphGo7GpuRWtlpzcgqbm1gBQAW6He8mwoiLmIpzNgOvhpoiGg8/nY8hmwEQMLxkW7fLKT7RasnPy6+obv/9Yrqv734qKmE3/+Y12e1t7Z2Z2bnZOfntHl8lkbm3rpGeTIQq32914r6WqqiJWgQUAACAASURBVNbh2DebLeW3KvsHBgmC+Dq/oM4rfPtuiiGom3AL9N+bkGWIEQgAASAABIDAuREA/ffcUF/ARBel/8awOAKRtLOr1+l0ut3uu433YlicFy9f0RGELCSH9d94rvDZs7HfZ8Gj7SSfp7+MPn5K10aRqZCqJbqYnpH9+7lj+oy4TRBE073WuHj+3cZm9FSs0+ns7RvgcIVFxWWoCgQ6sTpBmtQ/MOR0Og8PD0cePoqL5zc2taD9rR8+fGJzBD19A+glSZKPHj3h8ETzC4t03/DWJ9SQyhToyDufzzc6+iQunl9zpwHV3fN6vZMvXgbHGHErcTiSFEU5nQcPHz3m8kQsNq+vf8jr9ZIkaTKZ6DI03Vu85QezQg2GKVAHgiAGBofVeYUfPn4OGHucjmR1boHFaiVJMrgQh81mS8vIEogkff1D9uNif3aHY/LFS73Bv40ahx8Xz88vLFn6/sNfLnB3V5mSkShLRsU98Iwh1wPSf2NYHIZsIgsRw8QTQQMInD+BS6v/WiwWZUoG/unrBGSGhx8cPzXyAv14dlyv5hAdG9XQeC9Kg263R6vTTU/PJCvTuXzx23fvAgYeHBxsbmqmPnxKTFIKxYmL374FdICXQAAIAIFLRQD030uVDnAGCAABIAAEgMBVJwD671XPIJP/F6j/Nre04Y2u6Pl6VN4BuxtOa0P7f3PzC51OJxpYfqvy8PAQtac+fMQWsDIYoFoiEfB3Rblfv37RO+O23e5ISVWlpmcitRFdd7lc6AzxnZ1drBgO3x/B1SetVmuSIiVHXYBqGdsdDlVmTroqGx1S5HK58guK8wtKcKVj5EbA+W8lZbdsNv+hRm63OzevUJak3N31T4f+hIwxXJj/P4gKR/Lo6Ojho8dCcWJpWYVckZquytHpdEdeb2lZRWJSsvW4LDI2Ek45RR3CTYGHMzT29/fzCorFkqTnYxM6nd5qtR4eHtH7z85+ZR8L63jB0O/i8FPSVPj5Yoqiurp7MUzcP1wUSM1nyCaycJowsQ/QAAL/iMCl1X8Xvy3l5BagA8pOFnvtcUXgjs4eVM5Vo9HOLywUFJbEc4WvXr+J0ib6t4PN8T+30dB4D38U4+HoA5bN4cuSlL19A+E+cHB/aAABIAAELpYA6L8Xyx9mBwJAAAgAASBwzQiA/nvNEvqfcC5Q/6ULtehb91/pv6gzfWBIbTSk3me1WhOTktMyssKdHB1yFEVRdxvvcfliVHYAKYb0KOjVGxHloeEHHJ4IVYT4sbwsFEtRCQt0N9ws6K7D4degcYE8dDFkjFgADZC50ZBwB6xTFLW5qRGJExubWrxe7/jEC4FIWlpW8WN5RZGclpmVi6vrRuPtKYXRhcXFnNyC36KzWJJUXVM3PT1DP8pvfHwy5K5nHCAzSdyNAVQ02WQgSZ8C2kDgoghcWv339ECOCwSnoPLf6FGJuHh+wvHHhZNW/5d5Io1Gk19QUlFZ/eHjJ/phnnjU1/mFzOzcisrq6S+zAWXKcR9oAAEgAAQuDwHQfy9PLsATIAAEgAAQAALXgADov9cgiWFDuOT6ryRRvrtrCvAe7eE6jf57cHCQmZXLEyR8W1rCu3fpsxzricmlZRX0/V8EQdTcqROIpBvHdYqDFUOHw5GuylbnFuByk6tr60JxYtO9Vq/X29s3kKxMx2esM2iRyJM9m02uSFXRdFiSJCcmT1j/ISTJl69ex7A476c+UBTl9Xq7e/qOj3ZJj43jNt1rDSDDrLFWVt0JOQWdKnPb7XZ//DRdVV2Xrsrm8cXltyqxrPPs+XgMi/Py1esAl7BBZt9wNwbm0WQT6b+nDJPuDLSBwNkSuMb6LyoPeruyBpWURdV1x8Yng/fwni1SsAYEgAAQuMwEQP+9zNkB34AAEAACQAAIXDkCoP9euZT9hcOXWf+tuVOPJNqAfVin139JkrzX3BYbx71Td9dsNiOR1+fzOZ0He8ennzkc++mqHKlMsbq2hu4SBLG5ualQpmWochwOf9VgpBi+fTeFGHo8nunpLzy+uOZOPapQSVGU/2SziiplSsZvyTgrO6+jq4euYDKrlm63O6+gODFJqdXqUVVco3GrtKwi5E5YZlPhSD4afRLD4ow+foK2wu3t+cvsxrA4bI5g7qv/FDv6n5NNgS2QJLm3t6fV6nZNJswH3fV4PGaLxePxIDh2u72s/DY7nv/16wLqMDv3NS6eX1t/d29vD40lCMJmt3s8HtSB2TfsQ0T9lzmbFEWFI0mfAtpA4KIIXGP996KQwrxAAAgAgctMAPTfy5wd8A0IAAEgAASAwJUjAPrvlUvZXzh8mfXfvv7BGBanprYeFXzUanU2mw2f/8a8//fg4ECr1Wm1uvmFRbFEVlhchl4iC34jP1dl8pTYOO6tiqqFxW9arW5tbf3ByKO29k6KokiS7O7tj4vnFxSWoLtL378XFpexOYK+/kEkUyL9t29gaH1jU6PRvn//Qa5IFYiknz9P0xPw4cOneK6w4W6TVJa8urZGv4VUS+wb8lCr1eHCC93dvSw2725j8/rG5peZ2Rx1Pl+YEBvHxUUnIoaJpgtH8tvSd55ALEmUf/o8rdXqvszMpqZlxrA4YolsYfEbUlpPOQWOlyCIltb22DhuXkGx2WLB1ymK+rm6dut29bv3U+sbmygR9Q2Nxxr0POpmMpkzs3KPz9ZrXl5e0Wp1S9+/t7Z1rq2vow4R9d+IUUSZzXAk6eFAGwhcFAHQfy+KPMwLBIAAELgQAqD/Xgh2mBQIAAEgAASAwHUlAPrvdc2sP67LrP8uff8hT06Li+ejao8xLA7SfKPZ/4vq5OKBuIEsoMB/PzucrEyP5wrR3dg4Ll8oQfovRVFms6W4pJwvlOC7QnFieUUlPmEMKYbYclw8X5Io7+ntp5eMoChqb8+mTFXFxnGLS8txXQi0pJBqiS3gBpZ3NRpthiobEYiL58uT05pb2rh8Me4QMUw0UTiSbre7vqFRKJLSYpSmZWQJRNL0jGydTkeS5CmnwG8ej8dzq6IaTfTx02d8HZUhVqaq2Jw/iWaxeQg12meNes7MzilTM3CyWGyePDlt87gQB8OuXjxLxCiizGY4kngiaACBCyQA+u8FwoepgQAQAALnTwD03/NnDjMCASAABIAAELjGBED/vcbJvRj9d2x8UpWl/jr/5+l+iqK+zi+ostT0s9GQRDszO3frVlVmdq4qS407aDSa3Pwi1Jk+ELWRWdRGo+j/pU9BkuTKys/augZUUDIvv6i3d8BqteJ8W63W3t6BnNwCVZY6v6BkZGSUXmsSKYZJ8hRVlhoVo3z56k3wmUI+n+9OXQOLzaNPjaaw2ewlZbfo7qE2nczS0o+y8tuqLHVZ+e2Z2bnN49hxh2jCZCBJUZTL5RoaHsEx3n8wsrdn6+0bVGWpe/sGvV7v6adAwZIk+X7qY1w8n8XmTX+ZwZApikKVPSsqq1GiC4vLAlCjEOjJKi4pf/nqDZbaEcmu7l66WXo7YhRRZpMkyZBrkj4XtIHARREA/feiyMO8QAAIAIELIQD674Vgh0mBABAAAkAACFxXAqD/XtfM+uO6kP2/1wMoUgzxVtyQQREEsb29nZtflJqWST/5LWTna3zRZrOtb2w+Gn0SzxWmpKm2t3cuW7DRZPOy+Qz+AIEAAqD/BgCBl0AACACB600A9N/rnV+IDggAASAABIDAORMA/fecgZ/rdKD/nhg3s2KICs6iqsFcvvjp0+f0k99OPOkVHYhYcfmi5JSMickXlxAFczavKHZw+6YRAP33pmUc4gUCQOCGEwD994YvAAgfCAABIAAEgMDZEgD992x5Xi5roP+eOB/MiiEqOBsbxxWKpHX1jfTCESee8eoOHBufzMktaGpuXd/YvITiL0VRzNm8uuTB8xtFAPTfG5VuCBYIAAEgAPovrAEgAASAABAAAkDgDAmA/nuGMC+dKdB/T5yS4CrGdFOo4GxeftHQ8MgNF3/pWC5tmzmbl9ZtcAwI0AmA/kunAW0gAASAwLUnAPrvtU8xBAgEgAAQAAJA4DwJgP57nrTPey7Qf8+bOMwHBIAAEPg3BED//TdcwSoQAAJA4JISAP33kiYG3AICQAAIAAEgcDUJgP57NfMWndeg/0bHCXoBASAABC47AdB/L3uGwD8gAASAwJkSAP33THGCMSAABIAAEAACN50A6L/XeQWA/nudswuxAQEgcJMIgP57k7INsQIBIAAEKNB/YREAASAABIAAEAACZ0gA9N8zhHnpTIH+e+lSAg4BASBwLgRIkjRbLFqtzm63n8uE/3wS0H//OWKYAAgAASBwmQiA/nuZsgG+AAEgAASAABC48gRA/73yKWQI4Cbrv16vd3fXpNXptFrd9vb24eEhA6jLectms2m1uoODg8vp3om9cjqdOp3e7XaHsxCxQ7iBJ77udnt0Or3NZjuxhcs58PxJIg4E4bNarTqdXqvV6Q2GfaeTJMkTI7Lu7RkMhqOjo3AWbDbb8Yry0DscHh7erqqJjeN29/T5fD76rSvaBv33iiYO3AYCQAAInIwA6L8n4wajgAAQAAJAAAgAgZAEQP8NieWaXLyx+q/P51tZWcnLL2KxeTEsTmpa5szsnNdLnH9ebXb71ta21+s9wdQDg8MxLM7Uh4/MYyNOEbEDs/2zvevz+R6NPhGKE1fX1kNajtgh5KhTXlxZ+cnliwcGh09p51INvxCSFEUdHR2trW003WvNzslTZanVeQX3Hzy0WveQBEySpMvl2tra1mr9v80YDEa73c6gz3q93samlmRluslkDod3YHCYyxevrPykd7DZbMrUjBgWp7j0FsOPDfQh9LbP55ewd3Z3GXyj9z+HNui/5wAZpgACQAAIXB4CoP9enlyAJ0AACAABIAAErgEB0H+vQRLDhnBj9V+bzabKzOHyROmq7HRVNpcnksmVOzu7YUn9sxu9fQOp6ZkWi/UEM0Sp/0acImKHE/h24iEOhyMzS11RURVuR3bEDieemmHgtdR/L4Skz+f79m0pIzOns6vXebztV6vV5eYVtbZ1oowfHR29ePkqOSU9hsWJYXHEkqS2jq6tre1wG4QNRmNiUnJHV0+4DhRFhdR/CYIYGBzOUee/efOOIfXhbnk8noa7TQVFpS6XK1yfc74O+u85A4fpgAAQAAIXSwD034vlD7MDASAABIAAELhmBED/vWYJ/U84N1b/nZubZ8fzb1fWuI7/lJXfjucIFhe//YfOubyorLojlSn+qf4bcYqIHc6FhH8SkiQ/fZ7mCRI+fPgUctKIHUKOOv3F66f/XhRJs9mcnZPX2dVL3/P+Y3klOSV9bX2DoiiLxapMzVCmZqiy1KostUKZxmLzqmvqjkLtkY9yC3NI/feUq8LlcmWr87PV+aD/npIkDAcCQAAIAIGTEQD992TcYBQQAAJAAAgAASAQkgDovyGxXJOLF6X/+nw+u92uNxj8j3jrdLu7pqOj/xVA8Hq9BoPRZrMRBGE2m1GJ3l2TiSD+U5/h6MhrMpv/lBDVG2w2O8MGwICEfZ7+wmJznz4bI0ny8PCota1DKE5cP5afcM//OHn8HLrBYDw4+IU6BNfePTg40Gp19BKxqMipXu8PU6fT7+zs4j2tqLNWqyssLhNLZPMLi+hp9wALSBI1Wyw6nd7pDKzzi/f/OhwONIvBaMRqVMQpInagKP/R0qgUr81mD54CofgPqKBsoj7orK2QUWDgFEWhkqyqzBy7w0G/jtshO0TMhT8Kvb+gcLgoIoYZoP/6wzGbtVqdyWzGj/8ThM9i+VPTFmczuOwsjiVkg3lVM6woVKHY6TxAZ5rt7Oz6K1ybTFqtzmy2BL81gkl6PId6vWFn5z8FDUiS3DWZ9HqDx+MvkB0RNUVRPp8Pc9brDVarlSD+VNclCOLByKOMzByL9T8b3t1ud25+0fD9EYqi7A7HwOCw3mDwHf/5+XM1SZEqS1Ja9/aCiYXbwkwHpdXqmlva6PUfECucI/p7Fk9Bt6DT6S2W/0WBIKz8XE3LyErLyFr5uYpNXWwxbtj/i9MHDSAABIDATSAA+u9NyDLECASAABAAAkDg3AiA/ntuqC9gogvRf0mSNG5ttXV0CcXSGBaHxebl5RctL/+vNKfFYpXKFF3dvSsrq6XlFahEb35BsUajxTKW2+2Zn18sKb3F5ghiWBweX9zS1hG9+GLc2kpSKItLyvUGw/SXGXlyam1dA70GqM/n0+n02MkYFidBkiSWyD5+/IzyhLVXnLapDx9jWBxcIpYgiI0NTXVNHY8vjmFx2BxBZnbe9PQMmgV1Rk+4B/wXW0CWkU7H5giePnuOpUbsA4vNG5+Y7O7p4wkSYlgcqUwx+eIVOggr4hQRO6AH5zk80dt375tb2lEgUpliYvKlx/PnKK2I2YwYBQZIUdTa2nqCJGn4/kP6RXo7ZIeIuRgYHObwRG/evrvX3IajwKCiCZOu/5IkaTKZS8sq+EJJd28f0vR9Pt/GpqaisgYtSJxTuuxIDyRkm3lVM68o5OHjJ8/LK6pi47g56oLvP37kFRTFsDi3KiqD3xrBJHU6fYIkKVudT+/sdnuKissSJEk6nR6BCig5HbDs/evBuIU58/ji6pq6jQ0N+vFmb28vNS1zaHiEJMm9PZv/ZxGdXq83HBz8qmtorKy+g9/giI/P53M4HIVFpVnZeQ7HfgC0cFuYCYJY39isrqnjCyUoEWyOgJ4IxArnKOAdhyTsjc3/vHkrKmu2traRA2i94eH0RsRi3AEhnO1L0H/PlidYAwJAAAhccgKg/17yBIF7QAAIAAEgAASuFgHQf69Wvv7O2wvRfw8PDytuV3P5/tq7qix1RmaOTK6suVOPXUf6b25ekUyulCenqrLUKWmquHj+7ao76Blwn8/34eNnvlAiEEnSMrJUWeq0jCx5cio+38lk8u/NDP67vb2DJFSCIFpa2+M5grSMLFmS8k5tQ8Duwt9bJjOzczk8UUqayv8cemaOJFFBV74iao5GozE9I5vLF6emZaqy1OkZ2QKRhMcXf/r0mSTJr/ML6PF2vjAhLp6Xlu6PAv0dG5/EKNCOS2VqRmwct7yiCu3BxHcHBofZ8XyZPEUglKRnZGeocvjCBJE4cXNTQ1FUxCkidkB6HzuenyhLFoiOp8jMESXIeHzx3NxX5EbEbKJu6KytkFHgcAiC6OntlyYq9HoDvkhvhOsQMRcDg8OxcVyxJMkfhSoQVDRhYv2XJEmLxVJX3ygUSXt7B3ARg729vYzMHC5fhBakMiUjLp7P5vCzc/I1Gn86Iv6JuKqZVxTyMC0jK0Eql8mVbI4g/XhtSxLl8Vzh0tJ3ugMhSfpTWVHFFyb8WF7BnTc2NkXiRFyOOSJqu91eWlbBEyQgDmjZp6tyTCYTRVFzX+cliYr19Q2rda+hsZnF5rE5AoFIOv1lZmBwuKikHP104fP5trd3tFrd2tp6/8BQckr62PhEgDTMsFv8955rZWoGX/jHh9/bjUUJMrr+q9FocvOLVFnq5JT02DhusP77+8Q5VaZaKJZmZOb437yqbKlMMTT8AGEZG5/0f3Cpcjg8IYcnzFD5+6C/X+cXMLrzb4D+e/7MYUYgAASAwAUSAP33AuHD1EAACAABIAAErh8B0H+vX07/F9GF6L/H8m6yOrfAYrWSJHl0dDQ7N/f4yTPsFtJ/4+L5+YUlS99/+Hy+nd1dZUpGoiwZPTZus9nSMrIEIklf/xAqFGB3OCZfvNQb/uiGlVV36JvycBsX63Q6Dx4+eszliVhsXl//kNfrPd7UaTIYjKj9+PHTuHh+zZ363d1dkiS9Xu+zZ2PR678EQTTda42L599tbDaZzBRFOZ3O3r4BDldYVFyGq0BQFBWx9i46pUqdV/jh/7ceY1BIjBOIpOgoLbfbfbfxXgyL8+LlK9wnmikYfEBTJEiT+geGnE7n4eHhyMNHcfH8xqYWpKRHzCbyhCEK7KrFYlGmZDTcbQoo9BGxQ0RREoPq6x9yuVzBoCKGidTV/oGhPZvtXnOrUCTt6x/E4i9FUR8+foqN41ZV1zoc+yRJarW6DFVOkiIFZR+HwNBgXtURVxTyMJ4rfPZs7M3b9/5N8YKEz9NfRh8/pa9b5EA41B8+fGJzBIND91FySZJ8/OQZmyPA5ZiZUZMk+XxsIp4rbG3rRG9Mp9PZ3dMfF89/8vQ5RVHD90dUmer9/f3+/kE2R5CSppLKknmChLW19YHBYfz2RKV10duWxeZ1dffu7e0F67/BW5gpiiIIorGphcMVdnR2Ix+Ojo46unro+i/OApb18RXU+PlzlcsX36mtR1uhXS7X+6mpt++m6N2g/i+dBrSBABAAAkDg/AmA/nv+zGFGIAAEgAAQAALXmADov9c4uf7jtkiSRHU2CYLwer1HR0eHh4cej8ftdrtcroODA6fTebYI9vf38wqKxZKk52MTOp3earUeHh7Rp0D6b0qaymy24Otd3b0lZbdsNjtFUbOzX9nHEiRdgMM9KYrq6u7FO/LojbqGRrfbfXR09PDRY6E4sbSsQq5ITVfl6HS6I6+3tKwiMSnZarUeHR0VFpVJZcnb2zvYLHrOHT/fzSyE2e2OlFRVanomvY6ty+XKURckSJN2dnaxWQbtFfcJ10A+NLe0YQ4BD+OjgRGnYOiAphi+739gH1mzWq1JipQcdQEqNBwxm+GcD7hOkuSLl6/5Qsn8wmLALfSSoQNzLnDVAgZQEcNEQmFre2dLa7sgSPylKOrR6OMYFmd8YpIgCJIkPR5Pa1sHjy9eXV0LGU7wReZVHXFFIQ9z8wudTidaBuW3Kg8PDwPWLaooHQ613eFIy8jCJSBQ8Ye0jCy8jJlREwRxq6JKKlMsLH7Du++/zi+IxIm3q2oIgqiorKmuqbNa91JSVVk5ebu7uw8fPU5SpFite909feq8QlQdxe121zU0+t+5mTlyRWpcPL+ltR2X3kboQm5hpijKat1LUqRmZefhQthoAfyV/mvc2kpJzZAnp/0WxFEtcvwWw4kD/RejgAYQAAJAAAhcCAHQfy8EO0wKBIAAEAACQOC6EgD997pm1h/Xhei/FEUtLC7m5Bb8FlvFkqTqmrrp6Rn6EVVI/62suhMO/fj4ZPCWxnCdg69vbmpE4sTGphav1zs+8UIgkpaWVfxYXlEkp2Vm5R4cHDgcfvUW70ZEFgJ0NGYhLFwIdxvvBehQDNprsOcBV5h9wJ0jTsHQIXiKYNmLOZvYDeaGy+UqLCrNLyihy3b0IQwdgp0M0MFP0CEgTKSuZqvzeIKEwuIyu93/OwT9z/zCAocnys0rWvr+XaPRvn33PkGSpEhO2z2ue0DvGa7NvKojrij6VlZ6+AHrlqIoBpIkSXZ09QhEElQCYmNjU5wg6+jqweo/M0kEDW+3pzcKCkvsdnuOuqC3b+DH8gqXL/5dRcHn81VUVufmF7lcrttVNZVVNXgiRMnr9X5b+p6jLoiL57+f+khHF24Ls95gEIkTAz49BgaHA953yBQdGt04SZIvX71RZakTpEmyJOW95tb5hcWAEyYDVgh9+EW1of7DRZGHeYEAEAACF0IA9N8LwQ6TAgEgAASAABC4rgRA/72umfXHdVH6L0VRbrf746fpquq6dFU2jy8uv1WJNxqHk7pwJp49H49hcV6+eh2gFuEOzPV/X756HcPivJ/6QFGU1+vt7umL5woVSn8l0KZ7rf6TqWw2ucJfdxgfhEWS5MTkS7roHCCEHe9OfYXPfzsOIbm0rIK+bZAgiJo7dQKRdOO4Pi/ytrLqjiRRvrvrr476t38CfKAoii78YWsRp2DoEDyFw+FIV2Wrcwvox+UxZBO7wdxYXPwmEEoCah/ThzB0CHAyIBd4/y/eux0MKsACRVEBYSKhsL2jq+ZOA0+Q8PDRKD38422n1tT0THz4G4vNkyTKh4YehFui9NBQm3lVR1xRdCmTvgyC9V8GkhRFra6tCURSVALi8ZNnQnHi6to69jYAVABqt9utzi3wlx4+Lu1N33rfdK/F4XBkq/MHBoenPnxkx/Pn5ubNZnNKWmbNnfr9/f3snLzWtg48Eb3x9etCPEdAr9LLsBl8Y1PDF0puVVThwxIJgujo7P4r/RfN7nQ6JyZf3LpVlZqeGc8VtrV30iu3IP1XdfyLEd3bC2yD/ssA3+Vym8wWegYZOkd/6x+Zjd4B6AkEbhoBn89n3bOZTGaXy33TYg+OF/TfYCZwBQgAASAABIAAEDgxAdB/T4zuCgy8EP3X4/GYLRaPx4OkMbvdXlZ+mx3P//r1z9FJEfXf2bmvcfH82vq7vw/dQrViCYKw2e0ejwdBZ67/+2j0SQyLM/r4CdIC9vb81YRjWBw2RzD31X+smdvtzisolsoUGq0WVSg2GrdKyyro+u+DkYf//7y/jyB8Ozu7t6tqsP7rcOynq3KkMsXq2hqSgAmC2NzcVCjTMlQ5Dsc+Xhw1d+p5goRvS0tYrsK3UMOvR+/tabW6XZMpoDBugBgXLGsiCxGnYOiApnj7bgotFY/HMz39hccX19ypR85EzCaOwmyx6HR6p/MgIECkwjc2tSQr08NVy/V6vQwdmHMRvf7LECZWV81mS2lZhVAkffP2ndv9Z71RFPX6zVsuT1RaWpGVnavKUheXlL989Yau/qOofT7frsmk1erMFkuANMy8qiOuKOxhwDII0H+ZSaLFX1xanq3O39vbKyouKyu/TZfMmFETBFFVfUeRnKbRaI+OjgICRILpwODwp8/TsXHckYejw/cf+Kts1za8fP2GJ0h4998Cu+gHKrfHMzX1gcMTPXz0GK8chi3Me3s2uSIlKzvXelwy2OPxrK2vo5MY8fmQ2A4dGr5IUdSvXy6LxV8HBoWwtb3tP0ROnIgrjCNQav9DDEqDwRgQ6cHBgU6ndzgcJEnabDa93uDxePx1zHd2jVtbXi9Bn+sM26D/MsD8PD1b39hmNG4zA0S7RgAAIABJREFU9DnBrX9k9gSewBAgcEMIuN3ujq7+29UN8wtLNyRkhjBB/2WAA7eAABAAAkAACACBvyUA+u/fErtK/S9E//25unbrdvW791PrG5tarW5tbb2+ofFYe51H7CLqvyaTOTMr9/gUsubl5RWtVrf0/XtrW+fa+p+Nisz1f78tfecJxJJE+W8dSqvVfZmZTU3LjGFxxBLZwuI3JGt2dfey2Ly7jc3rG5tfZmazc/K5fHFsHBfvIf3yZYbF5uXmFS0v/1xe/llWXhkXz8f6L0mS3b3+Y68KCktQLdSl798Li8vYHEFf/yBdLerrH4xhcWpq61d+rqKSqTabjb6GCIJoaW2PjePmFRSbLf8riByNrInsRJyCoQPSf/sGhtY3NjUa7fv3H+SKVIFI+vnzNDIeMZuo2+Hh4e2qGjZH8PTZ82Cl22A0JiYl0+sM0AlQFMXcgTkX0YCKGCZdKDSbLfmFJQKR9P3Uh6OjP6Wra+vviiWyN2/eLS356z/4U6nTbW9v08VTiqLsdntBYWlsHPd2VQ3+uQIFy7yqI64ouocM+3+ZSSJPxsYnhWLpy1evJYmKgB3ZEVFPvnjF5YtLyypmZmf/cNDqtFrdwcEB1n83NjYlifIYFofLF6WmqWLjuCw2Lys7D6n/BwcHuHbw+sbmm7fv5YrUJEXK2voGXhUMW5iPjo4qq+7ExfMHh+5vbG6+f//hdxUOvlBC3/9rs9nQFG/evIvnCpuaW9FLvN9/+svM7co7X77Mbm5qtFrd8vJKYXGpWJKk0eqwD8did21sHLerqwd9lKEwKYqafPGSzRHcf/CQIIj2zm6eIGF+fsHhcGTl5CmS08L9yIEtn7hxmfXfw8NDk9liMpn9f4P24XoJwmyxhrz7n1v/3fEXcAsND7kl8PDwsLd/+NFj/yGE+M++0/lnRpPZFlTRxf+71P97tR+mCH6AWdw/ZCB0g/4OQRCwY9AAAjeTAHoHWfdsAf+TgD498NvQ4/GMPn7e2TO48jPa8voXxfM/n3smMw7hDP0B/fcMYYIpIAAEgAAQAAJAAPTf67wGLkT/3dzUKFNVbI5fLY1hcVhsnlCcWF5RiXfFRtR/KYqamZ1TpmbEc4XYiDw5bZNWV4EhbW63u76hUSiSorGxcVyhWJqWkSUQSdMzsnU6HUmSGo0mNT2TxeYhD2VyZfWdOjZHgPVfk8mco85Hmm9sHDdBmpRXUMyO5+On1M1mS3FJOV8ooc3iD5N+qB1FUUvff8iT05Ad1BNbQCF4PJ5bFdXo1sdPn+lxRbn/N+IUDB3QFGj2GBYnLp4vSZT39Pbjna0Rs4kcttlsytSM2DhueUWVx3NIj8Ln8z0afRJQZ+CvOkTMRURQEcOkq6sURW1sbKalZ0llivmFRSQBPxgZRUlEawYtm9T0zJmZWawRo4EJ0qQYFkeZmrG39x+hP+KqZl5RdA/D6b8RUSPsJpNJfnyEmiJoR3ZE1C6Xq66+UShOxBzQ4pn68NHj8eQXlHR193q93v6Bwczs3Kbm1tm5OXVeYUFR6eLiNzQ7ch6Nio3j8gQJKWmqickX+FeTiFuY574uyOQpyAF/MYqM7OaWNrr+G5BuvLzxu3vu67wkUY7flWjZN91rCVDz37x5K01U0CNFFtAPNnX1/tMmi4rLYuO4j0afaHU6iVQuEEnXaPU06Ov89O1Lq/8eHh7OLy61d/Z19gx29gzWN7Z9XVjCMA8PD9c3NE3NncF3vQSxsant6Or//1ut76Y+YYV3z2ZvaGyrb2xFd9F/Q0pCyz/Xauruff/xE0O22e1Pno03t3V39gw2t3X39g8HS8BavaGuoeV2dcOLV2/xQHojwKxjf39w6CF2Jvow6TahDQRuLAHH/n5Tc2dre8/+/n+OHUZvtHf/LQF/+Sm5XO6v899a2nvQZ0JTc+fjp+NnLgGD/nv5VwJ4CASAABAAAkDgChEA/fcKJeuvXb0Q/dfn801/ma2orM48flK+sLhsZGSUfuqXzWYvKbvV1d3LEA9JkisrP2vrGrJz8hketw9nweVyDQ2P5OQWqLLU+QUl9x+M7O3ZevsGVVnq3r5BJG4uLn4rLilHxj9PT797P0Wv/0BR1PLKz99lRpGF8YkXBqOxqLiMvl/SarX29g7gWQLCRL6RJDkzO3frVhWiocpS0y2gR+DfT32Mi+ez2LzpLzP0iH6foKXKUn+d/1M3g6Kor/MLIS1EnCJcB6SUJclTVFnqzOzckrKKl6/eYOGGoqiI2UQOEwQxMDisziv88PE/EjaqtJuZpa6oqKKbpYf5+zl65g4RcxERVMQwNRpNbn4RPTUzs3PZOfkVldVms8Xn8y19/yFLUqZnZBcVl6FUZqhyuHxRglSu0+txOP4HVzu7s3LyBgaHsYaO70Zc1Qwriu4hfRmgNlok0ZCkKAoVzFVlqbt7+rDqip2MuOxdLtfIyGhhcRm9/i9y4G5Tc3HprSOvF1sLbiCH0di8/KL2zi6j0UjvFnELM0mS76c+FBSVZmbnVtXUra6ufZ1fyM0v0mg0yA5aD3T3UBu/lQ4PD1++elNSVpGZnRty2SM7Xq/35as36FOCbuHr/II6rxCVExkbn8wvLNFotG63u/FeS1VVLf6hix7UmbQvrf5rNG4PDj3EtReePBuvqbu3/P9795a+r9Q2tIxNvPyTnYmXtQ0tS99X/B8Ox4oqlnQ/fJyurLn7eXoW9UT6bzhxFiP1EsTT5xMtbT2O/T+Fd9C+3Zb2HuSS0bjd0t7T2z9M/whCfRqa2itr7oacItgsnhE1UJhr65voJUOYAQPhJRC4sQQePX5eXduEPxzQ/2M8G3tR29CiNxhx5d9wO+hDdkCbcPHvRpjtvtNptli9xJ+CPDa7HT8QEKzSIiPBvxJha8GNz9Oz/liWV9Gt5eXV6tqmsYlXwT1PcwX039PQg7FAAAgAASAABIBAAAHQfwOAXKuXF6L/XlGCAXVUzycKm822vrH5aPRJPFeYkqba3t45n3nxLEgYxfsi8fWzapAk+enzNE+Q8OHDp5A2I3YIOepvL54yzF+/fvlLwcqSUcFopNrb7fbcvEIWmzczO/e3/vyL/udDktnzd++mkhQpdEGcuX/w3Si3MAcPvAlXLq3+GwB/U6OrqbuHRFUvQfQN3O/tH8blUGx2e0tbd9/AfazL4OFI8B26/whdiVL/3dk11d9tpW8eDNi36/P5Pn76QledfD7f4rcf9Y1t0zNfGxrbQuq/wWaxn6iBwkQlSv8qzAA78BII3BwC33/8rKy5+2zsBS4Bsb/vbD3+ecZz/AdVfmhq7qypu7ep+V9BHlRfxWjc6uweQPttG5s70XMGWp2hpu7ezOyfCmMY5otXb+82tdvsDoqibHZ738D9tv9/RmF88jX91yD/b8w/16prm0J+LmGDAY2h+4/aOnp//fqFrv/69auto/fBwycB3U75EvTfUwKE4UAACAABIAAEgACdAOi/dBrXrQ36b/QZvRD9F+mSXL4oOSWD/gh89G6fsucphdGIs5MkOTA4fKuiyu7wfwcL/hOxQ/CQE1w5ZZhW616SIkUskb18/QaVgl3f2Hz9+m2CVK5Qphm3tk7g0pkPOR+SzG6bTOa0jOzu7l6HYx99+BwdHVmtVqz9MQ+nKOrw8LCxsbmxsTngy3nEgTehw1XRf9fWN6trm16/naIoymyx1t9tRW2KovadzqkP0w1N7fV3W80Wa0DWUGcsoCD99/HTcbxrL3iLH0VRwUe0jU28wrqPlyCMxq3u3iH61jyLxdrW0ft8/AWDxBxslu4tUpBrG1rQ7r+/CpNuB9pA4EYRcOzvt7T10EtAoF9rPnz8c+QAojG/sBSs/xq3thsa256Pv0B9Pn7+gp4ksNkdd5va0a84Lpcbl94em3jV2T2ADuccGBppau7Ejwi8fjOFn1dA1t5Nfbxd3UDvEzEvz8dfNDS2rW9oDg8PUSmbu03tHz9/iTjwrzqA/vtXuKAzEAACQAAIAAEgwEwA9F9mPlf7Lui/0efvQvTfsfHJnNyCpubW9Y3N4Cfxo3f+xD1PKYyeeN5zHnjKMP9UlP5v0dt4rlCenDr6+OmFJO6cAUY/3cTkC2VqxsDg0MbxiYJf5+dbWjuirNwd/Sw3s+eV0H+9BDH1wV/GAVXjxZtk0YPbYxOvBoceTn2cDhZ3kKJaU3cP7+QNqrfrrw4c8OB2wBFtaGEM3X/U0dXvdrtdLvf6hqa7Z+jt+48dXf1oZzG9sEM4/TekWfSsunXPZjKZ9QZjW0fvyMOn6LeN6MO8mUsXogYCmMC7qY+4PozP53s29iJYdQ3Wf4N7ejyezu6BgaERt9vd2T2ACi/MzM6jnf4+n29gaAS95VHPnr4QRcCxV0bjdm///YkXr/GViA30AeWvAz7/bW19s6m5c/Tx8+h/7IxoH3UA/TdKUNANCAABIAAEgAAQiIYA6L/RULqqfUD/jT5z9Dqq0Y+66j2DK+de9YhC+n/6MFHR2+KSclT8Nzsnv7auYWFxET/EGnLeG3iRXvAaldZ99PiJ03lwA1GceciXX/9Fm+Dq77Z29wyhrXZIGJ2dWzAat3r7h5G8ElLc2d7eaWnrxkV7g+l9/Oyv4UB/chw9tY034eIhSP81my1TH6Y7ewaNxm1/Ye7/13+1egPephdO/13+uRZslqIoj8eDnk/v7Bns6OpfW99EenSUYWIPoQEEbiwBvcFY29CC3sio+MOjx88DaAR/RKDqCj19w/hpAJPJ3NM3jH7pefDwycDQiJcgno+/rLvbMjbxCr3l8cMEEy9e1ze24uEBPyMFzB7lSy9BmC1WVFai+fiQSbz1OEoL0XQD/TcaStAHCAABIAAEgAAQiJIA6L9RgrqS3UD/vZJpA6eBABAAAkEELrn+6/P5NrW6uoYWuoaLSnOOTbzq6OrHB7vNzM7X1N3T6gw4xN1dU0tbd31jKz4LDt/CDbSJj15wE+3kpRcXRp0fPHzS0tY9+mSsf3AEydC4NKfL5e7tHx5+MIq26YXUf8OZxZ6gxsrPtTv195CMFWWYARbgJRC4gQQ8Hk9v/zAqARFQqhvTCNZ/UZGHO/X3UPFf/F+05fbFq7dtHb1mi7W3//6Ll2/7Bx/s7zvbOnpx5RlUKAb9bFNd2/T46fgpJWD0cdfQ2Nbbf9+xv280bnf2DNbU3Vv89uNsfxUG/RevCmgAASAABIAAEAACpycA+u/pGV5eC6D/Xt7cgGdAAAgAgb8hcJn1X5/PhzbwNjV30jVcx/5+U3On/4ns5VUUa/Bz3Da7vadvuL6xFQvEIamgM9boj4qHO6INlfIcGHqIn8XGPT9Pz1bXNn2d/4Z2Ea6tb9Y1tKASw1gPwp1DukG/iAtNRBMmfSC0gcBNJoBKQPxYXg1Z/IGiqGD9F1d7CKmuvn471dDY9nN1fej+o/UNTXNr18/V9YbGtsVvPwI4ezyeh6PP6NXAUYfD/2vv3r+bOA7+Af//v6UHXsDYYAwONuaWkIQQ4HXhJXUItPmGhlygpGkSHBobsCxfJNkS+p54wmSzuliWtV5p/ej0pGtpd2fmGXksPpqdrdWWll+ulEqp/Tv9GL5SiuuM79xi7rdliJNfUHU6dk/Py3/3xGVnAgQIECBAoLuA/Le7z2i/Kv8d7f5TewIECLwVGNr8t1P4Gyp+/catM2dnXr6929uvvy6Fe6+FV3sMf+Nsu3j3p0ajcf/zv58Yn0rdx6nZbC4uvjgxPrXw2cPtej3cVPBvCw/GT08vLr64PX83zhycnrk0NX3hL0dPnhg/Mz1zKaTPXU77th9+///y2trMhSsxZe7ezNSxfiRwmAXCEhDvXft4cup86+IPbfPfZrMZfsV+/XWple6rx9+eOHnm5u07H+yswDs7d+Xm7TunJqfDRQbb9fpKqRSD47DoRFwaIpztu6fPjhybuHDxahg0WotIPRO+8pmcOh8j45VSaXLqfPILqtQh/f0o/+3PzVEECBAgQIBAWwH5b1uWgjwp/y1IR2oGAQKHXmBo898QfLxzZOzThc//WJ1z+WWtVgtp7NnpC9dv3AovXbh4NVwxHZLZ2bkr7xwZCzNw47Gbm5Xw6tLyy/Dkz88Xp89fvHT5WljPodlsdlo5NLxNbs/fnTg9/ez7H5aWlr989Hj89HTbycWt6z90OW2YIRgreePm/Ll35+Jk58XFF52aeejfuQAI/EkgLAHxzpGxeKPI8HL8Fft04fM4T//V65UQ3YY1Fi5cvBp/B5eWlsNYERZgiWcLVwDEybmr5fL1G7eeL/4SDvzy0ePJszOpASEcsqf09vb83f85cSoOep8ufH5i/Mye7iD3J5QOP8h/O8B4mgABAgQIEOhHQP7bj9qoHCP/HZWeUk8CBAh0Fxja/PfJ02fJSbVhe3buapyZu7j4Ynbuang+meEmn0+eIYSqqVdTwUqnW7RFw+RU31TWE/dZLZcvXb6WfLXLaVP1CQuPxlOFpLttM5P72CZAIK7GmxwNUr9BcUBI/qKFX9j40vTMpTBWhOfj2cKvavLA1C9v/Nom9kXYITXIxFc7bSQHmXgNQaed+3te/tufm6MIECBAgACBtgLy37YsBXlS/luQjtQMAgQOvcDQ5r8H3zM93qJtrxXL6LR7rYb9CRAgEATkv94JBAgQIECAwAAF5L8DxBy6U8l/h65LVIgAAQJ9Cch/I1vrvN340n42MjrtfqrkWAIEDrOA/Pcw9762EyBAgACBgQvIfwdOOkQnlP8OUWeoCgECBPYhIP/dB55DCRAgMHoC8t/R6zM1JkCAAAECQywg/x3iztl31eS/+yZ0AgIECAyFgPx3KLpBJQgQIHBQAvLfg5JWDgECBAgQOBQC8t8id7P8t8i9q20ECBwmAfnvYeptbSVAgEBT/utNQIAAAQIECAxQQP47QMyhO5X8d+i6RIUIECDQl4D8ty82BxEgQGBUBeS/o9pz6k2AAAECBIZSQP47lN0yoErJfwcE6TQECBDIWUD+m3MHKJ4AAQIHKyD/PVhvpREgQIAAgYILyH+L3MHy3yL3rrYRIHCYBOS/h6m3tZUAAQLWf/AeIECAAAECBAYpIP8dpOawnUv+O2w9oj4ECBDoT0D+25+bowgQIDCiAub/jmjHqTYBAgQIEBhOAfnvcPbLYGol/x2Mo7MQIEAgbwH5b949oHwCBAgcqID890C5FUaAAAECBIouIP8tcg/Lf4vcu9pGgMBhEpD/Hqbe1lYCBAhY/8F7gAABAgQIEBikgPx3kJrDdi7577D1iPoQIECgPwH5b39ujiJAgMCICpj/O6Idp9oECBAgQGA4BeS/w9kvg6mV/Hcwjs5CgACBvAXkv3n3gPIJECBwoALy3wPlVhgBAgQIECi6gPy3yD0s/y1y72obAQKHSUD+e5h6W1sJECBg/QfvAQIECBAgQGCQAvLfQWoO27nkv8PWI+pDgACB/gTkv/25OYoAAQIjKmD+74h2nGoTIECAAIHhFJD/Dme/DKZW8t/BODoLAQIE8haQ/+bdA8onQIDAgQrIfw+UW2EECBAgQKDoAvLfIvew/LfIvattBAgcJgH572HqbW0lQICA9R+8BwgQIECAAIFBCsh/B6k5bOc6tPnvSqn06vVKo9EYYI80Go1Xr1dWSqUBntOpCBAIv1lLS8ubmxUaXQTkv11wvESAAIHiCZj/W7w+1SICBAgQIJCjgPw3R/zMiz6c+e92vX7h4tWLl69Vq9UBEpfLa1PnZq/fuDXAczoVAQKVSuXcu3PvHBl79M+vaXQRkP92wfESAQIEiicg/y1en2oRAQIECBDIUUD+myN+5kXnlf+W19aWlpbD/1rn4SZfTU2nrdVqS8svfz92+WWtVotGyaM6nTnsvPjLi7HxqW++fRqP3a7Xl1++anvauE8sutMkxK+/eXJy4uzPzxfDIZubld9PuNPSPTUzFmqDQIEFwu9d669G+F0rr62Ftler1Q8/+mR65tKTp8+GXCM5CrW2q9lsxmFkaWm57Q77aaD8dz96jiVAgMDICch/R67LVJgAAQIECAyzgPx3mHtnv3XLJf8tr63duDl/7t256ZlLU9MXps7Nvnjx37gUw0qpdP3GrdNT56dnLp2eOj87dyVGwLVa7dFXX5+dvjA9c2l65tKJ8akv//l1jIDn79z7y9GTU29fnZ659OFHn7TO8G00Gjduzk+cnl4tlwNfrVb7/t//mTg93fa0YZ9Go/HV42+PHJvoNAkxzCmenbsSS3zy9Fk44V6bud9OdTyBERFYLZcnTk+fOTtTLv8e9YaKf/f02dHjpz5duD8i7fi9mt1HtmazuVIqffnPP0awtgPUfpos/92PnmMJECAwcgLy35HrMhUmQIAAAQLDLCD/Hebe2W/dcsl/Hzz8IgYfq+Xy5NRMDIBqtdrs3JXJszOLiy+azebi4ovJszOzc1dCyLu4+OLS5WvhpWazef3GraPHT333dkrg/J17Y+NTr1d2WX53pVQ6c3YmuUrD1988OTY2efP2X4Pmzdt/PTY2+fU3T5K44aixibOd8t8wp/iz+w+TR8Xt0Mypc7MbGxthDmCXZsajbBAovMAHH31y5NhE/C1uNpvhG5pjY5M/P1+MK//+NpX+z/P9g0zbHcIc29Z5+uW1teWXr7br9XDsSqkUZ+jHucYRPJwkfvkUn++y0WVkazabm5uV2bkrZ6cvxBGsy6n6e0n+25+bowgQIDCiAvLfEe041SZAgAABAsMpIP8dzn4ZTK1yyX9TVZ+/c+/o8VM//OenZrMZ5v3FlRkajcb9z/+eiofi4T/856ejx0/N37kXnukx/33w8IsQLYWjWuftrpRKk1PnL1y8GnOi7Xp94bOH46enP3/wj6PHT7UuQto6pzhWMm4kq7enZsYz2CBQPIFvvn36l6Mnb9ycj1cAlMtrZ3a+9anuPMLKDxOnp+MoERG26/XFxV+mz18ME+3HT0+HCwJ+/On50eOn/vHFo7hn2Ji/c+/kxNmV0mqYinvh4tV4ucCt/70bryQIO3/39NmRYxPJcSB1tl1/TI5sYSg7MT6VXfjbbDblv7t2ih0IECBQJAH5b5F6U1sIECBAgEDuAvLf3LsgwwoMQ/578/ado8dP/fjT82azefP2nRjQhHDn/OzlI8cmbt6+06rw7PsfjhybuHtvIbw0f+fe8bHJZ9//EOb0tV1bs/XOb8svX504eSaepLy2tvDZw7GJsydOnll++Sqc+cefn5+cOHv/wd9D4tya/+5657darXb9xq3JqZmw6MSemtnacM8QKIxA6gqA+CVQair9o39+3Zr/hkn3n9yaDxr3H/w9zNxfKa2enDgbvhn6bRnutxOHb96+M33+YrVabTQaFy+/n1wE5u7/LaSS2U8X7r9zZCy5z17NkyPbxsbG1LnZq+9/9Or1Spx03DpDea9FpPaX/6ZA/EiAAIFiC8h/i92/WkeAAAECBA5YQP57wOAHWlzu+e/mZmXmwpUYsly++sG5d+cqlcrmZuX7f//n/Mzle3+7f+7ductXP0i5hDm5fzl6Mk4WfvDwi9R6u4uLv8Q5vOHw1ju/xUg3XEh+8/adS5evLdx/GMOmsCTFxcvXqtVq3DlVmdSd3+Kr8V5PXz56fGJ86sHDL8JLvTcznsoGgaIKfLpwPy7k0mkqfWv+27pntVqdPn/x4uX3K5XK9PmL4Uujf3zxKFxAEDLfMJKEPWcu/LG2eKvt4uKL2bmrt+fvtr7UyzOpkS18z/T+Bx9fee/Dt+uMn/l04fPBRsDy3166xj4ECBAojID8tzBdqSEECBAgQGAYBOS/w9ALWdUh3/x3c7Py6cLnO9N7f197NwSjy8svFz57OD1zaXHxRaVSac1/t+v1f//w44mTZ87PXI63cUsarZbL596dOz42+d9fl+LzITCKk3DD8yHS/eL//XNx8ZfZuSsh7olhU7jt24nxqSc7qwy3zX9b5xTHEkOEFOKey1c/iPMQe2xmPI8NAgUW+Pn54rGxybAERFj84YOPPkm1N/5KxufDjNqZC1fidNqlpeWZC1fCF0jvXbt+8fL72/X6J7f+evzk5M3bd8JI8t616+EMt+fvnhg/Ew9vXf83FtTHRuvIFoaO8dPTcZbx/Qe/rWwTvxPqo5TWQ+S/rSaeIUCAQIEF5L8F7lxNI0CAAAECBy8g/z1484MrMcf8t1ar/W3hwV+Onnz/2sfVajW0+b1r1yenzn94/ebcpfdDsBtSnpjahNtD/fDjT8fHJuNt4tp6ffX423eOjCXXAA33cPt04X5y/7BU6M3bd869OxezmH988SgsSfHy5aupc7PxAvO2+W/rnOLk+eP2J7fm4yTHXpoZD7RBoNgC1Wp1du5KuAlkamns2PDW/Dcs8vA/J07FWf9hI9xbcv7Ovalzs8svX83OXZ3/6725S++FRVriSi/NZjNcMXDu3bkjxyY++vjWoCLgtiNbGGfiYuXNZrPtN1uxvf1tyH/7c3MUAQIERlRA/juiHafaBAgQIEBgOAXkv8PZL4OpVV75b61W+3JnQc/ZuavJCbxhzc2w2EJo4X9/XTpx8kwMbRuNxosX/52cOj9xejrMye0EEYKkeGCIe5J3fgsHrpbLE6enf7tC/Lt/hWfideUrpdUbN+eTawp/+ejxkWMTny58vrS0HC7cjjsnW9G2Sq9XSmPjUyEA2rWZbc/gSQJFFQhLQHz73b9u3JyPq8EkG9ua/8bVHuKN45L73723MDY+9fRf31+++sH3//7P6TPvPv3X92PjU189/ja5W7PZrFar1z680brIeFi8ZaVUSu3f/cdOI1tIq5PrmLd+s9X9zL28Kv/tRck+BAgQKIyA/LcwXakhBAgQIEBgGATkv8PQC1nVIZf8t1NE0mw2FxdfnBifWvjsYVi3N8ykixdN9x7+bm5WPvr4Vjyw2Wwml/FNaV6/cevM2ZmXb+/29uuvS2HOb7Va/fDE890fAAAe0klEQVSjT5KzC09PnQ+3hJqeuRTS5zCn+PqNW6lzpn5sNBo//PjT2PhUuKtV92amjvUjgcILhCUg3rv28eTU+dbFH5rNZmv+22w2w2/ur4k1XiLUV4+/PXHyzM3bdz746JMwv/jm7TunJqfDfSa36/WVUikGx2HRieRFBuE2dEeOTVy4eDW1hngsonWjy8hWrVYvXr42c+FKXPD3x5+fxwGh9VT9PSP/7c/NUQQIEBhRAfnviHacahMgQIAAgeEUkP8OZ78Mpla55L9ff/PkyLGJ5LzapaXlV69XQhxze/7uxOnpZ9//sLS0/OWjx+Onp+OyDCul0uROAhtm4P6+7ufyy1qt1mw2V0qluBLo3xYenJ46Hw8Mac7R46fizeKSfIuLL85OX7h+41Y4/MLFq6lZyXHn1vUfHjz8onVOcdi/vLYW6/Pz88XZuSuXLl+L04S7NDMWZ4PAIREIEe07R8aSd3QMX9ssLb9cWloOC4V/+ehxcqxYXHwxPXPpwsWr8RctTswP6y3Es4UZ9ycnzq6UVpvN5mq5fP3GreeLv4QDv3z0ePLsTHK4aDab4ZC2k5E7dUr3ke3J02cTp6fj2HXx8vtxlZtOJ9zr8/LfvYrZnwABAiMtIP8d6e5TeQIECBAgMGwC8t9h65FB1ieX/Pf2/N3kpNrkqp2hbckdkqHMk6fPWg+cnbsabqmUPCo+GU7Y9s5vScfkjdqSKW1ynzA9eXbualx3osud3+LqorHCyYZ0b2aqUD8SOAwCYTXe1G9f8hcz/iqFFX6DyWq5fOnytfhSnJgfno9nC+dJHpg6c/yljtRhh3BDyPhk943kEBSrlCw0OYIln+9+2t5flf/2bmVPAgQIFEBA/luATtQEAgQIECAwPALy3+Hpi8HXJJf8d/DN2O2Mbe/8tttBu7/e453fdj+RPQgQILBvAfnvvgmdgAABAqMkIP8dpd5SVwIECBAgMPQC8t+h76J9VPCQ5L9Pnj5LzQjeh9kfhz54+EWcYPjHs7YIECCQh4D8Nw91ZRIgQCA3AflvbvQKJkCAAAECRRSQ/xaxV9+26ZDkv2+b6/8JECBQWAH5b2G7VsMIECDQTkD+207FcwQIECBAgECfAvLfPuFG4jD570h0k0oSIEBgVwH5765EdiBAgECRBOS/RepNbSFAgAABArkLyH9z74IMKyD/zRDXqQkQIHCAAvLfA8RWFAECBPIXkP/m3wdqQIAAAQIECiQg/y1QZ7Y0Rf7bQuIJAgQIjKSA/Hcku02lCRAg0K+A/LdfOccRIECAAAECbQTkv21QCvOU/LcwXakhBAgccgH57yF/A2g+AQKHTUD+e9h6XHsJECBAgECmAvLfTHlzPrn8N+cOUDwBAgQGJCD/HRCk0xAgQGA0BOS/o9FPakmAAAECBEZEQP47Ih3VVzXlv32xOYgAAQJDJ7Br/ttoNOpvH9vb21tbW7VarVqtViqVjY2N9fX1crm8urpaKpWGrm0qRIAAAQItAqVSaXV1tVwur6+vb2xsVCqVarVaq9W2tra2t7fDeN9oNMKn/Tdv3rScwBMECBAgQIAAgT8E5L9/WBRva9f8d2NjY21trXgN1yICBAgUTGBtbW1jY2Nzc7NtBFCv1+W/BetxzSFA4JALyH8P+RtA8wkQIECAwGAF5L+D9Ryus7Xmv2FSWJgRtrm5Kf8drg5TGwIECHQQSOW/Yf5XnALWS/67trZm/m8HXU8TIEBg6ARC/hsu/jD/d+i6R4UIECBAgMCoCch/R63H9lLfVP5br9flv3vxsy8BAgSGRaBt/vt2vYff/r/L/N/Nzc319XX577D0pXoQIECgB4Fk/tvp4g/rP/QAaRcCBAgQIEDgNwH5b5HfB3FFsJgLyH+L3N/aRoBAcQW657+NnUeMg1Pr/8b8t1wuW/+3uO8RLSNAoFACpVKpXC53X/xd/luoLtcYAgQIECCQpYD8N0vdvM8t/827B5RPgACBwQj0mP+Gb/ta89+w2o/8dzCd4SwECBDIXiDmv50Wfw/f/MVP+9nXSAkECBAgQIDACAvIf0e483atevxEmJr/W6vVKpVKWP93fX191/PYgQABAgTyFQj3fw+XAKfu/x4WfwjjfDL/3draSq32Xi6XV1dX822I0gkQIECgF4HV1dUw/zeZ/27tPMLi7/LfXhjtQ4AAAQIECAQB+W+R3wld8t9qtSr/LXLfaxsBAsUSiPlvtVrtJf9NTgGOo33If9+8eVMsG60hQIBA0QTevHkT8t+2g7/8t2j9rT0ECBAgQCB7Aflv9sb5lSD/zc9eyQQIEBikQNsIIC74G9f/bb3aI0wB3tjYiLeA297eHmTNnIsAAQIEBi2wvb29uroaFv/d2NioVCqtX/6Z/ztodecjQIAAAQJFFpD/Frl3k/lv8qLgWq2WTASKTKBtBAgQKIRAyH9bI4C47EPcCKFwcv5vWPAn5L/lcrlarRaCRCMIECBQWIFqtdrLzd/c/62w7wANI0CAAAECgxaQ/w5adMjOFyLgODWsbSIwZFVWHQIECBBIC6yvr4fFf1NTwMLwHmeBdZr/m1wCYmNjwxIQaV8/EyBAYGgE3rx5s7GxUS6X45UfrV/+hZXf41SPoam7ihAgQIAAAQJDKiD/HdKOGVS1ds1/BQGDonYeAgQIZCQQsoAe89/k1R5bW1vhgo+Y/66trZXLZUtAZNRTTkuAAIH9C2xtbcXJv+Hmb/Gbv62tLYv/7l/YGQgQIECAwCEUkP8WvNNb8984BThcEbyxsVGv1wuuoHkECBAYZYF6vR7v/x5v/paMAJLzf3uZAry2tmYK8Ci/I9SdAIHCCrx586a889h18q/FHwr7JtAwAgQIECCQgYD8NwPUYTplvC6sSyKwtbU1TFVWFwIECBD4k8DW1lbbyb/x+t895b9hCvDm5maj0fhTMX4gQIAAgVwFGo3G5uZmavJvp8Uf5L+59pXCCRAgQIDAiAnIf0esw/Za3WT+m7woON4CLmQKez2t/QkQIEDgYATevHlTrVbb5r8x9n3z5k0MAsKT9Xo9XO0Rl4CI13zEG8G5/uNgelApBAgQ6EUgXOrRJfy1+EMvjPYhQIAAAQIE2grIf9uyFOfJTvlvTATCopCWgChOl2sJAQLFEoiLP3Rf/7E1/40RcPILv42NjZj/ru48arVazJGLJac1BAgQGHaB8O1dvV6v1WphTO6S/4Zlf8KVH3HMt5jPsPex+hEgQIAAgeEQkP8ORz9kWYvUEsBtE4HNzU0fH7PsBOcmQIBAPwJd7vzWGgF0Gu3jF36tU4BXV1dLO4/19fXNzc2tra36nx/bHgQIECAwIIE/j6/1ra2tSqWyvr4ehuLV1dUu4W+c/Ns6+Pfz18UxBAgQIECAwCETkP8Wv8OTU4DD5854C7jqziMkArVaTQRc/HeDFhIgMDoCjUajVqvFlR/i/N/kFLA4wic34hIQqS/8qtVq2wg4RA8rKyuvdx6vXr16+faxnHgseRAgQIDAHgUSg+jy25H15atXr8J4u7KyUiqVusz8bTvyJyf/+vQ+On/V1ZQAAQIECOQpIP/NU/9gyo6hQEwEwiSG1hlhlUrFQhAH0ylKIUCAQHeBRqNRrVY3NjZi/lur1cL8r5D/hiE9jvDNZjNux9E+5L9tv/NLLgRRLpdjBJxMgV/tPGJgkdpIhhq2CRAgQCAIpIbK+GMYUZPJbwx/yzuPtbW19fX15LCfDH+T3/wl89/uf0q8SoAAAQIECBAIAvLfQ/FOCKFAKhHY2nmk1oXc2NjY3t6OscKh0NFIAgQIDIdAHKu3t7c3dh6p8LfT9b+h+jH/DQtKhnt+xinAye/8UrOA19bWQgQcl4NY2Xm8TjxicmGDAAECBPYkkBhKX4fRtbTzSE77TYW/lUolhr+dRv4w5g/Hny+1IECAAAECBIZdQP477D00kPqFD4htE4HaziNeFBxuBxcWgqzVajELDolw3YMAAQIEBicQhtbw3+3t7VqtVqlUYvKbDH/j5N9QeDgkju3xL0V8Jjlob+88Ut/5xQg4TgROpsCpIHjlz4/XHgQIECDQVeDPo+bvP5V2HiH2jav9xuQ3zvxtDX9N/o1/5mwQIECAAAEC/QnIf/tzG7Gj3rx9NN4+UhcFJ2cBxwg43CM+JALhwrT4gdUGAQIECOxfIAyt4YY/IQKIF/+2DX+TKz+0vf737WD/2/+H8T7kxa0RcOvXfqkxP9m6kgcBAgQI7EMgOaLG1R46Dfupmb+dwl8r/zY9CBAgQIAAgZ4F5L89U434jjEUaJsIJGcBh0lhIQUO88JiKLC284iBhQ0CBAgQ6E8gDKfhv+s7j9S03zj/K8787RQBpP46xdG+xwg4ORG4dcxvbV0yxbBNgAABAp0EWsfPOPInh/3UtF/hb+qPmh8JECBAgACBgQjIfwfCOAIn6S8RiClwDAXCB9b43/hB1gYBAgQIdBeII2dyI8S+4d//Yc5vSH77jgBaR/vkQsDhXnBhLeBw5UeYCJz65i815ndvl1cJECBAoLtA78N++M4vebfPer3+9vq9RnKEH4F/fqgiAQIECBAgMDQC8t+h6YrsKxI/MsYPkW2vC26bCGzuPGJOYYMAAQIE9i8Qhtbw38rOo7rzCNdkhBV7w9INyWV/2678kPwbEkf7OAW4bQTcNgWOQXDy+7/Y0mSEYZsAAQIEugvEwTNuxGE/jPnJL/xi8iv8Tf5Fs02AAAECBAgMRED+OxDGkTlJDAXaRsBt54XFqWHxc2r85GqDAAECBPoTiCNq2Aixb5jzGyOAkPymln3YNfwNf5DiaN8aASfXf483hYvf/KXG/P5a5ygCBAgQaBVIjvxth/1U8mvm78j8E0tFCRAgQIDA0AvIf4e+iwZawV4SgVQKHJcGjp9TkxvJD7K2CRAgQKCLQHLwTG6HYbZ1zm9MfvuLAPY04Me5wG3H/C6N8hIBAgQI7CqQHPPjV33JYT8mv/sc+Qf67wYnI0CAAAECBIojIP8tTl/22JJkItBlXlhMgZOzw5IhhW0CBAgQGIhAGGaTqz3s+u//Xm77nhrtuw/4PY75qQjDjwQIECDQRaDT34juw36n7/x6Gfl7/OeA3QgQIECAAIHDJiD/PWw9/lt7U6FAXAsiLhCZXBc4XoCc/KhqmwABAgQGIhDH2OQ6v6nVfpNrPoQBvPc/XQMf8DvFGZ4nQIAAgaRAl78RWY/8vf+NsCcBAgQIECBwSATkv4eko9s0s8dQoG0WnPrY6kcCBAgQ6FsgDLPJ/ya/lkuN1W1G892eSp0hORE49bVfjwN+l1DDSwQIECCQXMyh05+G5JgftruM/Gb+7vaHzusECBAgQIDALgLy312Aiv1y91AgfAxt/XjqGQIECBAYuEDyX/5hu3WI7vtPUuupUilw2yC4tY2dggzPEyBAgECrQOso2vpMavBvO1z3Pfg7kAABAgQIECAQBOS/3gnp5SDC587Uh1E/EiBAgMDBCGT3j/+2Z24NgmMzW3MKzxAgQIDAfgTiAJva6DQ++4cKAQIECBAgQGAgAvLfgTAW4SSdPneG51MfUv1IgAABAoMS6D78DvwPTJfiBtUi5yFAgACBXgS6DMgDH/ydkAABAgQIEDjMAvLfw9z7bdre5WOolwgQIEDgIAXajNGDe2pPDeklxbAPAQIECHQS2NOQO7iR3pkIECBAgAABAr8LyH+9FToK7Omjqp0JECBAYP8CHUfkzF7Yf52dgQABAgT2L5DZMO/EBAgQIECAAIGm/NeboE+B/X/MdQYCBAgcQoE+x9wDOewQdocmEyBAIEeBAxnaFUKAAAECBAgQkP96DxAgQIAAAQK9CeSYkiiaAAECIyfQ28hqLwIECBAgQIBA5gLm/2ZOrAACBAgQIECAAAECBAgQIECAAAECBAjkIiD/zYVdoQQIECBAgAABAgQIECBAgAABAgQIEMhcQP6bObECCBAgQIAAAQIECBAgQIAAAQIECBAgkIuA/DcXdoUSIECAAAECBAgQIECAAAECBAgQIEAgcwH5b+bECiBAgAABAgQIECBAgAABAgQIECBAgEAuAvLfXNgVSoAAAQIECBAgQIAAAQIECBAgQIAAgcwF5L+ZEyuAAAECBAgQIECAAAECBAgQIECAAAECuQjIf3NhVygBAgQIECBAgAABAgQIECBAgAABAgQyF5D/Zk6sAAIECBAgQIAAAQIECBAgQIAAAQIECOQiIP/NhV2hBAgQIECAAAECBAgQIECAAAECBAgQyFxA/ps5sQIIECBAgAABAgQIECBAgAABAgQIECCQi4D8Nxd2hRIgQIAAAQIECBAgQIAAAQIECBAgQCBzAflv5sQKIECAAAECBAgQIECAAAECBAgQIECAQC4C8t9c2BVKgAABAgQIECBAgAABAgQIECBAgACBzAXkv5kTK4AAAQIECBAgQIAAAQIECBAgQIAAAQK5CMh/c2FXKAECBAgQIECAAAECBAgQIECAAAECBDIXkP9mTqwAAgQIECBAgAABAgQIECBAgAABAgQI5CIg/82FXaEECBAgQIAAAQIECBAgQIAAAQIECBDIXED+mzmxAggQIECAAAECBAgQIECAAAECBAgQIJCLgPw3F3aFEiBAgAABAgQIECBAgAABAgQIECBAIHMB+W/mxAogQIAAAQIECBAgQIAAAQIECBAgQIBALgLy31zYFUqAAAECBAgQIECAAAECBAgQIECAAIHMBeS/mRMrgAABAgQIECBAgAABAgQIECBAgAABArkIyH9zYVcoAQIECBAgQIAAAQIECBAgQIAAAQIEMheQ/2ZOrAACBAgQIECAAAECBAgQIECAAAECBAjkIiD/zYVdoQQIECBAgAABAgQIECBAgAABAgQIEMhcQP6bObECCBAgQIAAAQIECBAgQIAAAQIECBAgkIuA/DcXdoUSIECAAAECBAgQIECAAAECBAgQIEAgcwH5b+bECiBAgAABAgQIECBAgAABAgQIECBAgEAuAvLfXNgVSoAAAQIECBAgQIAAAQIECBAgQIAAgcwF5L+ZEyuAAAECBAgQIECAAAECBAgQIECAAAECuQjIf3NhVygBAgQIECBAgAABAgQIECBAgAABAgQyF5D/Zk6sAAIECBAgQIAAAQIECBAgQIAAAQIECOQiIP/NhV2hBAgQIECAAAECBAgQIECAAAECBAgQyFxA/ps5sQIIECBAgAABAgQIECBAgAABAgQIECCQi4D8Nxd2hRIgQIAAAQIECBAgQIAAAQIECBAgQCBzAflv5sQKIECAAAECBAgQIECAAAECBAgQIECAQC4C8t9c2BVKgAABAgQIECBAgAABAgQIECBAgACBzAXkv5kTK4AAAQIECBAgQIAAAQIECBAgQIAAAQK5CMh/c2FXKAECBAgQIECAAAECBAgQIECAAAECBDIXkP9mTqwAAgQIECBAgAABAgQIECBAgAABAgQI5CIg/82FXaEECBAgQIAAAQIECBAgQIAAAQIECBDIXED+mzmxAggQIECAAAECBAgQIECAAAECBAgQIJCLgPw3F3aFEiBAgAABAgQIECBAgAABAgQIECBAIHMB+W/mxAogQIAAAQIECBAgQIAAAQIECBAgQIBALgLy31zYFUqAAAECBAgQIECAAAECBAgQIECAAIHMBeS/mRMrgAABAgQIECBAgAABAgQIECBAgAABArkIyH9zYVcoAQIECBAgQIAAAQIECBAgQIAAAQIEMheQ/2ZOrAACBAgQIECAAAECBAgQIECAAAECBAjkIiD/zYVdoQQIECBAgAABAgQIECBAgAABAgQIEMhcQP6bObECCBAgQIAAAQIECBAgQIAAAQIECBAgkIuA/DcXdoUSIECAAAECBAgQIECAAAECBAgQIEAgcwH5b+bECiBAgAABAgQIECBAgAABAgQIECBAgEAuAvLfXNgVSoAAAQIECBAgQIAAAQIECBAgQIAAgcwF5L+ZEyuAAAECBAgQIECAAAECBAgQIECAAAECuQjIf3NhVygBAgQIECBAgAABAgQIECBAgAABAgQyF5D/Zk6sAAIECBAgQIAAAQIECBAgQIAAAQIECOQiIP/NhV2hBAgQIECAAAECBAgQIECAAAECBAgQyFxA/ps5sQIIECBAgAABAgQIECBAgAABAgQIECCQi4D8Nxd2hRIgQIAAAQIECBAgQIAAAQIECBAgQCBzAflv5sQKIECAAAECBAgQIECAAAECBAgQIECAQC4C8t9c2BVKgAABAgQIECBAgAABAgQIECBAgACBzAXkv5kTK4AAAQIECBAgQIAAAQIECBAgQIAAAQK5CMh/c2FXKAECBAgQIECAAAECBAgQIECAAAECBDIXkP9mTqwAAgQIECBAgAABAgQIECBAgAABAgQI5CIg/82FXaEECBAgQIAAAQIECBAgQIAAAQIECBDIXED+mzmxAggQIECAAAECBAgQIECAAAECBAgQIJCLgPw3F3aFEiBAgAABAgQIECBAgAABAgQIECBAIHMB+W/mxAogQIAAAQIECBAgQIAAAQIECBAgQIBALgLy31zYFUqAAAECBAgQIECAAAECBAgQIECAAIHMBeS/mRMrgAABAgQIECBAgAABAgQIECBAgAABArkIyH9zYVcoAQIECBAgQIAAAQIECBAgQIAAAQIEMheQ/2ZOrAACBAgQIECAAAECBAgQIECAAAECBAjkIiD/zYVdoQQIECBAgAABAgQIECBAgAABAgQIEMhcQP6bObECCBAgQIAAAQIECBAgQIAAAQIECBAgkIuA/DcXdoUSIECAAAECBAgQIECAAAECBAgQIEAgcwH5b+bECiBAgAABAgQIECBAgAABAgQIECBAgEAuAvLfXNgVSoAAAQIECBAgQIAAAQIECBAgQIAAgcwF5L+ZEyuAAAECBAgQIECAAAECBAgQIECAAAECuQjIf3NhVygBAgQIECBAgAABAgQIECBAgAABAgQyF5D/Zk6sAAIECBAgQIAAAQIECBAgQIAAAQIECOQiIP/NhV2hBAgQIECAAAECBAgQIECAAAECBAgQyFxA/ps5sQIIECBAgAABAgQIECBAgAABAgQIECCQi4D8Nxd2hRIgQIAAAQIECBAgQIAAAQIECBAgQCBzAflv5sQKIECAAAECBAgQIECAAAECBAgQIECAQC4C8t9c2BVKgAABAgQIECBAgAABAgQIECBAgACBzAXkv5kTK4AAAQIECBAgQIAAAQIECBAgQIAAAQK5CMh/c2FXKAECBAgQIECAAAECBAgQIECAAAECBDIXkP9mTqwAAgQIECBAgAABAgQIECBAgAABAgQI5CIg/82FXaEECBAgQIAAAQIECBAgQIAAAQIECBDIXED+mzmxAggQIECAAAECBAgQIECAAAECBAgQIJCLgPw3F3aFEiBAgAABAgQIECBAgAABAgQIECBAIHMB+W/mxAogQIAAAQIECBAgQIAAAQIECBAgQIBALgLy31zYFUqAAAECBAgQIECAAAECBAgQIECAAIHMBeS/mRMrgAABAgQIECBAgAABAgQIECBAgAABArkIyH9zYVcoAQIECBAgQIAAAQIECBAgQIAAAQIEMheQ/2ZOrAACBAgQIECAAAECBAgQIECAAAECBAjkIiD/zYVdoQQIECBAgAABAgQIECBAgAABAgQIEMhcQP6bObECCBAgQIAAAQIECBAgQIAAAQIECBAgkIuA/DcXdoUSIECAAAECBAgQIECAAAECBAgQIEAgcwH5b+bECiBAgAABAgQIECBAgAABAgQIECBAgEAuAvLfXNgVSoAAAQIECBAgQIAAAQIECBAgQIAAgcwF5L+ZEyuAAAECBAgQIECAAAECBAgQIECAAAECuQjIf3NhVygBAgQIECBAgAABAgQIECBAgAABAgQyF5D/Zk6sAAIECBAgQIAAAQIECBAgQIAAAQIECOQiIP/NhV2hBAgQIECAAAECBAgQIECAAAECBAgQyFxA/ps5sQIIECBAgAABAgQIECBAgAABAgQIECCQi4D8Nxd2hRIgQIAAAQIECBAgQIAAAQIECBAgQCBzAflv5sQKIECAAAECBAgQIECAAAECBAgQIECAQC4C8t9c2BVKgAABAgQIECBAgAABAgQIECBAgACBzAXkv5kTK4AAAQIECBAgQIAAAQIECBAgQIAAAQK5CMh/c2FXKAECBAgQIECAAAECBAgQIECAAAECBDIXkP9mTqwAAgQIECBAgAABAgQIECBAgAABAgQI5CIg/82FXaEECBAgQIAAAQIECBAgQIAAAQIECBDIXED+mzmxAggQIECAAAECBAgQIECAAAECBAgQIJCLgPw3F3aFEiBAgAABAgQIECBAgAABAgQIECBAIHMB+W/mxAogQIAAAQIECBAgQIAAAQIECBAgQIBALgLy31zYFUqAAAECBAgQIECAAAECBAgQIECAAIHMBeS/mRMrgAABAgQIECBAgAABAgQIECBAgAABArkIyH9zYVcoAQIECBAgQIAAAQIECBAgQIAAAQIEMhf4/zA2yoH3fPRbAAAAAElFTkSuQmCC;strokeWidth=1;imageBorder=default;" vertex="1" parent="1">
          <mxGeometry x="-81.06" y="364" width="842.11" height="249" as="geometry" />
        </mxCell>
      </root>
    </mxGraphModel>
  </diagram>
</mxfile>
